<svg width="420" height="32" viewBox="0 0 420 32" fill="none" xmlns="http://www.w3.org/2000/svg">
<path d="M0 16H175" stroke="#DFB850"/>
<path d="M205.472 4.45873H226V8.16292H205.472V4.45873ZM209.421 0H213.336V12.0386H209.421V0ZM217.966 0H221.915V12.0386H217.966V0ZM206.63 13.1018H224.945V31.8285H221.064V16.7031H210.306V32H206.63V13.1018ZM208.706 19.9614H222.732V23.4598H208.706V19.9614ZM208.809 26.7867H222.834V30.388H208.809V26.7867ZM213.779 14.8853H217.421V29.4619H213.779V14.8853ZM194.987 2.77814L197.813 0.583066C204.213 6.00214 205.03 12.0729 205.03 18.6581C205.03 23.3569 204.655 27.9871 203.123 30.0793C202.579 30.7996 201.864 31.2454 201.013 31.4169C199.753 31.7599 198.323 31.7942 196.757 31.6913C196.757 30.4223 196.383 28.9132 195.702 27.7814C197.302 27.8842 198.46 27.8842 199.14 27.8156C199.617 27.7471 199.923 27.5756 200.162 27.1983C200.877 26.2722 201.149 22.671 201.149 18.5552C201.149 12.3473 200.264 7.33976 194.987 2.77814ZM201.387 12.4845L204.417 14.268C202.749 17.6292 199.583 21.6077 196.86 23.9057C196.213 22.911 195.089 21.5734 194.102 20.8189C196.826 19.0697 199.889 15.537 201.387 12.4845ZM202.783 0.651661L205.847 3.15541C203.498 6.89389 200.06 10.2551 196.621 12.6216C196.043 11.7642 194.851 10.4609 194 9.74062C197.404 7.47695 200.706 4.01286 202.783 0.651661Z" fill="#DFB850"/>
<path d="M245 16H420" stroke="#DFB850"/>
</svg>
