<svg width="457" height="550" viewBox="0 0 457 550" fill="none" xmlns="http://www.w3.org/2000/svg">
<g clip-path="url(#clip0_2358_6365)">
<path d="M253.691 340.306C253.691 340.306 337.574 304.877 325.444 229.378C319.843 202.334 303.073 183.708 303.073 183.708C303.073 183.708 312.386 94.2238 253.691 66.2848C253.691 66.2848 247.162 97.9688 224.791 133.398C224.791 133.398 185.782 124.085 135.837 143.639C135.837 143.639 62.6253 97.0409 49.5672 99.8248C43.0382 115.667 36.5092 183.708 67.2653 221.921C67.2653 221.921 56.0963 267.591 73.7943 291.819C91.4924 316.046 108.693 330.96 145.017 342.062C145.017 342.062 120.426 380.574 83.9359 387.998C47.4461 395.422 32.5652 388.661 22.4236 381.899C12.282 375.138 -16.121 363.638 -66.1328 387.998C-116.145 412.357 -124.264 449.51 -120.884 481.956C-117.503 514.403 -93.1769 585.394 -90.4592 593.48C-91.8181 604.285 -95.1985 632.688 -83.6981 655.655C-72.1977 678.623 -60.7306 698.243 -60.7306 698.243C-60.7306 698.243 -41.8063 704.341 -33.6864 698.243L211.7 529.25C211.7 529.25 235.363 512.348 251.57 490.706C269.135 480.564 244.016 583.377 262.941 577.975C281.865 572.572 422.682 531.376 429.443 515.833C436.204 500.289 415.258 494.887 415.258 494.887C415.258 494.887 372.869 492.235 346.653 500.985C320.437 509.734 305.202 418 292.198 387.998C285.027 371.453 268.373 346.769 253.691 340.339V340.306Z" fill="#FFE9E9"/>
<path d="M225.078 347.358C205.114 351.489 163.217 345.637 144.764 342.195C144.764 342.884 142.087 346.307 140.748 347.932C167.137 358.488 207.964 351.948 225.078 347.358Z" fill="#FFCECE"/>
<path d="M165.258 290.633C158.059 286.95 129.498 280.688 104.988 285.108" stroke="black" stroke-width="0.977612"/>
<path d="M165.29 296.454C157.455 294.453 128.217 294.66 105.291 304.389" stroke="black" stroke-width="0.977612"/>
<path d="M163.825 303.452C155.741 303.238 127.276 309.922 107.077 324.49" stroke="black" stroke-width="0.977612"/>
<path d="M225.659 290.633C232.858 286.95 261.419 280.688 285.929 285.108" stroke="black" stroke-width="0.977612"/>
<path d="M225.626 296.454C233.461 294.453 262.7 294.66 285.626 304.389" stroke="black" stroke-width="0.977612"/>
<path d="M227.093 303.452C235.176 303.238 263.641 309.922 283.84 324.49" stroke="black" stroke-width="0.977612"/>
<path fill-rule="evenodd" clip-rule="evenodd" d="M259.766 87.8005C259.766 87.8005 259.766 87.8012 258.662 87.2305C257.558 86.6599 257.557 86.661 257.557 86.661L257.556 86.6625L257.554 86.6668L257.547 86.6802C257.542 86.6914 257.534 86.7068 257.524 86.7265C257.504 86.766 257.476 86.8226 257.441 86.8964C257.369 87.0438 257.268 87.2594 257.141 87.5419C256.888 88.1069 256.535 88.9397 256.124 90.0301C255.303 92.2109 254.252 95.4228 253.315 99.5847C251.44 107.91 250.019 120.032 251.793 135.298C253.046 146.066 261.358 151.988 271.124 158.304C271.861 158.781 272.609 159.261 273.365 159.747C282.741 165.769 295.423 173.16 304.076 185.009V183.008C295.138 170.768 284.096 163.681 274.741 157.676C273.973 157.183 273.217 156.697 272.473 156.217C262.561 149.806 255.362 144.459 254.262 135.011C252.523 120.051 253.92 108.211 255.74 100.131C256.65 96.09 257.666 92.9883 258.45 90.9061C258.842 89.8651 259.176 89.0791 259.41 88.5582C259.526 88.2977 259.618 88.1036 259.679 87.977C259.71 87.9137 259.733 87.8673 259.747 87.8379L259.763 87.8067L259.766 87.8005Z" fill="#FF0A2D"/>
<path d="M222.118 241.022C218.379 238.641 217.381 233.758 219.909 230.117C224.329 223.75 232.436 214.821 243.613 213.824C254.73 212.833 265.761 220.532 272.363 226.322C276.082 229.582 275.967 235.128 271.98 238.054C262.408 245.077 243.415 254.581 222.118 241.022Z" fill="#FFCECE"/>
<path d="M180.093 238.947C183.675 236.337 184.365 231.401 181.614 227.925C176.802 221.848 168.151 213.446 156.934 213.153C145.776 212.862 135.251 221.239 129.025 227.431C125.518 230.919 125.981 236.446 130.144 239.116C140.138 245.524 159.69 253.817 180.093 238.947Z" fill="#FFCECE"/>
<path d="M81.1516 187.752C81.1516 187.752 93.4805 165.082 79.0636 138.071C79.0636 138.071 96.2977 154.974 94.4085 170.882C93.5137 178.372 81.1516 187.752 81.1516 187.752Z" fill="#FFCECE"/>
<path fill-rule="evenodd" clip-rule="evenodd" d="M54.3212 109.286C54.3212 109.286 54.3206 109.285 53.4774 110.198C52.6341 111.111 52.6343 111.112 52.6343 111.112L52.6352 111.112L52.6392 111.116L52.6559 111.132L52.7239 111.195C52.7844 111.251 52.8749 111.336 52.9936 111.447C53.231 111.67 53.5814 112.001 54.0307 112.431C54.9294 113.29 56.2238 114.545 57.8024 116.122C60.9604 119.277 65.2522 123.716 69.7878 128.856C78.8984 139.179 88.8475 152.17 92.7042 163.204C94.1377 167.327 93.7587 170.023 92.4004 172.505C91.6924 173.798 90.6953 175.072 89.4436 176.482C88.6988 177.321 87.9017 178.168 87.0408 179.083C86.4326 179.729 85.7926 180.409 85.1167 181.143C78.6288 188.197 70.9878 198.207 66.7445 221.151V224.019C70.8862 201.624 80.7074 189.609 86.9462 182.826C87.5745 182.143 88.1998 181.478 88.8064 180.834C89.6955 179.889 90.5442 178.987 91.3026 178.132C92.5977 176.673 93.7393 175.236 94.5808 173.698C96.3212 170.519 96.6838 167.08 95.0518 162.387L95.0512 162.385C91.0197 150.85 80.769 137.542 71.6516 127.211C67.073 122.022 62.7436 117.544 59.559 114.363C57.9664 112.773 56.6591 111.505 55.7489 110.635C55.2938 110.199 54.9379 109.863 54.6952 109.635C54.5739 109.521 54.4808 109.434 54.4178 109.376L54.346 109.309L54.3225 109.287L54.3212 109.286Z" fill="#FF0A2D"/>
<path d="M206.713 278.907C206.713 278.907 203.802 288.254 197.519 289.071C197.519 289.071 190.879 290.297 185.363 278.907" stroke="#FF0A2D" stroke-width="2.93284" stroke-miterlimit="10"/>
<path d="M215.396 307.663C215.396 307.663 212.843 314.252 207.377 314.763C207.377 314.763 201.554 315.631 196.804 307.663" stroke="#FF0A2D" stroke-width="2.93284" stroke-miterlimit="10"/>
<path d="M176.834 307.664C181.941 315.632 188.173 314.763 188.173 314.763C194.047 314.202 196.754 307.664 196.754 307.664V289.94" stroke="#FF0A2D" stroke-width="2.93284" stroke-miterlimit="10"/>
<g filter="url(#filter0_i_2358_6365)">
<path fill-rule="evenodd" clip-rule="evenodd" d="M196.268 360.386C175.231 359.36 149.597 354.226 137.754 351.754L144.946 342.265C156.5 344.676 175.627 347.575 196.268 348.582C216.998 349.593 240.573 347.383 256.503 341.752C256.503 341.752 260.309 344.06 261.632 345.086C262.956 346.112 266.762 349.959 266.762 349.959C249.545 356.046 217.214 361.408 196.268 360.386Z" fill="#FF0A27"/>
</g>
<path d="M142.114 346.368C148.522 348.37 152.401 346.037 160.424 347.516M262.146 347.516C257.99 349.679 251.469 347.931 245.87 349.237C239.999 350.606 234.99 354.99 228.069 355.526M160.424 347.516C168.465 348.998 176.584 354.755 185.346 355.526M160.424 347.516L185.346 355.526M185.346 355.526C192.458 356.153 204.236 352.647 211.285 352.695M211.285 352.695C217.204 352.735 222.507 355.958 228.069 355.526M211.285 352.695L228.069 355.526" stroke="#FFE9E9" stroke-width="1.02591" stroke-dasharray="6.8 6.8"/>
<circle cx="15.3886" cy="15.3886" r="15.3886" transform="matrix(-1 0 0 1 213.928 359.192)" fill="#DFB850"/>
<circle cx="10.2591" cy="10.2591" r="10.2591" transform="matrix(-1 0 0 1 208.798 364.322)" fill="#BD962F"/>
<circle cx="4.87306" cy="4.87306" r="4.87306" transform="matrix(-1 0 0 1 203.156 364.322)" fill="#866200"/>
<ellipse cx="8.20726" cy="14.3627" rx="8.20726" ry="14.3627" transform="matrix(-1 0 0 1 253.938 217.492)" fill="#080808"/>
<ellipse cx="8.20726" cy="14.3627" rx="8.20726" ry="14.3627" transform="matrix(-1 0 0 1 164.171 217.492)" fill="#080808"/>
</g>
<defs>
<filter id="filter0_i_2358_6365" x="137.754" y="341.752" width="129.008" height="18.7601" filterUnits="userSpaceOnUse" color-interpolation-filters="sRGB">
<feFlood flood-opacity="0" result="BackgroundImageFix"/>
<feBlend mode="normal" in="SourceGraphic" in2="BackgroundImageFix" result="shape"/>
<feColorMatrix in="SourceAlpha" type="matrix" values="0 0 0 0 0 0 0 0 0 0 0 0 0 0 0 0 0 0 127 0" result="hardAlpha"/>
<feOffset dy="-2.91574"/>
<feComposite in2="hardAlpha" operator="arithmetic" k2="-1" k3="1"/>
<feColorMatrix type="matrix" values="0 0 0 0 0 0 0 0 0 0 0 0 0 0 0 0 0 0 0.25 0"/>
<feBlend mode="normal" in2="shape" result="effect1_innerShadow_2358_6365"/>
</filter>
<clipPath id="clip0_2358_6365">
<rect width="457.433" height="549.744" fill="white" transform="matrix(-1 0 0 1 456.433 0)"/>
</clipPath>
</defs>
</svg>
