<svg width="328" height="498" viewBox="0 0 328 498" fill="none" xmlns="http://www.w3.org/2000/svg">
<path d="M324.146 484.969L322.256 482.449C321.991 482.084 295.1 446.605 254.216 416.929C241.682 407.147 236.841 389.573 231.237 369.281C226.197 350.944 220.494 330.221 207.662 312.547C263.699 301.671 293.674 254.189 294.735 230.15C294.867 229.619 309.722 151.167 234.454 103.254C239.129 70.2949 213.365 23.4758 201.959 4.7084C200.798 2.78524 198.742 1.62471 196.488 1.62471C194.233 1.62471 192.177 2.78524 191.017 4.7084C187.402 10.7432 182.362 18.6016 176.029 28.118C173.542 23.0116 167.906 15.949 164.324 11.6716C163.794 11.0416 162.998 10.6437 162.136 10.6437C161.009 10.6437 159.981 11.3068 159.517 12.3679L132.029 75.136C100.329 78.1534 76.2568 91.8145 61.6341 102.79C30.2667 126.332 28.9735 168.973 29.0398 177.495C20.5182 178.821 3.97235 182.137 2.61288 187.508C1.55182 191.72 -2.75873 251.968 19.5566 280.417C31.6593 295.836 55.3009 307.076 88.0279 312.978C84.6126 323.821 67.8678 378.565 68.5973 405.158C69.3931 434.237 80.1031 494.22 80.2358 494.817L80.501 496.243L324.146 484.969Z" fill="#FFE9E9"/>
<path d="M192.476 5.60367C194.3 2.55314 198.71 2.55314 200.567 5.60367C211.244 23.1443 238.068 71.3891 232.697 104.149C232.962 104.315 233.227 104.481 233.526 104.647C308.794 152.46 293.111 230.083 293.111 230.083C291.983 255.283 259.687 302.003 204.778 311.387C232.995 348.093 227.856 398.46 253.255 418.288C294.404 448.163 320.963 483.477 320.963 483.477L81.8942 494.585C81.8942 494.585 71.1179 434.469 70.2889 405.158C69.4931 375.879 90.2169 311.718 90.2169 311.718C60.441 306.579 34.3125 296.532 20.8835 279.422C-0.337616 252.332 2.94504 193.178 4.23819 187.94C5.53137 182.701 30.7314 178.954 30.7314 178.954C30.7314 178.954 28.112 130.012 62.6294 104.149C79.9711 91.1513 104.044 79.2807 133.223 76.7276C133.223 76.7276 151.625 63.6633 167.243 43.7022C179.81 27.6869 192.476 5.60367 192.476 5.60367Z" fill="#FFE9E9"/>
<path d="M90.2163 176.401L50.3604 180.91L90.2163 189.863V176.401Z" fill="#FF0A27"/>
<path d="M26.2553 225.905C26.2553 225.905 28.8417 270.337 18.5295 276.173C8.11791 260.357 4.50368 236.317 3.5421 217.218C3.5421 217.218 10.1737 225.574 26.2553 225.905Z" fill="#FF1335"/>
<path d="M3.34234 199.677C3.50813 193.51 3.9392 189.166 4.23762 187.939L9.47656 193.742L3.30917 199.677H3.34234Z" fill="#FF0A27"/>
<path d="M198.245 13.1968C198.245 13.1968 205.308 50.3338 184.584 89.825C179.412 98.6118 159.848 95.3955 159.848 95.3955C159.848 95.3955 152.288 91.4165 158.257 81.8339C164.225 72.2512 194.532 81.9333 190.752 22.4147L198.245 13.1968Z" fill="#FF0A27"/>
<path d="M269.502 482.018C244.633 440.007 191.813 437.752 151.957 458.31C139.556 464.875 127.751 477.442 129.277 492.396C128.348 477.541 140.285 465.804 152.719 459.769C183.789 445.312 225.302 443.455 251.199 468.854C256.106 473.562 260.549 479.233 263.5 484.936L269.469 482.018H269.502Z" fill="#FF1335"/>
<path d="M129.277 483.477C129.277 483.477 133.786 440.405 137.5 426.644C141.214 412.884 148.84 394.846 148.84 394.846C148.84 394.846 148.608 412.121 144.065 432.679C140.219 450.021 132.526 456.055 129.277 483.477Z" fill="#FF0A27"/>
<path d="M89.4512 312.52C89.4512 312.52 104.26 319.743 119.712 318.781C119.712 318.781 84.912 344.18 74.9314 368.717C64.9509 393.254 89.4512 312.52 89.4512 312.52Z" fill="#FF0A27"/>
<path fill-rule="evenodd" clip-rule="evenodd" d="M226.401 124.593C231.855 118.894 234.824 111.828 236.059 104.01L234.677 103.431C233.524 110.733 228.896 117.19 224.005 122.301L226.401 124.593Z" fill="#FFDADA"/>
<path fill-rule="evenodd" clip-rule="evenodd" d="M153.123 59.9666C146.488 67.5757 137.222 72.2317 129.809 73.7423L133.222 76.7605C141.592 75.0547 148.704 70.0796 155.623 62.1459C162.522 54.234 169.332 43.2594 177.08 29.356L174.183 27.7419C166.446 41.6249 159.778 52.3357 153.123 59.9666Z" fill="#FFDADA"/>
<path d="M24.7554 239.477C32.2336 235.651 61.903 229.147 87.3638 233.738" stroke="black" stroke-width="1.04347"/>
<path d="M24.7207 245.524C32.8596 243.446 63.2329 243.661 87.0489 253.767" stroke="black" stroke-width="1.04347"/>
<path d="M26.2437 252.794C34.6409 252.571 64.2107 259.515 85.1937 274.649" stroke="black" stroke-width="1.04347"/>
<g filter="url(#filter0_i_2358_6401)">
<path fill-rule="evenodd" clip-rule="evenodd" d="M151.541 330.411C174.126 329.31 199.344 324.043 212.059 321.39L206.642 310.955C194.236 313.544 173.701 316.657 151.541 317.738C129.284 318.823 106.031 317.523 88.9287 311.477L86.32 323.87C104.805 330.405 129.052 331.508 151.541 330.411Z" fill="#FF0A27"/>
</g>
<path d="M209.972 316.694C203.399 318.514 199.419 316.393 191.189 317.738M86.8418 317.738C91.1041 319.705 97.7943 318.115 103.537 319.303C109.56 320.548 114.698 324.534 121.798 325.022M191.189 317.738C182.941 319.085 174.613 324.321 165.624 325.022M191.189 317.738L165.624 325.022M165.624 325.022C158.329 325.592 146.246 322.404 139.015 322.448M139.015 322.448C132.944 322.484 127.503 325.415 121.798 325.022M139.015 322.448L121.798 325.022" stroke="#FFE9E9" stroke-width="1.04347" stroke-dasharray="7.3 7.3"/>
<ellipse cx="66.1228" cy="113.008" rx="1.91538" ry="3.83077" transform="rotate(38.5639 66.1228 113.008)" fill="#D9D9D9"/>
<ellipse cx="55.6433" cy="125.816" rx="1.91538" ry="3.83077" transform="rotate(38.5639 55.6433 125.816)" fill="#D9D9D9"/>
<ellipse cx="86.0838" cy="322.762" rx="6.0175" ry="12.45" transform="rotate(11.9703 86.0838 322.762)" fill="#DFB850"/>
<ellipse cx="86.0838" cy="322.762" rx="4.01167" ry="8.3" transform="rotate(11.9703 86.0838 322.762)" fill="#BD962F"/>
<ellipse cx="87.0855" cy="318.52" rx="1.90554" ry="3.9425" transform="rotate(11.9703 87.0855 318.52)" fill="#866200"/>
<defs>
<filter id="filter0_i_2358_6401" x="86.3198" y="310.955" width="125.739" height="19.826" filterUnits="userSpaceOnUse" color-interpolation-filters="sRGB">
<feFlood flood-opacity="0" result="BackgroundImageFix"/>
<feBlend mode="normal" in="SourceGraphic" in2="BackgroundImageFix" result="shape"/>
<feColorMatrix in="SourceAlpha" type="matrix" values="0 0 0 0 0 0 0 0 0 0 0 0 0 0 0 0 0 0 127 0" result="hardAlpha"/>
<feOffset dy="-3.13042"/>
<feComposite in2="hardAlpha" operator="arithmetic" k2="-1" k3="1"/>
<feColorMatrix type="matrix" values="0 0 0 0 0 0 0 0 0 0 0 0 0 0 0 0 0 0 0.25 0"/>
<feBlend mode="normal" in2="shape" result="effect1_innerShadow_2358_6401"/>
</filter>
</defs>
</svg>
