<svg width="48" height="48" viewBox="0 0 48 48" fill="none" xmlns="http://www.w3.org/2000/svg">
<g clip-path="url(#clip0_2401_6)">
<rect width="48" height="48" rx="24" fill="#EB0000"/>
<path d="M17.171 36.6907C17.171 36.6907 7.26152 32.5287 8.6945 23.6595C9.35617 20.4824 11.3373 18.2944 11.3373 18.2944C11.3373 18.2944 10.2371 7.78215 17.171 4.5C17.171 4.5 17.9423 8.2221 20.5851 12.3842C20.5851 12.3842 25.1933 11.2901 31.0935 13.5872C31.0935 13.5872 39.7423 8.11309 41.2849 8.44013C42.0562 10.3012 42.8275 18.2944 39.1942 22.7835C39.1942 22.7835 40.5136 28.1486 38.4229 30.9947C36.3321 33.8407 34.3002 35.5928 30.0091 36.8971C30.0091 36.8971 32.9141 41.4212 37.2248 42.2933C41.5355 43.1655 43.2934 42.3712 44.4915 41.577C45.6895 40.7827 49.0449 39.4317 54.953 42.2933C60.8611 45.155 61.8203 49.5195 61.4209 53.3312C61.0216 57.1428 58.1478 65.4825 57.8268 66.4325C57.9873 67.7017 58.3866 71.0384 57.028 73.7365C55.6695 76.4347 54.3148 78.7395 54.3148 78.7395C54.3148 78.7395 52.0792 79.4559 51.12 78.7395L22.1316 58.8871C22.1316 58.8871 19.3361 56.9014 17.4216 54.359C15.3465 53.1676 18.3139 65.2456 16.0783 64.6109C13.8427 63.9763 -2.79252 59.1368 -3.59122 57.3108C-4.38993 55.4848 -1.9155 54.8502 -1.9155 54.8502C-1.9155 54.8502 3.09208 54.5387 6.18903 55.5666C9.28598 56.5944 11.0858 45.8179 12.622 42.2933C13.4691 40.3497 15.4365 37.4499 17.171 36.6946V36.6907Z" fill="white"/>
<path d="M20.5508 37.7432C22.9092 38.2312 27.8587 37.5399 30.0386 37.1333C30.0386 37.2146 30.3549 37.619 30.513 37.811C27.3956 39.058 22.5726 38.2854 20.5508 37.7432Z" fill="#FFCECE"/>
<path d="M27.6179 30.8554C28.4684 30.4227 31.8424 29.6871 34.7378 30.2064" stroke="black" stroke-width="0.115489"/>
<path d="M27.614 31.5392C28.5396 31.3042 31.9936 31.3285 34.702 32.4713" stroke="black" stroke-width="0.115489"/>
<path d="M27.787 32.3613C28.7419 32.3362 32.1046 33.1214 34.4908 34.8328" stroke="black" stroke-width="0.115489"/>
<path d="M20.4822 30.8554C19.6317 30.4227 16.2577 29.6871 13.3623 30.2064" stroke="black" stroke-width="0.115489"/>
<path d="M20.4861 31.5392C19.5605 31.3042 16.1065 31.3285 13.3981 32.4713" stroke="black" stroke-width="0.115489"/>
<path d="M20.3131 32.3613C19.3582 32.3362 15.9955 33.1214 13.6093 34.8328" stroke="black" stroke-width="0.115489"/>
<path fill-rule="evenodd" clip-rule="evenodd" d="M16.4533 7.0276C16.4533 7.0276 16.4533 7.02768 16.5837 6.96064C16.7142 6.89361 16.7142 6.89374 16.7142 6.89374L16.7143 6.89392L16.7146 6.89442L16.7154 6.896C16.7161 6.8973 16.717 6.89912 16.7181 6.90143C16.7205 6.90607 16.7238 6.91273 16.728 6.92139C16.7364 6.9387 16.7484 6.96403 16.7633 6.99722C16.7932 7.0636 16.835 7.16143 16.8835 7.28953C16.9805 7.54572 17.1046 7.92304 17.2154 8.41195C17.4369 9.38994 17.6048 10.814 17.3952 12.6074C17.2471 13.8724 16.2652 14.5681 15.1116 15.31C15.0244 15.366 14.9361 15.4225 14.8468 15.4795C13.7391 16.187 12.241 17.0552 11.2188 18.4472V18.2121C12.2747 16.7743 13.5791 15.9417 14.6842 15.2363C14.7749 15.1783 14.8643 15.1213 14.9521 15.0648C16.1231 14.3117 16.9736 13.6836 17.1035 12.5737C17.3089 10.8162 17.1439 9.42537 16.9289 8.47612C16.8214 8.00141 16.7013 7.63703 16.6087 7.39244C16.5624 7.27014 16.5229 7.1778 16.4954 7.11661C16.4816 7.08601 16.4708 7.06321 16.4635 7.04833C16.4599 7.0409 16.4572 7.03545 16.4555 7.032L16.4536 7.02833L16.4533 7.0276Z" fill="#FF0A2D"/>
<path d="M20.8979 25.0291C21.3414 24.7486 21.4599 24.1729 21.1603 23.7441C20.6377 22.9962 19.6806 21.9492 18.3616 21.8322C17.0497 21.7159 15.7482 22.6182 14.9679 23.298C14.5269 23.6822 14.5401 24.3357 15.0124 24.68C16.1434 25.5046 18.3847 26.6184 20.8979 25.0291Z" fill="#FFCECE"/>
<path d="M25.8688 24.785C25.4436 24.4773 25.3615 23.895 25.6877 23.4857C26.2564 22.772 27.2777 21.7869 28.6015 21.7525C29.9179 21.7184 31.1597 22.6998 31.8956 23.427C32.3116 23.8381 32.2574 24.4896 31.7644 24.8037C30.5837 25.556 28.2766 26.5278 25.8688 24.785Z" fill="#FFCECE"/>
<path d="M37.5539 18.7693C37.5539 18.7693 36.0974 16.1062 37.8006 12.9331C37.8006 12.9331 35.7646 14.9187 35.9878 16.7876C36.0935 17.6675 37.5539 18.7693 37.5539 18.7693Z" fill="#FFCECE"/>
<path fill-rule="evenodd" clip-rule="evenodd" d="M40.7231 9.55157C40.7231 9.55157 40.7232 9.55151 40.8228 9.65877C40.9224 9.76603 40.9224 9.76604 40.9224 9.76604L40.9223 9.76614L40.9218 9.76657L40.9198 9.76839L40.9118 9.77582C40.9046 9.78244 40.894 9.79236 40.8799 9.80546C40.8519 9.83165 40.8105 9.87053 40.7574 9.92102C40.6513 10.022 40.4983 10.1694 40.3119 10.3547C39.9388 10.7252 39.4318 11.2467 38.896 11.8505C37.8197 13.0633 36.6444 14.5894 36.1888 15.8856C36.0194 16.3699 36.0642 16.6867 36.2247 16.9782C36.3083 17.1302 36.4261 17.2798 36.574 17.4455C36.6619 17.5441 36.7561 17.6435 36.8578 17.751C36.9297 17.8269 37.0053 17.9067 37.0851 17.9931C37.8515 18.8217 38.7542 19.9976 39.2555 22.6929V23.0299C38.7662 20.399 37.606 18.9876 36.869 18.1907C36.7948 18.1105 36.7209 18.0324 36.6492 17.9567C36.5442 17.8457 36.4439 17.7397 36.3543 17.6393C36.2014 17.4679 36.0665 17.299 35.9671 17.1184C35.7615 16.7449 35.7186 16.341 35.9114 15.7897L35.9115 15.7894C36.3878 14.4343 37.5987 12.871 38.6758 11.6573C39.2167 11.0478 39.7281 10.5217 40.1043 10.1481C40.2925 9.96117 40.4469 9.81229 40.5544 9.71001C40.6082 9.65887 40.6502 9.61937 40.6789 9.5926C40.6933 9.57921 40.7042 9.56901 40.7117 9.56211L40.7202 9.55428L40.7229 9.55172L40.7231 9.55157Z" fill="#FF0A2D"/>
<path d="M22.7207 29.4778C22.7207 29.4778 23.0646 30.5759 23.8068 30.6719C23.8068 30.6719 24.5912 30.8159 25.2429 29.4778" stroke="#FF0A2D" stroke-width="0.346467" stroke-miterlimit="10"/>
<path d="M21.6948 32.856C21.6948 32.856 21.9965 33.6301 22.6422 33.6901C22.6422 33.6901 23.33 33.7921 23.8912 32.856" stroke="#FF0A2D" stroke-width="0.346467" stroke-miterlimit="10"/>
<path d="M26.2502 32.856C25.6468 33.7921 24.9107 33.6901 24.9107 33.6901C24.2168 33.6241 23.897 32.856 23.897 32.856V30.7739" stroke="#FF0A2D" stroke-width="0.346467" stroke-miterlimit="10"/>
<g filter="url(#filter0_i_2401_6)">
<path fill-rule="evenodd" clip-rule="evenodd" d="M23.9547 39.0496C26.4399 38.9291 29.4682 38.3259 30.8672 38.0356L30.0176 36.9208C28.6526 37.2041 26.3931 37.5447 23.9547 37.6629C21.5058 37.7817 18.7208 37.5221 16.8389 36.8605C16.8389 36.8605 16.3893 37.1317 16.233 37.2522C16.0766 37.3727 15.627 37.8247 15.627 37.8247C17.6609 38.5397 21.4802 39.1696 23.9547 39.0496Z" fill="#FF0A27"/>
</g>
<path d="M30.3521 37.4029C29.5951 37.638 29.1368 37.364 28.189 37.5377M16.1723 37.5377C16.6631 37.7918 17.4336 37.5865 18.095 37.7399C18.7886 37.9008 19.3802 38.4157 20.1979 38.4788M28.189 37.5377C27.2391 37.7118 26.2801 38.3881 25.2449 38.4788M28.189 37.5377L25.2449 38.4788M25.2449 38.4788C24.4048 38.5523 23.0134 38.1405 22.1807 38.1461M22.1807 38.1461C21.4814 38.1509 20.8549 38.5294 20.1979 38.4788M22.1807 38.1461L20.1979 38.4788" stroke="white" stroke-width="0.121194" stroke-dasharray="0.8 0.8"/>
<circle cx="23.6861" cy="40.9591" r="1.81792" fill="#DFB850"/>
<circle cx="23.6866" cy="40.9591" r="1.21194" fill="#BD962F"/>
<circle cx="23.7163" cy="40.3229" r="0.575674" fill="#866200"/>
<ellipse cx="18.1116" cy="24.0984" rx="0.969556" ry="1.69672" fill="#080808"/>
<ellipse cx="28.7156" cy="24.0984" rx="0.969556" ry="1.69672" fill="#080808"/>
</g>
<rect x="0.375" y="0.375" width="47.25" height="47.25" rx="23.625" stroke="white" stroke-width="0.75"/>
<defs>
<filter id="filter0_i_2401_6" x="15.627" y="36.8605" width="15.2402" height="2.20386" filterUnits="userSpaceOnUse" color-interpolation-filters="sRGB">
<feFlood flood-opacity="0" result="BackgroundImageFix"/>
<feBlend mode="normal" in="SourceGraphic" in2="BackgroundImageFix" result="shape"/>
<feColorMatrix in="SourceAlpha" type="matrix" values="0 0 0 0 0 0 0 0 0 0 0 0 0 0 0 0 0 0 127 0" result="hardAlpha"/>
<feOffset dy="-0.344447"/>
<feComposite in2="hardAlpha" operator="arithmetic" k2="-1" k3="1"/>
<feColorMatrix type="matrix" values="0 0 0 0 0 0 0 0 0 0 0 0 0 0 0 0 0 0 0.25 0"/>
<feBlend mode="normal" in2="shape" result="effect1_innerShadow_2401_6"/>
</filter>
<clipPath id="clip0_2401_6">
<rect width="48" height="48" rx="24" fill="white"/>
</clipPath>
</defs>
</svg>
