<svg width="64" height="64" viewBox="0 0 64 64" fill="none" xmlns="http://www.w3.org/2000/svg">
<g clip-path="url(#clip0_2166_709)">
<rect width="64" height="64" rx="32" fill="#EB0000"/>
<path d="M22.8947 48.921C22.8947 48.921 9.68203 43.3715 11.5927 31.546C12.4749 27.3099 15.1164 24.3925 15.1164 24.3925C15.1164 24.3925 13.6495 10.3762 22.8947 6C22.8947 6 23.9231 10.9628 27.4468 16.5122C27.4468 16.5122 33.5911 15.0535 41.4581 18.1163C41.4581 18.1163 52.9897 10.8174 55.0465 11.2535C56.0749 13.7349 57.1033 24.3925 52.2589 30.3779C52.2589 30.3779 54.0181 37.5314 51.2305 41.3262C48.4428 45.121 45.7336 47.457 40.0121 49.1961C40.0121 49.1961 43.8855 55.2283 49.6331 56.3911C55.3806 57.5539 57.7246 56.4949 59.322 55.4359C60.9194 54.3769 65.3932 52.5756 73.2707 56.3911C81.1481 60.2067 82.427 66.026 81.8946 71.1082C81.3621 76.1904 77.5304 87.31 77.1024 88.5766C77.3164 90.269 77.8489 94.7178 76.0374 98.3154C74.226 101.913 72.4197 104.986 72.4197 104.986C72.4197 104.986 69.4389 105.941 68.16 104.986L29.5088 78.5161C29.5088 78.5161 25.7815 75.8685 23.2288 72.4787C20.462 70.8902 24.4185 86.9941 21.4377 86.1479C18.4569 85.3018 -3.72335 78.8491 -4.7883 76.4144C-5.85324 73.9797 -2.554 73.1335 -2.554 73.1335C-2.554 73.1335 4.12278 72.7183 8.25204 74.0887C12.3813 75.4592 14.7811 61.0906 16.8294 56.3911C17.9589 53.7996 20.5821 49.9332 22.8947 48.9262V48.921Z" fill="white"/>
<path d="M27.4015 50.3243C30.546 50.9749 37.1453 50.0532 40.0519 49.5111C40.0519 49.6195 40.4736 50.1587 40.6844 50.4147C36.5279 52.0773 30.0972 51.0472 27.4015 50.3243Z" fill="#FFCECE"/>
<path d="M36.8241 41.1405C37.958 40.5636 42.4567 39.5828 46.3172 40.2751" stroke="black" stroke-width="0.153985"/>
<path d="M36.8188 42.0523C38.0529 41.7389 42.6583 41.7713 46.2695 43.2951" stroke="black" stroke-width="0.153985"/>
<path d="M37.0497 43.1483C38.323 43.1148 42.8066 44.1617 45.9881 46.4437" stroke="black" stroke-width="0.153985"/>
<path d="M27.31 41.1405C26.1761 40.5636 21.6774 39.5828 17.8168 40.2751" stroke="black" stroke-width="0.153985"/>
<path d="M27.3152 42.0523C26.0811 41.7389 21.4757 41.7713 17.8646 43.2951" stroke="black" stroke-width="0.153985"/>
<path d="M27.0843 43.1483C25.8111 43.1148 21.3275 44.1617 18.1459 46.4437" stroke="black" stroke-width="0.153985"/>
<path fill-rule="evenodd" clip-rule="evenodd" d="M21.9377 9.37013C21.9377 9.37013 21.9378 9.37024 22.1117 9.28086C22.2856 9.19147 22.2857 9.19165 22.2857 9.19165L22.2858 9.19189L22.2862 9.19256L22.2872 9.19466C22.2881 9.1964 22.2894 9.19882 22.2909 9.20191C22.294 9.20809 22.2984 9.21697 22.304 9.22851C22.3152 9.2516 22.3312 9.28537 22.3512 9.32963C22.391 9.41813 22.4467 9.54857 22.5114 9.71937C22.6407 10.061 22.8062 10.564 22.9539 11.2159C23.2493 12.5199 23.4731 14.4187 23.1936 16.8098C22.9962 18.4965 21.687 19.4241 20.1488 20.4134C20.0326 20.4881 19.9149 20.5633 19.7958 20.6393C18.3189 21.5826 16.3214 22.7402 14.9584 24.5963V24.2829C16.3663 22.3657 18.1055 21.2555 19.579 20.315C19.6999 20.2378 19.8191 20.1617 19.9362 20.0864C21.4976 19.0822 22.6314 18.2448 22.8047 16.7649C23.0786 14.4216 22.8586 12.5672 22.5719 11.3015C22.4286 10.6685 22.2685 10.1827 22.145 9.85658C22.0832 9.69352 22.0306 9.5704 21.9939 9.48881C21.9755 9.44802 21.9611 9.41761 21.9514 9.39778C21.9466 9.38786 21.943 9.3806 21.9407 9.376L21.9382 9.37111L21.9377 9.37013Z" fill="#FF0A2D"/>
<path d="M27.864 33.3721C28.4553 32.9982 28.6133 32.2306 28.2137 31.6588C27.517 30.6616 26.2408 29.2656 24.4821 29.1097C22.733 28.9546 20.9976 30.1576 19.9572 31.0641C19.3693 31.5763 19.3869 32.4476 20.0166 32.9068C21.5246 34.0062 24.513 35.4912 27.864 33.3721Z" fill="#FFCECE"/>
<path d="M34.4916 33.0473C33.9246 32.6369 33.8153 31.8606 34.2501 31.3149C35.0084 30.3632 36.3702 29.0497 38.1352 29.0039C39.8904 28.9584 41.5462 30.267 42.5274 31.2366C43.082 31.7847 43.0097 32.6533 42.3524 33.0722C40.7782 34.0753 37.7021 35.3709 34.4916 33.0473Z" fill="#FFCECE"/>
<path d="M50.0717 25.0258C50.0717 25.0258 48.1297 21.475 50.4006 17.2441C50.4006 17.2441 47.686 19.8917 47.9835 22.3834C48.1245 23.5567 50.0717 25.0258 50.0717 25.0258Z" fill="#FFCECE"/>
<path fill-rule="evenodd" clip-rule="evenodd" d="M54.2977 12.7354C54.2977 12.7354 54.2978 12.7353 54.4306 12.8783C54.5634 13.0213 54.5634 13.0214 54.5634 13.0214L54.5633 13.0215L54.5627 13.0221L54.56 13.0245L54.5493 13.0344C54.5398 13.0432 54.5255 13.0565 54.5068 13.0739C54.4694 13.1088 54.4142 13.1607 54.3435 13.228C54.2019 13.3627 53.998 13.5592 53.7494 13.8062C53.252 14.3003 52.5759 14.9956 51.8615 15.8007C50.4265 17.4177 48.8594 19.4525 48.2519 21.1808C48.0261 21.8265 48.0858 22.2489 48.2998 22.6376C48.4113 22.8402 48.5684 23.0398 48.7655 23.2606C48.8828 23.3921 49.0084 23.5247 49.144 23.6679C49.2398 23.7691 49.3406 23.8756 49.4471 23.9907C50.469 25.0956 51.6725 26.6634 52.3409 30.2572V30.7065C51.6885 27.1987 50.1416 25.3167 49.1589 24.2543C49.0599 24.1473 48.9614 24.0432 48.8659 23.9422C48.7258 23.7942 48.5922 23.6529 48.4727 23.5191C48.2687 23.2906 48.0889 23.0654 47.9564 22.8246C47.6822 22.3266 47.6251 21.7879 47.8822 21.0529L47.8823 21.0526C48.5173 19.2457 50.1319 17.1613 51.568 15.5431C52.2892 14.7304 52.9711 14.029 53.4727 13.5307C53.7236 13.2815 53.9295 13.083 54.0728 12.9467C54.1445 12.8785 54.2006 12.8258 54.2388 12.7901C54.2579 12.7723 54.2726 12.7587 54.2825 12.7495L54.2938 12.739L54.2975 12.7356L54.2977 12.7354Z" fill="#FF0A2D"/>
<path d="M30.2942 39.3038C30.2942 39.3038 30.7528 40.7679 31.7423 40.8959C31.7423 40.8959 32.7882 41.0879 33.6571 39.3038" stroke="#FF0A2D" stroke-width="0.461956" stroke-miterlimit="10"/>
<path d="M28.9265 43.808C28.9265 43.808 29.3288 44.8401 30.1896 44.9201C30.1896 44.9201 31.1068 45.0561 31.855 43.808" stroke="#FF0A2D" stroke-width="0.461956" stroke-miterlimit="10"/>
<path d="M35.0007 43.8081C34.1962 45.0561 33.2146 44.9201 33.2146 44.9201C32.2894 44.8321 31.863 43.8081 31.863 43.8081V41.0319" stroke="#FF0A2D" stroke-width="0.461956" stroke-miterlimit="10"/>
<g filter="url(#filter0_i_2166_709)">
<path fill-rule="evenodd" clip-rule="evenodd" d="M31.9395 52.0662C35.253 51.9055 39.2907 51.1013 41.1561 50.7142L40.0233 49.2278C38.2033 49.6055 35.1906 50.0596 31.9395 50.2173C28.6742 50.3756 24.9609 50.0295 22.4518 49.1474C22.4518 49.1474 21.8523 49.509 21.6438 49.6697C21.4353 49.8304 20.8358 50.433 20.8358 50.433C23.5477 51.3864 28.6402 52.2262 31.9395 52.0662Z" fill="#FF0A27"/>
</g>
<path d="M40.4693 49.8705C39.4601 50.184 38.849 49.8186 37.5853 50.0502M21.563 50.0502C22.2175 50.3891 23.2447 50.1153 24.1266 50.3198C25.0514 50.5344 25.8403 51.2209 26.9305 51.305M37.5853 50.0502C36.3188 50.2824 35.04 51.1841 33.6598 51.305M37.5853 50.0502L33.6598 51.305M33.6598 51.305C32.5396 51.4031 30.6844 50.8539 29.5742 50.8615M29.5742 50.8615C28.6418 50.8678 27.8065 51.3726 26.9305 51.305M29.5742 50.8615L26.9305 51.305" stroke="white" stroke-width="0.161593" stroke-dasharray="1.07 1.07"/>
<circle cx="31.5817" cy="54.6122" r="2.42389" fill="#DFB850"/>
<circle cx="31.5817" cy="54.6121" r="1.61593" fill="#BD962F"/>
<circle cx="31.6221" cy="53.7638" r="0.767565" fill="#866200"/>
<ellipse cx="24.1485" cy="32.1312" rx="1.29274" ry="2.2623" fill="#080808"/>
<ellipse cx="38.2878" cy="32.1312" rx="1.29274" ry="2.2623" fill="#080808"/>
</g>
<defs>
<filter id="filter0_i_2166_709" x="20.8358" y="49.1474" width="20.3203" height="2.93848" filterUnits="userSpaceOnUse" color-interpolation-filters="sRGB">
<feFlood flood-opacity="0" result="BackgroundImageFix"/>
<feBlend mode="normal" in="SourceGraphic" in2="BackgroundImageFix" result="shape"/>
<feColorMatrix in="SourceAlpha" type="matrix" values="0 0 0 0 0 0 0 0 0 0 0 0 0 0 0 0 0 0 127 0" result="hardAlpha"/>
<feOffset dy="-0.459263"/>
<feComposite in2="hardAlpha" operator="arithmetic" k2="-1" k3="1"/>
<feColorMatrix type="matrix" values="0 0 0 0 0 0 0 0 0 0 0 0 0 0 0 0 0 0 0.25 0"/>
<feBlend mode="normal" in2="shape" result="effect1_innerShadow_2166_709"/>
</filter>
<clipPath id="clip0_2166_709">
<rect width="64" height="64" rx="32" fill="white"/>
</clipPath>
</defs>
</svg>
