<svg width="163" height="38" viewBox="0 0 163 38" fill="none" xmlns="http://www.w3.org/2000/svg">
<path d="M57.2403 16.444C56.7511 14.5077 55.5169 13.0905 53.0962 13.0905C49.5316 13.0905 48.0416 16.2786 48.0416 19.5125C48.0416 22.7465 49.5316 25.9371 53.0962 25.9371C55.68 25.9371 57.1098 23.978 57.3331 21.5226H60.1752C59.9419 25.5606 57.1249 28.3467 53.0962 28.3467C48.1118 28.3467 45.1317 24.3316 45.1317 19.5125C45.1317 14.6934 48.1118 10.6809 53.0962 10.6809C56.8439 10.7038 59.8015 12.8055 60.1502 16.444H57.2403ZM61.8986 21.8279C61.8986 18.0978 64.1111 15.4033 67.9767 15.4033C71.8423 15.4033 74.0523 18.0978 74.0523 21.8279C74.0523 25.558 71.8398 28.2754 67.9767 28.2754C64.1136 28.2754 61.8986 25.5835 61.8986 21.8279ZM71.3983 21.8279C71.3983 19.7263 70.3497 17.5304 67.9767 17.5304C65.6036 17.5304 64.5526 19.7263 64.5526 21.8279C64.5526 23.9296 65.6011 26.1534 67.9767 26.1534C70.3522 26.1534 71.3983 23.9551 71.3983 21.8279ZM76.335 11.0829H78.989V13.6273H76.335V11.0829ZM76.335 15.7341H78.989V27.9472H76.335V15.7341ZM81.8788 15.7341H84.3873V17.5304L84.435 17.5762C84.8161 16.9118 85.3633 16.361 86.0213 15.9795C86.6793 15.598 87.4248 15.3993 88.1827 15.4033C90.7916 15.4033 92.4472 16.8206 92.4472 19.5609V27.9574H89.7957V20.2708C89.748 18.3574 89.003 17.5304 87.4427 17.5304C85.6742 17.5304 84.5328 18.9477 84.5328 20.7415V27.9447H81.8788V15.7341ZM110.125 27.9447H108.261L107.819 25.9626C106.259 27.7564 104.837 28.3467 102.802 28.3467C97.8179 28.3467 94.8378 24.3316 94.8378 19.5125C94.8378 14.6934 97.8179 10.6809 102.802 10.6809C106.435 10.6809 109.485 12.6401 109.926 16.444H107.097C106.816 14.2227 104.907 13.0905 102.812 13.0905C99.2502 13.0905 97.7577 16.2786 97.7577 19.5125C97.7577 22.7465 99.2502 25.9371 102.812 25.9371C105.792 25.9855 107.423 24.1561 107.468 21.3089H103.046V19.0647H110.125V27.9447ZM114.991 22.5378C114.991 24.4512 116.015 26.1509 118.227 26.1509C119.765 26.1509 120.695 25.4664 121.162 24.1154H123.671C123.089 26.7844 120.854 28.2704 118.222 28.2704C114.459 28.2704 112.332 25.6013 112.332 21.8457C112.332 18.3752 114.567 15.3982 118.152 15.3982C121.947 15.3982 124.278 18.8713 123.834 22.5226L114.991 22.5378ZM121.185 20.7567C121.092 19.0571 119.95 17.5228 118.157 17.5228C116.318 17.5228 115.061 18.94 114.991 20.7567H121.185ZM133.993 19.8204C133.782 18.3319 132.711 17.5304 131.234 17.5304C129.862 17.5304 127.927 18.2632 127.927 21.9704C127.927 24.0059 128.813 26.1509 131.118 26.1509C132.656 26.1509 133.727 25.1128 133.983 23.3648H136.637C136.135 26.5274 134.216 28.2754 131.118 28.2754C127.356 28.2754 125.273 25.5606 125.273 21.9704C125.273 18.2861 127.253 15.4033 131.211 15.4033C134.006 15.4033 136.381 16.8206 136.637 19.8204H133.993ZM138.882 11.0829H141.539V20.6702L146.347 15.7341H149.609L144.998 20.2224L150.053 27.9447H146.799L143.122 22.0162L141.539 23.5759V27.9447H138.882V11.0829ZM150.76 21.8279C150.76 18.0978 152.972 15.4033 156.836 15.4033C160.699 15.4033 162.904 18.0978 162.904 21.8279C162.904 25.558 160.691 28.2754 156.825 28.2754C152.96 28.2754 150.76 25.5835 150.76 21.8279ZM160.26 21.8279C160.26 19.7263 159.211 17.5304 156.836 17.5304C154.46 17.5304 153.414 19.7263 153.414 21.8279C153.414 23.9296 154.462 26.1534 156.836 26.1534C159.209 26.1534 160.26 23.9551 160.26 21.8279Z" fill="#4C4C4C"/>
<path d="M37.0743 18.9181C37.0905 22.5833 36.0195 26.1711 33.9967 29.2277C31.9739 32.2843 29.0901 34.6724 25.7101 36.0901C22.3301 37.5078 18.6056 37.8914 15.0075 37.1923C11.4095 36.4933 8.09953 34.7431 5.49618 32.163C2.89284 29.5828 1.11304 26.2887 0.381828 22.6971C-0.349383 19.1054 0.000838711 15.3776 1.38821 11.985C2.77558 8.59245 5.13778 5.68743 8.17613 3.63733C11.2145 1.58723 14.7925 0.484109 18.4578 0.467468C23.3731 0.445668 28.0958 2.37727 31.5871 5.83738C35.0783 9.29749 37.0521 14.0027 37.0743 18.9181Z" fill="#8DC63F"/>
<path d="M35.6782 18.9221C35.6936 22.3113 34.7037 25.629 32.8335 28.4556C30.9634 31.2822 28.2971 33.4907 25.1718 34.802C22.0464 36.1133 18.6025 36.4683 15.2753 35.8222C11.9482 35.1762 8.88742 33.558 6.47996 31.1724C4.07249 28.7868 2.42651 25.7408 1.75014 22.4198C1.07378 19.0987 1.39741 15.6516 2.68013 12.5145C3.96284 9.37731 6.14701 6.69097 8.95645 4.79516C11.7659 2.89934 15.0744 1.87919 18.4636 1.8637C20.714 1.85342 22.9444 2.2865 25.0274 3.1382C27.1105 3.98991 29.0053 5.24356 30.6039 6.82758C32.2024 8.4116 33.4733 10.295 34.3439 12.3701C35.2146 14.4453 35.668 16.6717 35.6782 18.9221Z" fill="#F9E988"/>
<path d="M18.8542 2.97495C19.9436 2.78048 21.0589 2.78048 22.1483 2.97495C23.2482 3.14924 24.3113 3.5056 25.294 4.02939C26.2703 4.56637 27.1158 5.2947 27.9555 5.98204C28.7951 6.66937 29.6328 7.36451 30.4295 8.12995C31.2418 8.88255 31.951 9.7394 32.5384 10.6782C33.144 11.6106 33.64 12.6098 34.0165 13.656C34.7491 15.7455 34.9576 17.983 34.6238 20.172H34.5144C34.1928 18.0807 33.6549 16.0285 32.9094 14.0484C32.5521 13.0692 32.1313 12.1143 31.6499 11.1898C31.1439 10.2679 30.5872 9.37482 29.9823 8.51463C29.3653 7.64398 28.6093 6.88073 27.7446 6.25541C26.8757 5.63642 25.8759 5.23417 24.9074 4.8534C23.9389 4.47264 22.9704 4.09382 21.9647 3.80288C20.9591 3.51193 19.9301 3.29519 18.8581 3.0843L18.8542 2.97495Z" fill="white"/>
<path d="M27.2311 12.8689C25.9872 12.5077 24.6926 11.9981 23.3921 11.4826C23.3179 11.1545 23.027 10.7464 22.4412 10.2485C21.5879 9.50843 19.9867 9.52796 18.6023 9.85796C17.0753 9.49867 15.5659 9.37175 14.1112 9.71932C2.26837 12.9802 8.98549 20.9529 4.63499 28.9588C5.25398 30.271 11.9262 37.941 21.5801 35.877C21.5801 35.877 18.2801 27.9434 25.7295 24.1357C31.7729 21.0369 36.141 15.3 27.2311 12.8689Z" fill="#8BC53F"/>
<path d="M28.6936 18.0846C28.6947 18.2268 28.6536 18.3663 28.5755 18.4852C28.4973 18.604 28.3856 18.6971 28.2545 18.7524C28.1234 18.8077 27.9789 18.8229 27.8392 18.796C27.6994 18.7691 27.5709 18.7013 27.4697 18.6013C27.3685 18.5012 27.2994 18.3734 27.2709 18.234C27.2425 18.0945 27.2561 17.9498 27.31 17.8181C27.3639 17.6865 27.4557 17.5738 27.5738 17.4943C27.6918 17.4149 27.8308 17.3722 27.9731 17.3718C28.0672 17.3713 28.1605 17.3893 28.2476 17.4249C28.3347 17.4604 28.414 17.5128 28.4809 17.579C28.5478 17.6451 28.6011 17.7239 28.6375 17.8106C28.674 17.8974 28.6931 17.9904 28.6936 18.0846Z" fill="white"/>
<path d="M18.6023 9.85422C19.4654 9.9167 22.5876 10.936 23.3921 11.4827C22.7263 9.53008 20.4632 9.27623 18.6023 9.85422Z" fill="#009345"/>
<path d="M19.4243 14.7787C19.4243 15.4353 19.2296 16.0771 18.8649 16.623C18.5001 17.1688 17.9817 17.5943 17.3751 17.8456C16.7686 18.0968 16.1011 18.1625 15.4572 18.0345C14.8133 17.9064 14.2218 17.5902 13.7576 17.126C13.2933 16.6617 12.9772 16.0703 12.8491 15.4263C12.721 14.7824 12.7868 14.115 13.038 13.5084C13.2892 12.9019 13.7147 12.3834 14.2606 12.0187C14.8065 11.6539 15.4483 11.4592 16.1048 11.4592C16.9852 11.4592 17.8295 11.809 18.4521 12.4315C19.0746 13.054 19.4243 13.8983 19.4243 14.7787Z" fill="white"/>
<path d="M18.4421 14.8078C18.4425 15.269 18.3061 15.7199 18.0502 16.1036C17.7942 16.4873 17.4302 16.7864 17.0042 16.9632C16.5783 17.1399 16.1094 17.1864 15.657 17.0966C15.2046 17.0069 14.789 16.785 14.4628 16.459C14.1365 16.133 13.9143 15.7176 13.8242 15.2653C13.734 14.813 13.7801 14.3441 13.9565 13.918C14.1329 13.4918 14.4317 13.1276 14.8152 12.8713C15.1986 12.6151 15.6495 12.4783 16.1107 12.4783C16.7285 12.4788 17.321 12.7243 17.758 13.161C18.1951 13.5977 18.4411 14.1899 18.4421 14.8078Z" fill="#58595B"/>
<path d="M31.3785 19.5453C28.6936 21.4374 25.6396 22.8648 21.3086 22.8648C19.2818 22.8648 18.8717 20.7169 17.5322 21.7674C16.839 22.3122 14.408 23.5248 12.4651 23.4389C10.5222 23.353 7.38819 22.2107 6.51926 18.0808C6.17364 22.2107 5.99595 25.2529 4.44554 28.7403C7.53463 33.6864 14.8981 37.4999 21.5801 35.8597C20.8634 30.8453 25.2452 25.9324 27.7153 23.4194C28.6486 22.4684 30.449 20.9141 31.3785 19.5375V19.5453Z" fill="#8BC53F"/>
<path d="M31.273 19.6699C30.4176 20.4055 29.4632 21.0175 28.4378 21.4878C27.4156 21.9735 26.35 22.3619 25.255 22.6477C24.1615 22.9308 23.0172 23.1437 21.8593 23.0382C20.7014 22.9328 19.5161 22.5384 18.7526 21.6714L18.7897 21.6284C19.7348 22.2396 20.8146 22.4544 21.8925 22.4856C22.9868 22.5174 24.0813 22.4264 25.1554 22.2142C26.2405 21.9881 27.3021 21.6612 28.3265 21.2379C29.3674 20.8404 30.3474 20.2988 31.2379 19.6289L31.273 19.6699Z" fill="#58595B"/>
</svg>
