<svg width="225" height="40" viewBox="0 0 225 40" fill="none" xmlns="http://www.w3.org/2000/svg">
<path d="M38.0125 20.0001V19.9642V19.9284C37.9766 9.34234 29.4343 0.701416 19.0186 0.701416C8.54911 0.701416 0.0247192 9.34234 0.0247192 20.0001C0.0247192 30.6219 8.54911 39.2987 19.0186 39.2987C23.85 39.2987 28.3945 37.4701 31.9262 34.1267C32.6343 33.4544 32.6791 32.3609 31.989 31.6617C31.3525 30.9536 30.259 30.9088 29.5598 31.5452C29.5598 31.5452 29.5598 31.5452 29.524 31.5811C26.6915 34.2701 22.864 35.8119 18.9379 35.8119C14.3396 35.8119 10.2253 33.7951 7.37488 30.5771L15.4959 17.5709V23.5945C15.4959 26.4808 16.6164 27.404 17.5575 27.6729C18.4987 27.9418 19.906 27.7357 21.4477 25.3244L25.8937 18.1087C26.0461 17.8936 26.1626 17.6516 26.315 17.5082V21.1653C26.315 23.8455 27.4085 26.0326 29.273 27.0724C30.9492 28.0494 33.0825 27.9239 34.8394 26.8572C37.0086 25.423 38.1649 22.9491 38.0125 20.0001ZM33.0825 23.7737C32.4102 24.195 31.6214 24.2578 31.0209 23.9261C30.2679 23.469 29.8287 22.4651 29.8287 21.0936V16.8628C29.8287 14.846 29.0399 13.3849 27.6954 12.9995C25.4097 12.3272 23.6886 15.1328 23.0433 16.1905L19.0186 22.6533V14.6846C18.9648 12.8561 18.3822 11.7804 17.2617 11.4488C16.5088 11.2337 15.3973 11.3323 14.3037 12.9726L5.29532 27.395C4.08523 25.1093 3.46675 22.5816 3.46675 19.9911C3.46675 11.2874 10.4673 4.20619 19.0186 4.20619C27.5789 4.20619 34.5705 11.2874 34.5705 19.9911V20.027V20.0628C34.6422 21.7659 34.1223 23.1015 33.0825 23.7737Z" fill="black"/>
<path d="M64.3655 13.4654C64.8227 13.7343 65.2171 14.3528 65.2171 14.9265C65.2171 15.8139 64.4641 16.5668 63.6126 16.5668C63.3975 16.5668 63.1913 16.5041 63.012 16.4503C62.0081 15.6974 60.7353 15.2133 59.3907 15.2133C56.2266 15.2133 54.0484 17.7949 54.0484 20.9949C54.0484 24.1949 56.2803 26.7585 59.4086 26.7585C60.9862 26.7585 62.3935 26.1221 63.4512 25.1181C63.7201 24.9299 64.0518 24.8134 64.3924 24.8134C65.244 24.8134 65.9162 25.4856 65.9162 26.3372C65.9162 26.8929 65.5846 27.377 65.1633 27.6459C63.6395 28.9546 61.5778 29.824 59.4445 29.824C54.5862 29.824 50.6333 25.8352 50.6333 20.8963C50.6333 15.9573 54.5862 11.9685 59.4445 11.9685C61.2372 11.9237 62.9582 12.4974 64.3655 13.4654Z" fill="black"/>
<path d="M73.2664 17.1946C69.7975 17.1946 66.9201 19.9912 66.9201 23.4601C66.9201 26.9291 69.7975 29.8422 73.2664 29.8422C76.5471 29.8422 79.3527 26.8932 79.3527 23.4601C79.3527 19.9912 76.5829 17.1946 73.2664 17.1946ZM73.2305 26.7588C71.6529 26.7588 70.3442 25.3335 70.3442 23.505C70.3442 21.5957 71.6529 20.4394 73.2305 20.4394C74.6916 20.4394 75.9106 21.6316 75.9106 23.505C75.9106 25.3784 74.6737 26.7588 73.2305 26.7588Z" fill="black"/>
<path d="M81.4323 27.9148V19.1035C81.4323 18.1355 82.1852 17.3467 83.1623 17.3467C84.1034 17.3467 84.8922 18.1355 84.8922 19.1035V27.9148C84.8922 28.8828 84.1034 29.6716 83.1623 29.6716C82.2211 29.6716 81.4323 28.856 81.4323 27.9148Z" fill="black"/>
<path d="M81.1902 14.0211C81.1902 12.8648 82.0776 11.9595 83.1712 11.9595C84.2917 11.9595 85.1791 12.9007 85.1791 14.0211C85.1791 15.1416 84.2917 16.029 83.1712 16.029C82.0418 15.9931 81.1902 15.1057 81.1902 14.0211Z" fill="black"/>
<path d="M91.4446 23.1286V27.9062C91.4446 28.8742 90.6558 29.663 89.7146 29.663C88.7734 29.663 88.0026 28.8742 88.0026 27.9062V18.6916C88.0026 17.9386 88.6031 17.347 89.3471 17.347C90.0821 17.347 90.6558 17.9834 90.6558 18.6916C92.0272 17.3829 93.2732 17.2036 94.4295 17.2036C97.8625 17.2036 99.3863 19.7851 99.3863 22.7342V27.9331C99.3863 28.9011 98.5975 29.6899 97.6564 29.6899C96.7152 29.6899 95.9264 28.9011 95.9264 27.9331V23.1375C95.9264 21.6496 95.7382 20.3767 93.5779 20.3767C92.09 20.3678 91.4446 21.6406 91.4446 23.1286Z" fill="black"/>
<path d="M110.537 24.9659C110.116 24.9659 109.865 24.7777 109.65 24.5088L105.643 20.1883V27.9149C105.643 28.883 104.854 29.6718 103.913 29.6718C102.972 29.6718 102.183 28.883 102.183 27.9149V12.5961C102.299 12.3272 102.55 12.1479 102.819 12.1479C103.124 12.1479 103.375 12.4169 103.572 12.5961L109.972 19.767C110.161 19.9821 110.394 20.0987 110.528 20.0987C110.645 20.0987 110.896 19.9821 111.084 19.767L117.466 12.5961C117.654 12.4079 117.887 12.1479 118.219 12.1479C118.524 12.1479 118.775 12.3362 118.855 12.5961V27.9149C118.855 28.883 118.102 29.6718 117.125 29.6718C116.184 29.6718 115.395 28.883 115.395 27.9149V20.1883L111.407 24.5088C111.138 24.7777 110.869 24.9659 110.537 24.9659Z" fill="black"/>
<path d="M142.842 20.3678H142.474C140.314 20.4843 139.893 21.7123 139.893 23.1286V27.9062C139.893 28.8742 139.104 29.663 138.163 29.663C137.222 29.663 136.433 28.8742 136.433 27.9062V18.6916C136.433 17.9386 137.033 17.347 137.777 17.347C138.512 17.347 139.086 17.9834 139.086 18.6916C140.377 17.4994 141.417 17.2305 142.474 17.2036H142.806C143.631 17.2036 144.384 17.9117 144.384 18.8081C144.402 19.6328 143.667 20.3678 142.842 20.3678Z" fill="black"/>
<path d="M156.099 27.0905C156.251 27.3594 156.368 27.6104 156.368 27.9151C156.368 28.8025 155.543 29.6451 154.638 29.6451C154.037 29.6451 153.518 29.188 153.114 28.6771L149.161 24.0877V27.8883C149.161 28.8563 148.372 29.6451 147.431 29.6451C146.49 29.6451 145.701 28.8563 145.701 27.8883V13.8692C145.701 12.9011 146.454 12.1123 147.431 12.1123C148.408 12.1123 149.161 12.9011 149.161 13.8692V22.6177L153.114 18.2434C153.536 17.7863 154.002 17.3022 154.602 17.3022C155.454 17.3022 156.243 18.091 156.243 18.9784C156.243 19.2473 156.18 19.5342 156.027 19.7672L152.881 23.2003L156.099 27.0905Z" fill="black"/>
<path d="M176.859 29.8152H175.918C173.3 29.8152 171.776 28.6589 171.776 24.5894V20.3675H170.889C170.064 20.3675 169.365 19.6146 169.365 18.7899C169.365 17.9026 170.118 17.1855 170.889 17.1855H171.776V13.9317C171.776 12.9636 172.529 12.1748 173.506 12.1748C174.43 12.1927 175.218 12.9815 175.218 13.9496V17.2034H176.644C177.468 17.2034 178.168 17.9115 178.168 18.8079C178.168 19.6325 177.415 20.3855 176.644 20.3855H175.218V23.9351C175.218 26.2835 175.335 26.7676 176.375 26.7676H176.859C177.683 26.7676 178.383 27.4398 178.383 28.2914C178.401 29.116 177.675 29.8152 176.859 29.8152Z" fill="black"/>
<path d="M193.468 13.4654C193.917 13.7343 194.32 14.3528 194.32 14.9265C194.32 15.8139 193.567 16.5668 192.715 16.5668C192.5 16.5668 192.294 16.5041 192.115 16.4503C191.111 15.6974 189.838 15.2133 188.494 15.2133C185.329 15.2133 183.151 17.7949 183.151 20.9949C183.151 24.1949 185.383 26.7585 188.511 26.7585C190.089 26.7585 191.496 26.1221 192.554 25.1181C192.823 24.9299 193.155 24.8134 193.495 24.8134C194.347 24.8134 195.019 25.4856 195.019 26.3372C195.019 26.8929 194.687 27.377 194.266 27.6459C192.742 28.9546 190.681 29.824 188.547 29.824C183.689 29.824 179.736 25.8352 179.736 20.8963C179.736 15.9573 183.689 11.9685 188.547 11.9685C190.34 11.9237 192.097 12.4974 193.468 13.4654Z" fill="black"/>
<path d="M132.041 17.3021C131.288 17.3021 130.732 17.9027 130.732 18.6466L130.669 19.0679C129.163 17.3111 127.236 17.1587 126.663 17.1587C123.292 17.1587 120.881 19.9912 120.881 23.4243C120.881 26.8932 123.274 29.8063 126.474 29.8063C127.819 29.8063 129.943 29.2058 130.616 27.8971L130.678 28.3184C130.678 29.0265 131.234 29.6629 132.023 29.6271C132.776 29.6271 133.367 29.0265 133.367 28.2825V18.6466C133.385 17.9385 132.803 17.3021 132.041 17.3021ZM127.03 26.7587C125.506 26.7587 124.296 25.2976 124.296 23.5049C124.296 21.6764 125.533 20.4035 127.03 20.4035C128.518 20.4035 129.881 21.6405 129.881 23.5049C129.881 25.3694 128.572 26.7587 127.03 26.7587Z" fill="black"/>
<path d="M168.639 23.2092C168.576 19.3548 166.058 17.1946 162.741 17.1946C158.636 17.1946 156.879 20.1795 156.879 23.6125C156.879 27.9868 159.765 29.8422 163.234 29.8422C164.543 29.8422 165.914 29.654 166.972 28.8742C167.393 28.6053 167.725 28.166 167.725 27.6372C167.725 26.8484 167.088 26.212 166.353 26.212C166.022 26.212 165.681 26.3285 165.466 26.4809C164.758 26.8125 163.862 26.938 163.216 26.938C162.365 26.938 160.384 26.6064 160.384 24.5447H167.339C168.039 24.5447 168.639 23.9083 168.639 23.2092ZM160.348 22.3487C160.348 20.8876 161.872 20.4036 162.813 20.4036C163.718 20.4036 165.278 20.8876 165.323 22.3487H160.348Z" fill="black"/>
<path d="M207.183 17.3021C206.43 17.3021 205.874 17.9027 205.874 18.6466L205.811 19.0679C204.305 17.3111 202.378 17.1587 201.804 17.1587C198.434 17.1587 196.023 19.9912 196.023 23.4243C196.023 26.8932 198.416 29.8063 201.616 29.8063C202.961 29.8063 205.085 29.2058 205.757 27.8971L205.82 28.3184C205.82 29.0265 206.376 29.6629 207.165 29.6271C207.918 29.6271 208.509 29.0265 208.509 28.2825V18.6466C208.518 17.9385 207.936 17.3021 207.183 17.3021ZM202.172 26.7587C200.684 26.7587 199.438 25.2976 199.438 23.5049C199.438 21.6764 200.63 20.4035 202.172 20.4035C203.66 20.4035 205.004 21.6405 205.004 23.5049C205.004 25.3694 203.714 26.7587 202.172 26.7587Z" fill="black"/>
<path d="M218.315 17.2036C217.123 17.2036 215.555 17.5353 214.282 18.844C214.282 17.9924 213.726 17.356 212.973 17.356C212.22 17.356 211.629 17.9566 211.629 18.7005V33.1947C211.629 34.1628 212.417 34.9516 213.359 34.9516C214.3 34.9516 215.089 34.1628 215.089 33.1947V28.8205C216.03 29.5196 217.518 29.8244 218.522 29.8602C221.775 29.8602 224.115 26.9112 224.115 23.4781C224.097 20.0003 221.632 17.2036 218.315 17.2036ZM217.894 26.7499C216.37 26.7499 215.062 25.3784 215.062 23.4961C215.062 21.6137 216.37 20.3947 217.894 20.3947C219.382 20.3947 220.628 21.6316 220.628 23.4961C220.628 25.2978 219.436 26.7499 217.894 26.7499Z" fill="black"/>
</svg>
