<svg width="1454" height="667" viewBox="0 0 1454 667" fill="none" xmlns="http://www.w3.org/2000/svg">
<g clip-path="url(#clip0_4008_2)">
<path d="M159.033 666.799C158.568 666.799 158.19 666.42 158.19 665.951V180.848C158.19 180.379 158.568 180 159.033 180C159.499 180 159.876 180.379 159.876 180.848V665.951C159.876 666.42 159.499 666.799 159.033 666.799Z" fill="#D6812C"/>
<path d="M155.484 667C155.018 667 154.663 666.643 154.641 666.174C153.709 622.944 157.813 617.03 157.969 616.785C158.257 616.405 158.79 616.338 159.144 616.628C159.499 616.896 159.588 617.432 159.322 617.789C159.122 618.079 155.417 624.417 156.305 666.13C156.305 666.598 155.95 666.978 155.484 667Z" fill="#D6812C"/>
<path d="M162.805 667C162.339 667 161.962 666.598 161.984 666.13C162.894 624.239 159.122 618.034 158.967 617.789C158.723 617.409 158.812 616.874 159.166 616.628C159.544 616.361 160.032 616.427 160.32 616.807C160.498 617.03 164.58 622.967 163.648 666.197C163.648 666.665 163.271 667.022 162.805 667.022V667Z" fill="#D6812C"/>
<path d="M166.332 665.862C165.866 665.862 165.489 665.46 165.511 664.991C166.421 624.797 159.122 617.61 159.033 617.543C158.7 617.231 158.656 616.695 158.967 616.361C159.277 616.003 159.787 615.981 160.142 616.271C160.475 616.561 168.107 623.636 167.197 665.036C167.197 665.505 166.82 665.862 166.354 665.862H166.332Z" fill="#D6812C"/>
<path d="M151.646 665.862C151.18 665.862 150.825 665.505 150.803 665.036C149.871 623.614 157.525 616.539 157.858 616.271C158.213 615.959 158.745 616.004 159.056 616.361C159.344 616.718 159.322 617.231 158.967 617.543C158.856 617.655 151.601 624.931 152.511 664.991C152.511 665.46 152.156 665.839 151.69 665.862H151.646Z" fill="#D6812C"/>
<path d="M162.738 615.713C162.738 617.722 161.119 619.374 159.1 619.374C157.081 619.374 155.461 617.744 155.461 615.713C155.461 613.682 157.081 612.053 159.1 612.053C161.119 612.053 162.738 613.682 162.738 615.713Z" fill="#E6322C"/>
<g style="mix-blend-mode:screen">
<path d="M159.987 614.486C159.987 615.334 159.3 616.026 158.457 616.026C157.614 616.026 156.926 615.334 156.926 614.486C156.926 613.638 157.614 612.946 158.457 612.946C159.3 612.946 159.987 613.638 159.987 614.486Z" fill="#E6322C"/>
</g>
<path d="M160.631 545.992C160.165 545.992 159.788 545.613 159.788 545.144V517.626C159.788 517.157 160.165 516.778 160.631 516.778C161.097 516.778 161.474 517.157 161.474 517.626V545.144C161.474 545.613 161.097 545.992 160.631 545.992Z" fill="#E1E31A"/>
<path d="M173.631 545.992C173.165 545.992 172.788 545.613 172.788 545.144V517.626C172.788 517.157 173.165 516.778 173.631 516.778C174.097 516.778 174.474 517.157 174.474 517.626V545.144C174.474 545.613 174.097 545.992 173.631 545.992Z" fill="#E1E31A"/>
<path d="M154.108 545.992C153.642 545.992 153.265 545.613 153.265 545.144V517.626C153.265 517.157 153.642 516.778 154.108 516.778C154.574 516.778 154.951 517.157 154.951 517.626V545.144C154.951 545.613 154.574 545.992 154.108 545.992Z" fill="#E1E31A"/>
<path d="M147.608 545.992C147.142 545.992 146.765 545.613 146.765 545.144V517.626C146.765 517.157 147.142 516.778 147.608 516.778C148.074 516.778 148.451 517.157 148.451 517.626V545.144C148.451 545.613 148.074 545.992 147.608 545.992Z" fill="#E1E31A"/>
<path d="M167.131 545.992C166.665 545.992 166.288 545.613 166.288 545.144V517.626C166.288 517.157 166.665 516.778 167.131 516.778C167.597 516.778 167.974 517.157 167.974 517.626V545.144C167.974 545.613 167.597 545.992 167.131 545.992Z" fill="#E1E31A"/>
<path d="M141.108 545.992C140.642 545.992 140.265 545.613 140.265 545.144V517.626C140.265 517.157 140.642 516.778 141.108 516.778C141.574 516.778 141.951 517.157 141.951 517.626V545.144C141.951 545.613 141.574 545.992 141.108 545.992Z" fill="#E1E31A"/>
<path d="M176.87 545.992C176.404 545.992 176.027 545.613 176.027 545.144V517.626C176.027 517.157 176.404 516.778 176.87 516.778C177.336 516.778 177.713 517.157 177.713 517.626V545.144C177.713 545.613 177.336 545.992 176.87 545.992Z" fill="#E1E31A"/>
<path d="M157.369 545.992C156.904 545.992 156.526 545.613 156.526 545.144V517.626C156.526 517.157 156.904 516.778 157.369 516.778C157.835 516.778 158.212 517.157 158.212 517.626V545.144C158.212 545.613 157.835 545.992 157.369 545.992Z" fill="#E1E31A"/>
<path d="M170.37 545.992C169.904 545.992 169.527 545.613 169.527 545.144V517.626C169.527 517.157 169.904 516.778 170.37 516.778C170.836 516.778 171.213 517.157 171.213 517.626V545.144C171.213 545.613 170.836 545.992 170.37 545.992Z" fill="#E1E31A"/>
<path d="M150.869 545.992C150.404 545.992 150.026 545.613 150.026 545.144V517.626C150.026 517.157 150.404 516.778 150.869 516.778C151.335 516.778 151.712 517.157 151.712 517.626V545.144C151.712 545.613 151.335 545.992 150.869 545.992Z" fill="#E1E31A"/>
<path d="M144.369 545.992C143.903 545.992 143.526 545.613 143.526 545.144V517.626C143.526 517.157 143.903 516.778 144.369 516.778C144.835 516.778 145.212 517.157 145.212 517.626V545.144C145.212 545.613 144.835 545.992 144.369 545.992Z" fill="#E1E31A"/>
<path d="M163.87 545.992C163.404 545.992 163.027 545.613 163.027 545.144V517.626C163.027 517.157 163.404 516.778 163.87 516.778C164.336 516.778 164.713 517.157 164.713 517.626V545.144C164.713 545.613 164.336 545.992 163.87 545.992Z" fill="#E1E31A"/>
<path d="M137.869 545.992C137.403 545.992 137.026 545.613 137.026 545.144V517.626C137.026 517.157 137.403 516.778 137.869 516.778C138.335 516.778 138.712 517.157 138.712 517.626V545.144C138.712 545.613 138.335 545.992 137.869 545.992Z" fill="#E1E31A"/>
<path d="M180.132 545.992C179.666 545.992 179.289 545.613 179.289 545.144V517.626C179.289 517.157 179.666 516.778 180.132 516.778C180.597 516.778 180.975 517.157 180.975 517.626V545.144C180.975 545.613 180.597 545.992 180.132 545.992Z" fill="#E1E31A"/>
<path d="M182.638 378.54H135.34V519.434H182.638V378.54Z" fill="#F1C319"/>
<g style="mix-blend-mode:multiply">
<path d="M182.639 378.54H170.259V519.434H182.639V378.54Z" fill="#F1C319"/>
</g>
<g style="mix-blend-mode:multiply">
<path d="M142.306 378.54H137.736V519.434H142.306V378.54Z" fill="#F1C319"/>
</g>
<g style="mix-blend-mode:screen">
<path d="M152.733 378.54H148.163V519.434H152.733V378.54Z" fill="#FFF200"/>
</g>
<path d="M181.618 524.076H136.36C135.894 524.076 135.517 523.696 135.517 523.228C135.517 522.759 135.894 522.38 136.36 522.38H181.618C182.084 522.38 182.461 522.759 182.461 523.228C182.461 523.696 182.084 524.076 181.618 524.076Z" fill="#D6812C"/>
<path d="M150.714 558.334C150.714 557.553 151.003 556.794 151.602 556.191C152.179 555.611 152.933 555.299 153.732 555.299C154.53 555.299 155.284 555.611 155.861 556.191L172.478 572.907C173.654 574.09 173.654 576.01 172.478 577.192C171.302 578.375 169.394 578.375 168.218 577.192L151.602 560.476C151.025 559.896 150.714 559.115 150.714 558.334ZM152.179 556.794C151.336 557.642 151.336 559.026 152.179 559.896L168.795 576.612C169.638 577.46 171.014 577.46 171.879 576.612C172.722 575.764 172.722 574.38 171.879 573.51L155.262 556.794C154.863 556.392 154.308 556.147 153.732 556.147C153.155 556.147 152.6 556.37 152.201 556.794H152.179Z" fill="#E6322C"/>
<path d="M144.569 564.516C144.569 563.735 144.857 562.976 145.456 562.373C146.632 561.19 148.54 561.19 149.716 562.373L166.332 579.09C167.508 580.272 167.508 582.192 166.332 583.375C165.157 584.557 163.249 584.557 162.073 583.375L145.456 566.658C144.879 566.078 144.569 565.297 144.569 564.516ZM166.377 581.232C166.377 580.674 166.155 580.116 165.733 579.692L149.117 562.976C148.274 562.128 146.898 562.128 146.033 562.976C145.19 563.824 145.19 565.23 146.033 566.078L162.65 582.794C163.493 583.642 164.868 583.642 165.733 582.794C166.155 582.37 166.377 581.812 166.377 581.254V581.232Z" fill="#E6322C"/>
<path d="M150.714 581.232C150.714 580.451 151.003 579.692 151.602 579.09L168.218 562.373C169.394 561.19 171.302 561.19 172.478 562.373C173.654 563.556 173.654 565.476 172.478 566.658L155.861 583.375C155.284 583.955 154.53 584.267 153.732 584.267C152.933 584.267 152.179 583.955 151.602 583.375C151.025 582.794 150.714 582.013 150.714 581.232ZM172.522 564.516C172.522 563.958 172.3 563.4 171.879 562.976C171.036 562.128 169.66 562.128 168.795 562.976L152.179 579.692C151.336 580.54 151.336 581.924 152.179 582.794C152.578 583.196 153.133 583.441 153.709 583.441C154.286 583.441 154.841 583.218 155.24 582.794L171.857 566.078C172.278 565.654 172.5 565.096 172.5 564.538L172.522 564.516Z" fill="#E6322C"/>
<path d="M144.569 575.05C144.569 574.269 144.857 573.51 145.456 572.908L162.073 556.191C163.249 555.009 165.157 555.009 166.332 556.191C167.508 557.374 167.508 559.294 166.332 560.477L149.716 577.193C148.54 578.376 146.632 578.376 145.456 577.193C144.879 576.612 144.569 575.831 144.569 575.05ZM166.377 558.334C166.377 557.776 166.155 557.218 165.733 556.794C164.89 555.946 163.515 555.946 162.65 556.794L146.033 573.51C145.19 574.358 145.19 575.742 146.033 576.612C146.876 577.46 148.252 577.46 149.117 576.612L165.733 559.896C166.155 559.472 166.377 558.914 166.377 558.356V558.334Z" fill="#E6322C"/>
<path d="M169.993 569.783C169.993 567.529 171.812 565.676 174.075 565.676C176.338 565.676 178.157 567.529 178.157 569.783C178.157 572.037 176.338 573.889 174.075 573.889C171.812 573.889 169.993 572.059 169.993 569.783ZM177.314 569.783C177.314 567.975 175.85 566.524 174.075 566.524C172.3 566.524 170.836 567.997 170.836 569.783C170.836 571.568 172.3 573.041 174.075 573.041C175.85 573.041 177.314 571.568 177.314 569.783Z" fill="#E6322C"/>
<path d="M139.821 569.783C139.821 567.529 141.64 565.676 143.903 565.676C146.166 565.676 147.985 567.529 147.985 569.783C147.985 572.037 146.166 573.889 143.903 573.889C141.64 573.889 139.821 572.059 139.821 569.783ZM147.142 569.783C147.142 567.975 145.678 566.524 143.903 566.524C142.129 566.524 140.664 567.997 140.664 569.783C140.664 571.568 142.129 573.041 143.903 573.041C145.678 573.041 147.142 571.568 147.142 569.783Z" fill="#E6322C"/>
<path d="M158.989 517.425C199.3 517.425 231.978 488.368 231.978 452.525C231.978 416.681 199.3 387.624 158.989 387.624C118.678 387.624 86 416.681 86 452.525C86 488.368 118.678 517.425 158.989 517.425Z" fill="#E6322C"/>
<path d="M158.412 516.778L158.323 515.082C184.879 513.586 206.332 502.985 218.733 485.176C229.049 470.356 231.778 452.324 226.387 434.402C214.252 393.917 161.096 389.766 160.564 389.744L160.675 388.048C161.229 388.092 215.516 392.311 228.007 433.911C233.531 452.346 230.735 470.914 220.109 486.158C207.419 504.391 185.5 515.26 158.412 516.778Z" fill="#EFC45D"/>
<path d="M158.59 516.778L158.457 515.082C175.095 513.832 189.028 506.222 198.7 493.076C210.126 477.543 214.097 455.582 209.327 434.335C200.231 393.918 160.542 389.766 160.143 389.722L160.298 388.026C160.719 388.07 201.607 392.311 210.969 433.956C215.849 455.671 211.767 478.146 200.054 494.081C190.07 507.65 175.739 515.483 158.59 516.778Z" fill="#EFC45D"/>
<path d="M158.767 516.778L158.589 515.104C166.731 514.189 173.831 509.837 179.71 502.16C191.246 487.05 196.171 460.425 192.266 434.313C189.094 413.2 180.419 402.22 173.675 396.707C166.399 390.748 159.765 389.766 159.699 389.766L159.92 388.093C160.209 388.137 166.997 389.142 174.651 395.324C181.662 401.015 190.669 412.352 193.93 434.068C197.968 461.028 193.043 487.519 181.041 503.209C174.962 511.154 167.264 515.863 158.767 516.823V516.778Z" fill="#EFC45D"/>
<path d="M159.011 516.756L158.656 515.104C170.703 512.404 178.29 475.378 175.206 434.224C172.189 394.052 159.3 389.744 159.167 389.7L159.61 388.07C160.187 388.227 173.742 392.445 176.87 434.09C179.666 471.294 173.631 513.475 159.011 516.756Z" fill="#EFC45D"/>
<path d="M159.832 388.896H158.146V515.93H159.832V388.896Z" fill="#EFC45D"/>
<path d="M158.967 516.756C144.347 513.497 138.312 471.294 141.108 434.09C144.236 392.445 157.791 388.227 158.368 388.07L158.811 389.7C158.678 389.744 145.789 394.029 142.771 434.224C139.688 475.378 147.275 512.404 159.322 515.104L158.967 516.756Z" fill="#EFC45D"/>
<path d="M159.211 516.778C150.714 515.818 143.016 511.131 136.937 503.164C124.957 487.474 120.01 460.983 124.047 434.023C127.309 412.307 136.338 400.97 143.326 395.279C150.958 389.074 157.769 388.07 158.057 388.048L158.279 389.722C158.279 389.722 151.579 390.726 144.302 396.663C137.58 402.153 128.884 413.156 125.711 434.268C121.807 460.38 126.732 487.006 138.268 502.115C144.147 509.792 151.246 514.167 159.388 515.059L159.211 516.733V516.778Z" fill="#EFC45D"/>
<path d="M159.41 516.778C142.261 515.506 127.93 507.65 117.946 494.081C106.233 478.168 102.151 455.694 107.031 433.956C116.393 392.311 157.303 388.07 157.702 388.026L157.857 389.722C157.458 389.766 117.769 393.918 108.673 434.335C103.903 455.582 107.852 477.543 119.277 493.076C128.95 506.222 142.86 513.832 159.521 515.082L159.388 516.778H159.41Z" fill="#EFC45D"/>
<path d="M159.588 516.778C132.5 515.26 110.603 504.391 97.8911 486.158C87.2645 470.915 84.4692 452.368 89.9932 433.911C102.461 392.311 156.77 388.093 157.325 388.048L157.436 389.744C156.903 389.789 103.748 393.94 91.6128 434.402C86.244 452.346 88.9505 470.379 99.2666 485.176C111.668 502.985 133.121 513.586 159.677 515.082L159.588 516.778Z" fill="#EFC45D"/>
<g style="mix-blend-mode:screen">
<g style="mix-blend-mode:screen" opacity="0.6">
<path d="M146.1 410.344C144.724 408.58 143.482 406.929 141.396 406.059C139.178 405.143 136.893 404.496 134.475 404.519C129.017 404.541 123.493 405.858 119.056 409.228C114.708 412.531 110.493 417.508 109.938 423.132C109.494 427.573 111.935 431.255 116.039 432.461C116.349 432.795 116.682 433.108 117.104 433.376C119.256 434.759 122.273 434.849 124.713 434.715C129.261 434.469 134.164 432.773 137.825 430.095C141.751 427.216 145.634 424.225 147.209 419.427C148.296 416.169 148.207 413.089 146.077 410.344H146.1Z" fill="#E97A7C"/>
</g>
<g style="mix-blend-mode:screen" opacity="0.6">
<path d="M121.252 441.477C120.72 440.785 120.254 440.16 119.433 439.826C118.568 439.468 117.703 439.223 116.771 439.223C114.663 439.223 112.533 439.736 110.825 441.031C109.139 442.303 107.52 444.222 107.32 446.387C107.142 448.106 108.096 449.512 109.672 449.98C109.783 450.114 109.916 450.226 110.093 450.337C110.914 450.873 112.09 450.895 113.022 450.851C114.774 450.761 116.66 450.092 118.08 449.065C119.588 447.949 121.075 446.811 121.696 444.959C122.117 443.709 122.073 442.526 121.252 441.455V441.477Z" fill="#E97A7C"/>
</g>
</g>
<g style="mix-blend-mode:multiply" opacity="0.59">
<path d="M158.989 387.624C118.679 387.624 86 416.682 86 452.525C86 488.367 118.679 517.425 158.989 517.425C199.299 517.425 231.978 488.367 231.978 452.525C231.978 416.682 199.299 387.624 158.989 387.624ZM159.41 480.489C124.624 480.489 96.427 461.273 96.427 437.594C96.427 413.914 124.624 394.699 159.41 394.699C194.197 394.699 222.394 413.914 222.394 437.594C222.394 461.273 194.197 480.489 159.41 480.489Z" fill="#A1201C"/>
</g>
</g>
<g clip-path="url(#clip1_4008_2)">
<path d="M1259.03 625.804C1258.58 625.804 1258.21 625.434 1258.21 624.977V151.827C1258.21 151.37 1258.58 151 1259.03 151C1259.49 151 1259.85 151.37 1259.85 151.827V624.977C1259.85 625.434 1259.49 625.804 1259.03 625.804Z" fill="#D6812C"/>
<path d="M1255.58 626C1255.13 626 1254.78 625.652 1254.76 625.195C1253.85 583.03 1257.85 577.261 1258 577.022C1258.28 576.652 1258.8 576.587 1259.14 576.87C1259.49 577.131 1259.57 577.653 1259.31 578.002C1259.12 578.284 1255.52 584.467 1256.38 625.151C1256.38 625.608 1256.03 625.978 1255.58 626Z" fill="#D6812C"/>
<path d="M1262.7 626C1262.25 626 1261.88 625.608 1261.9 625.151C1262.79 584.292 1259.12 578.241 1258.97 578.002C1258.73 577.631 1258.82 577.109 1259.16 576.87C1259.53 576.608 1260 576.674 1260.28 577.044C1260.46 577.261 1264.43 583.052 1263.52 625.216C1263.52 625.673 1263.15 626.022 1262.7 626.022V626Z" fill="#D6812C"/>
<path d="M1266.13 624.89C1265.68 624.89 1265.31 624.498 1265.33 624.041C1266.22 584.837 1259.12 577.827 1259.03 577.762C1258.71 577.457 1258.67 576.935 1258.97 576.608C1259.27 576.26 1259.77 576.238 1260.11 576.521C1260.43 576.804 1267.86 583.705 1266.97 624.084C1266.97 624.542 1266.61 624.89 1266.15 624.89H1266.13Z" fill="#D6812C"/>
<path d="M1251.85 624.89C1251.39 624.89 1251.05 624.542 1251.03 624.084C1250.12 583.683 1257.57 576.783 1257.89 576.521C1258.23 576.217 1258.75 576.26 1259.05 576.608C1259.33 576.957 1259.31 577.457 1258.97 577.762C1258.86 577.871 1251.8 584.967 1252.69 624.041C1252.69 624.498 1252.34 624.868 1251.89 624.89H1251.85Z" fill="#D6812C"/>
<path d="M1262.64 575.977C1262.64 577.936 1261.06 579.547 1259.1 579.547C1257.13 579.547 1255.56 577.958 1255.56 575.977C1255.56 573.996 1257.13 572.407 1259.1 572.407C1261.06 572.407 1262.64 573.996 1262.64 575.977Z" fill="#E6322C"/>
<g style="mix-blend-mode:screen">
<path d="M1259.96 574.78C1259.96 575.607 1259.29 576.282 1258.47 576.282C1257.65 576.282 1256.98 575.607 1256.98 574.78C1256.98 573.953 1257.65 573.278 1258.47 573.278C1259.29 573.278 1259.96 573.953 1259.96 574.78Z" fill="#E6322C"/>
</g>
<path d="M1260.59 507.974C1260.13 507.974 1259.77 507.604 1259.77 507.147V480.307C1259.77 479.849 1260.13 479.479 1260.59 479.479C1261.04 479.479 1261.41 479.849 1261.41 480.307V507.147C1261.41 507.604 1261.04 507.974 1260.59 507.974Z" fill="#E1E31A"/>
<path d="M1273.23 507.974C1272.78 507.974 1272.41 507.604 1272.41 507.147V480.307C1272.41 479.849 1272.78 479.479 1273.23 479.479C1273.68 479.479 1274.05 479.849 1274.05 480.307V507.147C1274.05 507.604 1273.68 507.974 1273.23 507.974Z" fill="#E1E31A"/>
<path d="M1254.24 507.974C1253.79 507.974 1253.42 507.604 1253.42 507.147V480.307C1253.42 479.849 1253.79 479.479 1254.24 479.479C1254.69 479.479 1255.06 479.849 1255.06 480.307V507.147C1255.06 507.604 1254.69 507.974 1254.24 507.974Z" fill="#E1E31A"/>
<path d="M1247.92 507.974C1247.47 507.974 1247.1 507.604 1247.1 507.147V480.307C1247.1 479.849 1247.47 479.479 1247.92 479.479C1248.37 479.479 1248.74 479.849 1248.74 480.307V507.147C1248.74 507.604 1248.37 507.974 1247.92 507.974Z" fill="#E1E31A"/>
<path d="M1266.91 507.974C1266.45 507.974 1266.09 507.604 1266.09 507.147V480.307C1266.09 479.849 1266.45 479.479 1266.91 479.479C1267.36 479.479 1267.73 479.849 1267.73 480.307V507.147C1267.73 507.604 1267.36 507.974 1266.91 507.974Z" fill="#E1E31A"/>
<path d="M1241.6 507.974C1241.14 507.974 1240.78 507.604 1240.78 507.147V480.307C1240.78 479.849 1241.14 479.479 1241.6 479.479C1242.05 479.479 1242.42 479.849 1242.42 480.307V507.147C1242.42 507.604 1242.05 507.974 1241.6 507.974Z" fill="#E1E31A"/>
<path d="M1276.38 507.974C1275.93 507.974 1275.56 507.604 1275.56 507.147V480.307C1275.56 479.849 1275.93 479.479 1276.38 479.479C1276.83 479.479 1277.2 479.849 1277.2 480.307V507.147C1277.2 507.604 1276.83 507.974 1276.38 507.974Z" fill="#E1E31A"/>
<path d="M1257.41 507.974C1256.96 507.974 1256.59 507.604 1256.59 507.147V480.307C1256.59 479.849 1256.96 479.479 1257.41 479.479C1257.87 479.479 1258.23 479.849 1258.23 480.307V507.147C1258.23 507.604 1257.87 507.974 1257.41 507.974Z" fill="#E1E31A"/>
<path d="M1270.06 507.974C1269.61 507.974 1269.24 507.604 1269.24 507.147V480.307C1269.24 479.849 1269.61 479.479 1270.06 479.479C1270.51 479.479 1270.88 479.849 1270.88 480.307V507.147C1270.88 507.604 1270.51 507.974 1270.06 507.974Z" fill="#E1E31A"/>
<path d="M1251.09 507.974C1250.64 507.974 1250.27 507.604 1250.27 507.147V480.307C1250.27 479.849 1250.64 479.479 1251.09 479.479C1251.54 479.479 1251.91 479.849 1251.91 480.307V507.147C1251.91 507.604 1251.54 507.974 1251.09 507.974Z" fill="#E1E31A"/>
<path d="M1244.77 507.974C1244.32 507.974 1243.95 507.604 1243.95 507.147V480.307C1243.95 479.849 1244.32 479.479 1244.77 479.479C1245.22 479.479 1245.59 479.849 1245.59 480.307V507.147C1245.59 507.604 1245.22 507.974 1244.77 507.974Z" fill="#E1E31A"/>
<path d="M1263.74 507.974C1263.28 507.974 1262.92 507.604 1262.92 507.147V480.307C1262.92 479.849 1263.28 479.479 1263.74 479.479C1264.19 479.479 1264.56 479.849 1264.56 480.307V507.147C1264.56 507.604 1264.19 507.974 1263.74 507.974Z" fill="#E1E31A"/>
<path d="M1238.45 507.974C1237.99 507.974 1237.63 507.604 1237.63 507.147V480.307C1237.63 479.849 1237.99 479.479 1238.45 479.479C1238.9 479.479 1239.27 479.849 1239.27 480.307V507.147C1239.27 507.604 1238.9 507.974 1238.45 507.974Z" fill="#E1E31A"/>
<path d="M1279.55 507.974C1279.1 507.974 1278.73 507.604 1278.73 507.147V480.307C1278.73 479.849 1279.1 479.479 1279.55 479.479C1280 479.479 1280.37 479.849 1280.37 480.307V507.147C1280.37 507.604 1280 507.974 1279.55 507.974Z" fill="#E1E31A"/>
<path d="M1281.99 344.648H1235.99V482.07H1281.99V344.648Z" fill="#F1C319"/>
<g style="mix-blend-mode:multiply">
<path d="M1281.99 344.648H1269.95V482.07H1281.99V344.648Z" fill="#F1C319"/>
</g>
<g style="mix-blend-mode:multiply">
<path d="M1242.76 344.648H1238.32V482.07H1242.76V344.648Z" fill="#F1C319"/>
</g>
<g style="mix-blend-mode:screen">
<path d="M1252.9 344.648H1248.46V482.07H1252.9V344.648Z" fill="#FFF200"/>
</g>
<path d="M1281 486.598H1236.98C1236.53 486.598 1236.16 486.228 1236.16 485.77C1236.16 485.313 1236.53 484.943 1236.98 484.943H1281C1281.45 484.943 1281.82 485.313 1281.82 485.77C1281.82 486.228 1281.45 486.598 1281 486.598Z" fill="#D6812C"/>
<path d="M1250.94 520.011C1250.94 519.25 1251.22 518.509 1251.8 517.922C1252.37 517.356 1253.1 517.051 1253.88 517.051C1254.65 517.051 1255.39 517.356 1255.95 517.922L1272.11 534.226C1273.25 535.38 1273.25 537.252 1272.11 538.405C1270.96 539.559 1269.11 539.559 1267.97 538.405L1251.8 522.101C1251.24 521.535 1250.94 520.773 1250.94 520.011ZM1252.37 518.509C1251.55 519.337 1251.55 520.686 1252.37 521.535L1268.53 537.839C1269.35 538.667 1270.68 538.667 1271.53 537.839C1272.35 537.012 1272.35 535.663 1271.53 534.814L1255.36 518.509C1254.98 518.118 1254.44 517.878 1253.88 517.878C1253.31 517.878 1252.77 518.096 1252.39 518.509H1252.37Z" fill="#E6322C"/>
<path d="M1244.96 526.041C1244.96 525.279 1245.24 524.539 1245.83 523.951C1246.97 522.798 1248.83 522.798 1249.97 523.951L1266.13 540.256C1267.27 541.409 1267.27 543.281 1266.13 544.435C1264.99 545.589 1263.13 545.589 1261.99 544.435L1245.83 528.131C1245.27 527.565 1244.96 526.803 1244.96 526.041ZM1266.17 542.345C1266.17 541.801 1265.96 541.257 1265.55 540.843L1249.39 524.539C1248.57 523.712 1247.23 523.712 1246.39 524.539C1245.57 525.366 1245.57 526.738 1246.39 527.565L1262.55 543.869C1263.37 544.696 1264.71 544.696 1265.55 543.869C1265.96 543.456 1266.17 542.911 1266.17 542.367V542.345Z" fill="#E6322C"/>
<path d="M1250.94 542.345C1250.94 541.584 1251.22 540.843 1251.8 540.256L1267.97 523.951C1269.11 522.798 1270.96 522.798 1272.11 523.951C1273.25 525.105 1273.25 526.977 1272.11 528.131L1255.95 544.435C1255.39 545.001 1254.65 545.306 1253.88 545.306C1253.1 545.306 1252.37 545.001 1251.8 544.435C1251.24 543.869 1250.94 543.107 1250.94 542.345ZM1272.15 526.041C1272.15 525.497 1271.94 524.953 1271.53 524.539C1270.71 523.712 1269.37 523.712 1268.53 524.539L1252.37 540.843C1251.55 541.671 1251.55 543.02 1252.37 543.869C1252.75 544.261 1253.29 544.5 1253.85 544.5C1254.41 544.5 1254.95 544.283 1255.34 543.869L1271.5 527.565C1271.91 527.151 1272.13 526.607 1272.13 526.063L1272.15 526.041Z" fill="#E6322C"/>
<path d="M1244.96 536.316C1244.96 535.554 1245.24 534.814 1245.83 534.226L1261.99 517.922C1263.13 516.768 1264.99 516.768 1266.13 517.922C1267.27 519.076 1267.27 520.948 1266.13 522.101L1249.97 538.406C1248.83 539.559 1246.97 539.559 1245.83 538.406C1245.27 537.84 1244.96 537.078 1244.96 536.316ZM1266.17 520.012C1266.17 519.467 1265.96 518.923 1265.55 518.51C1264.73 517.682 1263.39 517.682 1262.55 518.51L1246.39 534.814C1245.57 535.641 1245.57 536.991 1246.39 537.84C1247.21 538.667 1248.55 538.667 1249.39 537.84L1265.55 521.535C1265.96 521.122 1266.17 520.578 1266.17 520.033V520.012Z" fill="#E6322C"/>
<path d="M1269.69 531.178C1269.69 528.98 1271.46 527.173 1273.66 527.173C1275.86 527.173 1277.63 528.98 1277.63 531.178C1277.63 533.377 1275.86 535.184 1273.66 535.184C1271.46 535.184 1269.69 533.399 1269.69 531.178ZM1276.81 531.178C1276.81 529.415 1275.39 528 1273.66 528C1271.94 528 1270.51 529.437 1270.51 531.178C1270.51 532.92 1271.94 534.357 1273.66 534.357C1275.39 534.357 1276.81 532.92 1276.81 531.178Z" fill="#E6322C"/>
<path d="M1240.35 531.178C1240.35 528.98 1242.12 527.173 1244.32 527.173C1246.52 527.173 1248.29 528.98 1248.29 531.178C1248.29 533.377 1246.52 535.184 1244.32 535.184C1242.12 535.184 1240.35 533.399 1240.35 531.178ZM1247.47 531.178C1247.47 529.415 1246.04 528 1244.32 528C1242.59 528 1241.17 529.437 1241.17 531.178C1241.17 532.92 1242.59 534.357 1244.32 534.357C1246.04 534.357 1247.47 532.92 1247.47 531.178Z" fill="#E6322C"/>
<path d="M1258.99 480.111C1298.2 480.111 1329.98 451.77 1329.98 416.809C1329.98 381.849 1298.2 353.508 1258.99 353.508C1219.78 353.508 1188 381.849 1188 416.809C1188 451.77 1219.78 480.111 1258.99 480.111Z" fill="#E6322C"/>
<path d="M1258.43 479.479L1258.34 477.825C1284.17 476.367 1305.04 466.027 1317.1 448.656C1327.13 434.202 1329.78 416.613 1324.54 399.134C1312.74 359.646 1261.04 355.598 1260.52 355.576L1260.63 353.921C1261.17 353.965 1313.97 358.079 1326.12 398.655C1331.49 416.635 1328.77 434.746 1318.43 449.614C1306.09 467.398 1284.77 477.999 1258.43 479.479Z" fill="#EFC45D"/>
<path d="M1258.6 479.479L1258.47 477.825C1274.65 476.606 1288.2 469.183 1297.61 456.362C1308.72 441.211 1312.59 419.792 1307.95 399.068C1299.1 359.646 1260.5 355.598 1260.11 355.554L1260.26 353.9C1260.67 353.943 1300.44 358.079 1309.54 398.698C1314.29 419.879 1310.32 441.799 1298.93 457.341C1289.22 470.576 1275.28 478.217 1258.6 479.479Z" fill="#EFC45D"/>
<path d="M1258.77 479.479L1258.6 477.847C1266.52 476.954 1273.42 472.71 1279.14 465.221C1290.36 450.484 1295.15 424.515 1291.35 399.047C1288.27 378.454 1279.83 367.744 1273.27 362.367C1266.2 356.555 1259.74 355.598 1259.68 355.598L1259.9 353.965C1260.18 354.009 1266.78 354.988 1274.22 361.018C1281.04 366.569 1289.8 377.627 1292.97 398.807C1296.9 425.103 1292.11 450.942 1280.44 466.244C1274.52 473.994 1267.04 478.587 1258.77 479.523V479.479Z" fill="#EFC45D"/>
<path d="M1259.01 479.458L1258.67 477.847C1270.38 475.213 1277.76 439.1 1274.76 398.96C1271.83 359.777 1259.29 355.576 1259.16 355.532L1259.59 353.943C1260.15 354.096 1273.34 358.21 1276.38 398.829C1279.1 435.116 1273.23 476.258 1259.01 479.458Z" fill="#EFC45D"/>
<path d="M1259.81 354.749H1258.17V478.652H1259.81V354.749Z" fill="#EFC45D"/>
<path d="M1258.97 479.458C1244.75 476.28 1238.88 435.116 1241.6 398.829C1244.64 358.21 1257.82 354.096 1258.38 353.943L1258.82 355.532C1258.69 355.576 1246.15 359.755 1243.22 398.96C1240.22 439.1 1247.6 475.213 1259.31 477.847L1258.97 479.458Z" fill="#EFC45D"/>
<path d="M1259.2 479.479C1250.94 478.543 1243.45 473.972 1237.54 466.201C1225.89 450.898 1221.08 425.059 1225 398.764C1228.18 377.583 1236.96 366.525 1243.76 360.974C1251.18 354.923 1257.8 353.943 1258.08 353.921L1258.3 355.554C1258.3 355.554 1251.78 356.534 1244.7 362.324C1238.17 367.679 1229.71 378.41 1226.62 399.003C1222.83 424.472 1227.62 450.441 1238.84 465.178C1244.55 472.666 1251.46 476.932 1259.38 477.803L1259.2 479.436V479.479Z" fill="#EFC45D"/>
<path d="M1259.4 479.479C1242.72 478.239 1228.78 470.576 1219.07 457.341C1207.68 441.821 1203.71 419.9 1208.45 398.698C1217.56 358.079 1257.35 353.943 1257.74 353.9L1257.89 355.554C1257.5 355.598 1218.9 359.646 1210.05 399.068C1205.41 419.792 1209.25 441.211 1220.37 456.362C1229.77 469.183 1243.3 476.606 1259.51 477.825L1259.38 479.479H1259.4Z" fill="#EFC45D"/>
<path d="M1259.57 479.479C1233.23 477.999 1211.93 467.398 1199.57 449.614C1189.23 434.746 1186.51 416.657 1191.88 398.655C1204.01 358.079 1256.83 353.965 1257.37 353.922L1257.48 355.576C1256.96 355.619 1205.26 359.668 1193.46 399.134C1188.24 416.635 1190.87 434.224 1200.9 448.656C1212.96 466.027 1233.83 476.367 1259.66 477.825L1259.57 479.479Z" fill="#EFC45D"/>
<g style="mix-blend-mode:screen">
<g style="mix-blend-mode:screen" opacity="0.6">
<path d="M1246.45 375.668C1245.11 373.948 1243.91 372.337 1241.88 371.488C1239.72 370.596 1237.5 369.964 1235.15 369.986C1229.84 370.008 1224.47 371.292 1220.15 374.579C1215.92 377.801 1211.82 382.655 1211.28 388.141C1210.85 392.473 1213.22 396.064 1217.22 397.24C1217.52 397.566 1217.84 397.871 1218.25 398.132C1220.34 399.482 1223.28 399.569 1225.65 399.438C1230.08 399.199 1234.84 397.545 1238.4 394.932C1242.22 392.124 1246 389.207 1247.53 384.527C1248.59 381.349 1248.5 378.345 1246.43 375.668H1246.45Z" fill="#E97A7C"/>
</g>
<g style="mix-blend-mode:screen" opacity="0.6">
<path d="M1222.29 406.034C1221.77 405.359 1221.32 404.75 1220.52 404.423C1219.68 404.075 1218.83 403.836 1217.93 403.836C1215.88 403.836 1213.81 404.336 1212.15 405.599C1210.51 406.839 1208.93 408.712 1208.74 410.823C1208.56 412.499 1209.49 413.871 1211.02 414.328C1211.13 414.458 1211.26 414.567 1211.43 414.676C1212.23 415.198 1213.38 415.22 1214.28 415.177C1215.99 415.09 1217.82 414.437 1219.2 413.435C1220.67 412.347 1222.11 411.237 1222.72 409.43C1223.13 408.211 1223.08 407.057 1222.29 406.012V406.034Z" fill="#E97A7C"/>
</g>
</g>
<g style="mix-blend-mode:multiply" opacity="0.59">
<path d="M1258.99 353.508C1219.78 353.508 1188 381.85 1188 416.809C1188 451.769 1219.78 480.111 1258.99 480.111C1298.2 480.111 1329.98 451.769 1329.98 416.809C1329.98 381.85 1298.2 353.508 1258.99 353.508ZM1259.4 444.085C1225.57 444.085 1198.14 425.342 1198.14 402.246C1198.14 379.151 1225.57 360.408 1259.4 360.408C1293.23 360.408 1320.66 379.151 1320.66 402.246C1320.66 425.342 1293.23 444.085 1259.4 444.085Z" fill="#A1201C"/>
</g>
</g>
<path d="M265.373 70.7383C264.972 60.9239 258.204 51.6443 248.974 48.2748C239.745 44.9053 226.636 47.2586 219.975 54.479C209.407 25.7044 177.465 6.47671 147.074 10.5415C116.683 14.6331 90.4928 44.3169 87.8711 74.8566C67.994 68.7593 42.6327 76.9692 30.3266 93.7098C18.0205 110.45 19.1174 136.765 32.3063 153.505C12.6968 152.65 -7.15353 159.603 -21.9476 172.466C-31.204 180.515 -38.4004 190.624 -46.6133 199.743C-54.8263 208.862 -64.5375 217.339 -76.4155 220.468C-88.2936 223.624 -102.606 220.067 -109 209.584C-103.061 248.333 -60.8456 256.329 -38.3468 245.044C-22.7502 237.209 1.54102 219.131 18.7428 216.162C37.095 213.007 54.2433 230.63 69.3317 241.568C84.42 252.505 102.157 263.79 120.322 259.645C136.052 256.062 147.395 241.675 162.885 237.182C183.136 231.299 203.575 243.52 223.024 251.649C249.884 262.908 280.649 266.705 308.311 257.64C335.973 248.574 359.676 225.335 364.999 196.721C370.296 168.107 354.138 135.775 326.556 126.496C331.238 109.755 326.636 92.3727 313.849 80.5527C301.088 68.7326 281.532 64.8282 265.186 70.7917L265.347 70.658L265.373 70.7383Z" fill="#BB1605" stroke="#DFB850" stroke-linecap="round" stroke-linejoin="round"/>
<path d="M87.9517 74.1346C89.1555 83.1735 91.269 89.2974 95.7366 97.2399C100.204 105.182 107.106 112.002 115.64 115.184C124.201 118.366 134.447 117.457 141.617 111.814C148.76 106.145 151.97 95.5284 148.038 87.2918C144.105 79.0552 132.762 74.9636 124.977 79.6702C120.376 82.4514 117.513 88.7358 120.162 93.4425" stroke="#DFB850" stroke-linecap="round" stroke-linejoin="round"/>
<path d="M137.765 172.787C149.429 183.056 164.945 189.019 180.488 188.484C196.005 187.976 211.334 180.783 221.152 168.722C230.943 156.661 234.822 139.84 230.649 124.891C228.91 118.687 225.807 112.75 221.045 108.391C210.023 98.2293 190.574 99.3257 180.756 110.664C174.549 117.831 172.489 128.903 177.224 137.112C181.96 145.322 194.052 148.879 201.703 143.263" stroke="#DFB850" stroke-linecap="round" stroke-linejoin="round"/>
<path d="M265.373 70.7383C256.492 73.4393 249.188 78.6808 245.657 87.2383C242.099 95.7958 244.025 106.787 251.302 112.536C255.207 115.612 260.264 117.029 265.24 117.163C269.279 117.27 273.426 116.548 276.904 114.489C280.381 112.403 283.083 108.846 283.538 104.835C283.993 100.823 281.826 96.4644 278.108 94.8866C274.389 93.3088 269.413 95.154 268.075 98.9781" stroke="#DFB850" stroke-linecap="round" stroke-linejoin="round"/>
<path d="M326.556 126.549C316.524 124.49 305.957 126.095 296.701 130.48C287.444 134.866 279.9 143.237 277.573 153.211C275.245 163.186 278.723 174.552 286.909 180.729C295.096 186.907 307.749 186.773 315.16 179.713C318.103 176.905 320.216 173.027 320.296 168.963C320.377 164.898 318.236 160.699 314.571 158.907C310.906 157.116 305.904 158.266 303.817 161.796" stroke="#DFB850" stroke-linecap="round" stroke-linejoin="round"/>
<path d="M31.6909 152.73C37.4694 156.581 41.2683 158.48 47.8226 160.779C54.377 163.106 61.5734 164.015 68.315 162.277C75.0566 160.539 81.2096 155.939 83.8314 149.494C86.4264 143.049 84.9015 134.893 79.4975 130.534C74.0935 126.175 65.0244 126.844 60.9581 132.486C58.6038 135.749 58.2026 140.509 60.5568 143.798" stroke="#DFB850" stroke-linecap="round" stroke-linejoin="round"/>
<path d="M107.507 57.7416C112.858 41.4823 126.181 28.0577 142.392 22.6023C158.604 17.1469 177.331 19.7677 191.43 29.4751" stroke="#DFB850" stroke-linecap="round" stroke-linejoin="round"/>
<path d="M70.803 83.4944C59.5402 82.5851 47.9564 87.1046 40.2785 95.3947C32.6006 103.685 29.0157 115.612 30.8349 126.763" stroke="#DFB850" stroke-linecap="round" stroke-linejoin="round"/>
<path d="M-70.9312 228.437C-58.4378 231.325 -45.7036 224.319 -36.367 215.521C-27.0304 206.722 -19.5933 195.919 -9.26682 188.297C2.77177 179.419 18.0207 175.568 32.9753 175.782C47.9299 175.996 62.6169 180.087 76.3677 185.917C85.303 189.688 95.79 194.154 104.137 189.206" stroke="#DFB850" stroke-linecap="round" stroke-linejoin="round"/>
<path d="M-32.0063 227.207C-15.5269 223.41 -7.09984 204.583 7.93502 196.881C18.7698 191.319 32.039 192.228 43.4087 196.641C54.7785 201.053 64.5967 208.568 74.1205 216.163" stroke="#DFB850" stroke-linecap="round" stroke-linejoin="round"/>
<path d="M344.106 163.159C351.864 178.536 350.875 197.603 342.956 212.9C335.037 228.197 320.725 239.722 304.593 245.739C288.461 251.756 270.644 252.559 253.656 249.644" stroke="#DFB850" stroke-linecap="round" stroke-linejoin="round"/>
<path d="M254.672 90.9555C254.672 90.9555 263.073 75.1241 283.592 75.1241C304.111 75.1241 311.602 92.1054 311.602 92.1054" stroke="#DFB850" stroke-linecap="round" stroke-linejoin="round"/>
<path d="M219.44 147.702C217.246 161.207 205.742 171.904 192.768 176.236C179.793 180.569 165.266 179.659 152.184 173.616" stroke="#DFB850" stroke-linecap="round" stroke-linejoin="round"/>
<path d="M834.094 130.939C806.344 103.474 761.379 95.1662 725.663 110.926C707.677 118.862 692.517 131.995 675.33 141.559C658.144 151.123 635.961 156.719 618.003 148.697C627.196 133.765 626.425 110.669 613.977 98.3352C601.53 86.0018 577.063 84.9454 562.217 94.2526C566.385 63.5618 543.774 31.3294 514.825 20.3378C485.876 9.34621 452.101 16.141 426.321 33.2993C415.815 40.2654 407.964 49.4012 402.168 60.5927C396.373 71.7841 394.574 86.8868 399.799 98.3637C390.463 95.052 377.273 97.5929 370.25 104.559C363.227 111.525 362.798 123.43 366.024 132.766C339.902 141.788 319.26 165.198 313.607 192.235C307.955 219.271 317.49 248.991 337.817 267.72C358.145 286.448 388.521 293.5 415.015 285.62C421.411 301.066 436.799 313.313 453.415 311.229C470.002 309.145 487.731 294.185 490.129 277.626C527.415 298.268 575.664 295.727 614.891 279.082C654.118 262.41 686.493 232.747 713.987 200.2C729.261 182.1 741.908 161.915 760.951 147.812C779.993 133.708 811.74 123.173 834.123 130.939H834.094Z" fill="#BB1605" stroke="#DFB850" stroke-linecap="round" stroke-linejoin="round"/>
<path d="M562.217 94.2524C561.018 106.386 554.737 120.347 543.974 129.625C534.753 137.562 523.333 143.301 511.199 144.271C499.066 145.27 486.304 141.131 478.139 132.081C469.974 123.059 467.29 109.012 472.8 98.1636C476.055 91.7685 482.421 86.6296 489.587 86.3156C496.753 86.0301 504.119 91.6544 504.376 98.8203" stroke="#DFB850" stroke-linecap="round" stroke-linejoin="round"/>
<path d="M366.025 132.766C376.331 128.569 387.808 127.284 399.257 129.911C410.705 132.537 421.126 138.847 429.462 147.098C439.055 156.605 446.135 169.138 447.106 182.585C448.076 196.06 442.252 210.306 430.861 217.587C419.47 224.867 402.768 223.553 393.975 213.304C389.578 208.194 387.437 200.6 390.378 194.519" stroke="#DFB850" stroke-linecap="round" stroke-linejoin="round"/>
<path d="M476.226 215.331C477.397 198.23 484.734 181.357 497.381 169.795C510.057 158.232 528.158 152.465 544.973 155.891C561.789 159.317 576.578 172.393 580.832 189.008C585.086 205.624 577.777 224.895 562.903 233.46C556.479 237.172 548.742 238.885 541.49 237.257C534.267 235.63 527.701 230.405 525.388 223.354C523.076 216.302 525.56 207.708 531.784 203.683" stroke="#DFB850" stroke-linecap="round" stroke-linejoin="round"/>
<path d="M618.888 148.211C615.119 153.236 610.266 157.575 604.47 159.974C598.675 162.372 591.88 162.657 586.17 160.059C580.46 157.461 576.121 151.694 575.892 145.413C575.664 139.132 580.061 132.794 586.199 131.453C592.337 130.111 599.303 134.593 600.017 140.845" stroke="#DFB850" stroke-linecap="round" stroke-linejoin="round"/>
<path d="M744.906 119.176C729.575 122.031 716.042 130.853 703.766 140.503C691.518 150.152 679.956 160.887 666.423 168.595C652.891 176.304 636.646 180.872 621.572 176.846" stroke="#DFB850" stroke-linecap="round" stroke-linejoin="round"/>
<path d="M759.095 134.193C741.337 143.158 727.576 158.375 715.329 174.049C703.109 189.751 691.832 206.395 677.215 219.871C662.569 233.346 643.726 243.595 623.827 243.11" stroke="#DFB850" stroke-linecap="round" stroke-linejoin="round"/>
<path d="M704.08 157.433C692.146 172.906 678.842 187.667 662.626 198.601C646.41 209.536 626.939 216.445 607.439 215.074" stroke="#DFB850" stroke-linecap="round" stroke-linejoin="round"/>
<path d="M351.664 164.656C334.963 177.817 327.14 201.256 332.593 221.812C338.046 242.368 356.461 258.841 377.502 261.981" stroke="#DFB850" stroke-linecap="round" stroke-linejoin="round"/>
<path d="M522.59 167.653C532.326 164.57 543.317 165.198 552.31 170.08C561.275 174.962 567.956 184.155 569.04 194.319C570.154 204.454 565.329 215.217 556.65 220.556" stroke="#DFB850" stroke-linecap="round" stroke-linejoin="round"/>
<path d="M478.909 282.394C474.97 291.787 466.091 298.924 456.07 300.751C446.049 302.579 435.229 299.038 428.234 291.644" stroke="#DFB850" stroke-linecap="round" stroke-linejoin="round"/>
<path d="M498.609 29.2166C513.084 33.3562 526.416 42.0353 535.209 54.2831C544.003 66.5308 547.943 82.3758 544.888 97.136C541.804 111.896 531.441 125.172 517.423 130.739" stroke="#DFB850" stroke-linecap="round" stroke-linejoin="round"/>
<path d="M468.546 30.1016C454.328 31.2721 440.51 37.0677 429.719 46.4034C418.927 55.7391 411.219 68.5864 408.021 82.49" stroke="#DFB850" stroke-linecap="round" stroke-linejoin="round"/>
<g clip-path="url(#clip2_4008_2)">
<path d="M734.323 94.5291C721.569 89.5024 706.131 92.0157 695.618 100.826C685.105 109.637 679.959 124.358 682.698 137.781C674.814 134.411 664.882 136.566 659.099 142.89C653.317 149.215 652.045 159.269 656.084 166.809C639.982 167.748 622.608 180.397 618.043 195.864C613.478 211.331 618.541 228.924 629.801 240.442C641.061 251.959 657.937 257.428 674.011 255.853C688.619 254.417 702.535 247.65 717.198 247.788C742.844 248.037 765.668 269.221 791.149 266.266C810.238 264.056 825.039 248.866 842.939 241.85C870.743 230.941 901.95 240.856 929.921 251.351C957.891 261.847 988.212 273.088 1016.85 264.636C1061.03 251.572 1079.18 184.292 1128.59 178.464C1107.01 171.891 1083.16 172.94 1062.25 181.364C1050.96 185.921 1040.5 192.522 1028.77 195.726C1017.04 198.93 1003.04 197.936 994.714 189.07C985.999 179.79 986.331 165.593 983.509 153.192C979.166 134.08 965.803 117.232 948.152 108.643C930.529 100.053 908.977 99.8872 891.216 108.228C889.943 85.4147 878.047 60.1707 860.12 45.9468C842.192 31.7229 818.067 25.5914 795.492 29.541C772.944 33.4905 752.333 47.4106 740.299 66.8546C735.568 74.5328 733.687 86.3262 734.268 94.5291H734.323Z" fill="#BB1605" stroke="#DFB850" stroke-linecap="round" stroke-linejoin="round"/>
<path d="M734.212 92.3748C736.176 103.947 742.899 114.636 752.471 121.458C762.044 128.28 774.355 131.125 785.947 129.247C794.219 127.893 802.298 124.027 807.637 117.564C812.977 111.101 815.273 101.903 812.451 94.0044C809.629 86.1053 801.302 80.2224 792.974 81.2443C784.647 82.2662 777.73 90.911 779.556 99.0863" stroke="#DFB850" stroke-linecap="round" stroke-linejoin="round"/>
<path d="M892.35 107.731C878.987 110.769 869.526 126.043 871.767 139.521C874.007 152.999 887.149 163.633 900.843 163.577C906.045 163.577 911.439 162.058 915.119 158.385C918.799 154.739 920.292 148.635 917.692 144.161C915.119 139.659 908.092 138.085 904.44 141.758" stroke="#DFB850" stroke-linecap="round" stroke-linejoin="round"/>
<path d="M743.867 227.875C730.007 233.316 713.85 233.095 700.515 226.522C687.18 219.948 676.999 206.912 674.675 192.218C672.351 177.553 678.244 161.644 690.057 152.612C701.87 143.581 719.272 142.172 732.026 149.85C738.03 153.469 743.065 159.131 744.614 165.953C746.191 172.774 743.729 180.674 737.836 184.457C731.943 188.241 722.869 186.612 719.549 180.425" stroke="#DFB850" stroke-linecap="round" stroke-linejoin="round"/>
<path d="M816.518 240.884C799.504 254.666 774.134 257.207 754.74 247.043" stroke="#DFB850" stroke-linecap="round" stroke-linejoin="round"/>
<path d="M635.666 186.474C628.805 197.438 627.864 211.856 633.204 223.649C638.543 235.443 650.025 244.253 662.806 246.352" stroke="#DFB850" stroke-linecap="round" stroke-linejoin="round"/>
<path d="M773.608 55.7517C789.821 43.5163 812.036 39.6496 831.43 45.643C850.851 51.664 866.953 67.407 873.371 86.6576" stroke="#DFB850" stroke-linecap="round" stroke-linejoin="round"/>
<path d="M895.532 124.413C903.361 115.63 915.479 110.824 927.209 111.819C938.967 112.813 950.061 119.607 956.314 129.578" stroke="#DFB850" stroke-linecap="round" stroke-linejoin="round"/>
</g>
<path d="M1575.37 2.97551C1576.02 23.7316 1554.72 43.6169 1534.36 47.8987C1514 52.1806 1492.95 46.5198 1473.25 39.843C1453.54 33.1662 1433.69 25.292 1412.9 25.1468C1392.1 24.9654 1368.4 34.5451 1360.26 53.6683C1341.53 20.1755 1296.53 -3.22955 1258.61 2.75779C1220.69 8.74513 1193.35 40.9316 1185.97 78.5249C1175.39 72.211 1156.13 75.2591 1146.06 82.3713C1135.99 89.4835 1130.28 102.039 1130.68 114.34C1111.56 99.0633 1081.53 95.616 1058.52 103.962C1035.5 112.308 1017.51 133.137 1012.64 157.086C1007.77 181.035 1016.2 207.235 1034.16 223.854C1017.11 232.635 997.368 228.136 979.991 220.044C962.613 211.952 946.836 200.413 928.658 194.28C910.481 188.184 888.087 188.837 874.854 202.699C893.649 194.788 915.716 202.699 931.967 215C948.217 227.301 960.977 243.739 977.01 256.331C1011.8 283.655 1077.75 284.816 1109.38 267.689C1114.28 286.231 1135.51 298.678 1154.13 293.997C1170.31 289.932 1182.45 275.345 1198.81 272.079C1217.64 268.305 1235.45 280.244 1252.94 288.118C1276.06 298.532 1302.53 302.234 1327.21 296.319C1351.9 290.404 1374.36 274.329 1386.03 251.868C1394.25 236.046 1397.92 216.524 1412.46 206.182C1422.93 198.743 1436.71 197.981 1448.2 192.248C1467.54 182.559 1477.64 157.594 1470.41 137.237C1465.21 122.541 1452.31 107.337 1459.58 93.5477C1462.7 87.6692 1468.88 84.0768 1475.03 81.5004C1490.11 75.1502 1506.62 73.0818 1522.58 69.562C1538.57 66.0422 1554.86 60.5991 1566.53 49.1688C1578.2 37.7021 1583.18 17.3088 1575.29 3.0118L1575.37 2.97551Z" fill="#BB1605" stroke="#DFB850" stroke-linecap="round" stroke-linejoin="round"/>
<path d="M1131.01 114.703C1142.82 123.23 1147.66 140.249 1142.06 153.711C1136.46 167.174 1120.97 175.738 1106.58 173.379C1097.02 171.819 1087.93 165.214 1085.38 155.852C1082.84 146.49 1088.73 135.169 1098.25 133.5" stroke="#DFB850" stroke-linecap="round" stroke-linejoin="round"/>
<path d="M1186.08 78.162C1182.41 89.7738 1184.74 103.091 1192.08 112.816C1199.43 122.541 1211.6 128.419 1223.82 128.129C1232.83 127.911 1241.85 124.319 1247.89 117.642C1253.92 111.002 1256.65 101.204 1254.07 92.6042C1251.48 84.0042 1243.34 77.1097 1234.33 76.7831C1225.35 76.4565 1216.4 83.3148 1215.09 92.205" stroke="#DFB850" stroke-linecap="round" stroke-linejoin="round"/>
<path d="M1513.6 60.0912C1500.51 68.2557 1483.75 67.3485 1468.74 63.9376C1453.72 60.5266 1439.04 54.7933 1423.66 54.1764C1408.21 53.5595 1392.79 58.1679 1379.6 66.2236C1362.15 76.8557 1348.19 94.1646 1344.44 114.231C1340.7 134.298 1348.48 156.796 1365.56 168.045C1382.65 179.294 1408.39 176.572 1420.75 160.316C1426.64 152.587 1429.26 142.136 1426.49 132.846C1423.73 123.557 1415.08 115.937 1405.37 115.501C1395.67 115.03 1385.89 122.65 1385.01 132.302" stroke="#DFB850" stroke-linecap="round" stroke-linejoin="round"/>
<path d="M1227.16 181.507C1227.49 187.349 1233.13 191.776 1238.91 192.684C1248.61 194.244 1258.72 187.349 1261.59 177.987C1264.5 168.589 1260.5 157.776 1252.76 151.716C1245.01 145.692 1234.07 144.349 1224.73 147.434C1215.38 150.518 1207.68 157.703 1203.06 166.376C1193.39 184.374 1197.79 208.722 1213.17 222.185C1224.65 232.273 1240.47 235.974 1255.74 236.663C1268.9 237.244 1282.46 235.72 1294.35 230.023C1306.23 224.326 1316.3 213.984 1319.58 201.211" stroke="#DFB850" stroke-linecap="round" stroke-linejoin="round"/>
<path d="M1109.34 268.088C1106.47 257.238 1107.27 245.263 1112.43 235.321C1117.59 225.342 1127.37 217.649 1138.5 215.907C1149.58 214.165 1161.73 218.81 1168.02 228.1C1171.94 233.869 1173.5 241.381 1171.47 248.057C1169.43 254.734 1163.54 260.286 1156.64 261.193C1149.73 262.137 1142.24 257.891 1140.1 251.251" stroke="#DFB850" stroke-linecap="round" stroke-linejoin="round"/>
<path d="M1370.8 239.058C1361.35 257.782 1344.22 272.478 1324.27 279.046C1304.31 285.578 1281.77 283.909 1263.05 274.438" stroke="#DFB850" stroke-linecap="round" stroke-linejoin="round"/>
<path d="M1085.6 113.614C1066.84 115.9 1049.68 128.383 1041.76 145.511C1033.83 162.638 1035.47 183.793 1045.9 199.505" stroke="#DFB850" stroke-linecap="round" stroke-linejoin="round"/>
<path d="M1070.84 231.583C1046.34 248.493 1013.15 252.049 985.589 240.764" stroke="#DFB850" stroke-linecap="round" stroke-linejoin="round"/>
<path d="M1081.75 245.227C1066.22 253.972 1048.48 258.798 1030.67 259.089" stroke="#DFB850" stroke-linecap="round" stroke-linejoin="round"/>
<path d="M1222.22 44.5603C1233.82 26.5983 1255.41 15.5671 1276.79 16.7283C1298.16 17.8894 1318.45 31.0979 1328.08 50.1848" stroke="#DFB850" stroke-linecap="round" stroke-linejoin="round"/>
<defs>
<clipPath id="clip0_4008_2">
<rect width="146" height="487" fill="white" transform="translate(86 180)"/>
</clipPath>
<clipPath id="clip1_4008_2">
<rect width="142" height="475" fill="white" transform="translate(1188 151)"/>
</clipPath>
<clipPath id="clip2_4008_2">
<rect width="515" height="242" fill="white" transform="translate(615 27)"/>
</clipPath>
</defs>
</svg>
