<svg width="393" height="343" viewBox="0 0 393 343" fill="none" xmlns="http://www.w3.org/2000/svg">
<g clip-path="url(#clip0_4013_4)">
<path d="M69.0157 342.908C68.7987 342.908 68.623 342.734 68.623 342.52V120.388C68.623 120.174 68.7987 120 69.0157 120C69.2327 120 69.4083 120.174 69.4083 120.388V342.52C69.4083 342.734 69.2327 342.908 69.0157 342.908Z" fill="#D6812C"/>
<path d="M67.3624 343C67.1454 343 66.9801 342.836 66.9698 342.622C66.5358 322.827 68.4474 320.119 68.5197 320.006C68.654 319.832 68.902 319.802 69.0673 319.935C69.2327 320.057 69.274 320.302 69.15 320.466C69.057 320.599 67.3314 323.501 67.7447 342.601C67.7447 342.816 67.5794 342.99 67.3624 343Z" fill="#D6812C"/>
<path d="M70.7721 343C70.5551 343 70.3795 342.816 70.3898 342.601C70.8134 323.419 69.0569 320.578 68.9845 320.466C68.8709 320.292 68.9122 320.047 69.0775 319.935C69.2532 319.812 69.4805 319.843 69.6148 320.016C69.6975 320.118 71.5987 322.837 71.1648 342.632C71.1648 342.847 70.9891 343.01 70.7721 343.01V343Z" fill="#D6812C"/>
<path d="M72.4149 342.479C72.1979 342.479 72.0223 342.295 72.0326 342.08C72.4562 323.675 69.0567 320.384 69.0154 320.354C68.8604 320.21 68.8398 319.965 68.9844 319.812C69.1291 319.648 69.3667 319.638 69.5321 319.771C69.687 319.904 73.2415 323.143 72.8179 342.101C72.8179 342.315 72.6422 342.479 72.4252 342.479H72.4149Z" fill="#D6812C"/>
<path d="M65.5748 342.479C65.3578 342.479 65.1924 342.315 65.1821 342.101C64.7481 323.133 68.3129 319.894 68.4679 319.771C68.6333 319.628 68.8812 319.648 69.0259 319.812C69.1602 319.975 69.1499 320.21 68.9846 320.354C68.9329 320.405 65.5541 323.736 65.9777 342.08C65.9777 342.295 65.8124 342.469 65.5954 342.479H65.5748Z" fill="#D6812C"/>
<path d="M70.7412 319.516C70.7412 320.435 69.9869 321.192 69.0466 321.192C68.1063 321.192 67.3521 320.446 67.3521 319.516C67.3521 318.586 68.1063 317.84 69.0466 317.84C69.9869 317.84 70.7412 318.586 70.7412 319.516Z" fill="#E6322C"/>
<g style="mix-blend-mode:screen">
<path d="M69.4601 318.953C69.4601 319.342 69.1398 319.659 68.7471 319.659C68.3545 319.659 68.0342 319.342 68.0342 318.953C68.0342 318.565 68.3545 318.248 68.7471 318.248C69.1398 318.248 69.4601 318.565 69.4601 318.953Z" fill="#E6322C"/>
</g>
<path d="M69.7593 287.59C69.5424 287.59 69.3667 287.416 69.3667 287.201V274.601C69.3667 274.386 69.5424 274.212 69.7593 274.212C69.9763 274.212 70.152 274.386 70.152 274.601V287.201C70.152 287.416 69.9763 287.59 69.7593 287.59Z" fill="#E1E31A"/>
<path d="M75.814 287.59C75.597 287.59 75.4214 287.416 75.4214 287.201V274.601C75.4214 274.386 75.597 274.212 75.814 274.212C76.031 274.212 76.2067 274.386 76.2067 274.601V287.201C76.2067 287.416 76.031 287.59 75.814 287.59Z" fill="#E1E31A"/>
<path d="M66.7213 287.59C66.5043 287.59 66.3286 287.416 66.3286 287.201V274.601C66.3286 274.386 66.5043 274.212 66.7213 274.212C66.9382 274.212 67.1139 274.386 67.1139 274.601V287.201C67.1139 287.416 66.9382 287.59 66.7213 287.59Z" fill="#E1E31A"/>
<path d="M63.6939 287.59C63.4769 287.59 63.3013 287.416 63.3013 287.201V274.601C63.3013 274.386 63.4769 274.212 63.6939 274.212C63.9109 274.212 64.0866 274.386 64.0866 274.601V287.201C64.0866 287.416 63.9109 287.59 63.6939 287.59Z" fill="#E1E31A"/>
<path d="M72.7867 287.59C72.5697 287.59 72.394 287.416 72.394 287.201V274.601C72.394 274.386 72.5697 274.212 72.7867 274.212C73.0037 274.212 73.1793 274.386 73.1793 274.601V287.201C73.1793 287.416 73.0037 287.59 72.7867 287.59Z" fill="#E1E31A"/>
<path d="M60.6666 287.59C60.4496 287.59 60.2739 287.416 60.2739 287.201V274.601C60.2739 274.386 60.4496 274.212 60.6666 274.212C60.8836 274.212 61.0592 274.386 61.0592 274.601V287.201C61.0592 287.416 60.8836 287.59 60.6666 287.59Z" fill="#E1E31A"/>
<path d="M77.3228 287.59C77.1058 287.59 76.9302 287.416 76.9302 287.201V274.601C76.9302 274.386 77.1058 274.212 77.3228 274.212C77.5398 274.212 77.7155 274.386 77.7155 274.601V287.201C77.7155 287.416 77.5398 287.59 77.3228 287.59Z" fill="#E1E31A"/>
<path d="M68.2403 287.59C68.0233 287.59 67.8477 287.416 67.8477 287.201V274.601C67.8477 274.386 68.0233 274.212 68.2403 274.212C68.4573 274.212 68.6329 274.386 68.6329 274.601V287.201C68.6329 287.416 68.4573 287.59 68.2403 287.59Z" fill="#E1E31A"/>
<path d="M74.2955 287.59C74.0785 287.59 73.9028 287.416 73.9028 287.201V274.601C73.9028 274.386 74.0785 274.212 74.2955 274.212C74.5125 274.212 74.6881 274.386 74.6881 274.601V287.201C74.6881 287.416 74.5125 287.59 74.2955 287.59Z" fill="#E1E31A"/>
<path d="M65.213 287.59C64.996 287.59 64.8203 287.416 64.8203 287.201V274.601C64.8203 274.386 64.996 274.212 65.213 274.212C65.4299 274.212 65.6056 274.386 65.6056 274.601V287.201C65.6056 287.416 65.4299 287.59 65.213 287.59Z" fill="#E1E31A"/>
<path d="M62.1851 287.59C61.9681 287.59 61.7925 287.416 61.7925 287.201V274.601C61.7925 274.386 61.9681 274.212 62.1851 274.212C62.4021 274.212 62.5778 274.386 62.5778 274.601V287.201C62.5778 287.416 62.4021 287.59 62.1851 287.59Z" fill="#E1E31A"/>
<path d="M71.2676 287.59C71.0507 287.59 70.875 287.416 70.875 287.201V274.601C70.875 274.386 71.0507 274.212 71.2676 274.212C71.4846 274.212 71.6603 274.386 71.6603 274.601V287.201C71.6603 287.416 71.4846 287.59 71.2676 287.59Z" fill="#E1E31A"/>
<path d="M59.1578 287.59C58.9408 287.59 58.7651 287.416 58.7651 287.201V274.601C58.7651 274.386 58.9408 274.212 59.1578 274.212C59.3748 274.212 59.5504 274.386 59.5504 274.601V287.201C59.5504 287.416 59.3748 287.59 59.1578 287.59Z" fill="#E1E31A"/>
<path d="M78.8419 287.59C78.6249 287.59 78.4492 287.416 78.4492 287.201V274.601C78.4492 274.386 78.6249 274.212 78.8419 274.212C79.0589 274.212 79.2345 274.386 79.2345 274.601V287.201C79.2345 287.416 79.0589 287.59 78.8419 287.59Z" fill="#E1E31A"/>
<path d="M80.0095 210.913H57.98V275.429H80.0095V210.913Z" fill="#F1C319"/>
<g style="mix-blend-mode:multiply">
<path d="M80.0093 210.913H74.2437V275.429H80.0093V210.913Z" fill="#F1C319"/>
</g>
<g style="mix-blend-mode:multiply">
<path d="M61.2243 210.913H59.0957V275.429H61.2243V210.913Z" fill="#F1C319"/>
</g>
<g style="mix-blend-mode:screen">
<path d="M66.0807 210.913H63.9521V275.429H66.0807V210.913Z" fill="#FFF200"/>
</g>
<path d="M79.534 277.554H58.4551C58.2382 277.554 58.0625 277.381 58.0625 277.166C58.0625 276.951 58.2382 276.778 58.4551 276.778H79.534C79.751 276.778 79.9267 276.951 79.9267 277.166C79.9267 277.381 79.751 277.554 79.534 277.554Z" fill="#D6812C"/>
<path d="M65.1411 293.241C65.1411 292.883 65.2754 292.536 65.5544 292.26C65.8231 291.994 66.1744 291.851 66.5464 291.851C66.9184 291.851 67.2697 291.994 67.5383 292.26L75.2776 299.915C75.8252 300.456 75.8252 301.335 75.2776 301.877C74.7299 302.418 73.8413 302.418 73.2937 301.877L65.5544 294.222C65.2858 293.957 65.1411 293.599 65.1411 293.241ZM65.8231 292.536C65.4304 292.924 65.4304 293.558 65.8231 293.957L73.5623 301.611C73.955 301.999 74.5956 301.999 74.9986 301.611C75.3912 301.223 75.3912 300.589 74.9986 300.19L67.2593 292.536C67.0733 292.352 66.815 292.24 66.5464 292.24C66.2777 292.24 66.0194 292.342 65.8334 292.536H65.8231Z" fill="#E6322C"/>
<path d="M62.2788 296.072C62.2788 295.714 62.4131 295.367 62.6921 295.091C63.2398 294.549 64.1284 294.549 64.676 295.091L72.4153 302.745C72.9629 303.287 72.9629 304.166 72.4153 304.707C71.8676 305.249 70.979 305.249 70.4314 304.707L62.6921 297.053C62.4235 296.787 62.2788 296.43 62.2788 296.072ZM72.4359 303.726C72.4359 303.471 72.3326 303.215 72.1363 303.021L64.397 295.367C64.0044 294.979 63.3637 294.979 62.9608 295.367C62.5681 295.755 62.5681 296.399 62.9608 296.787L70.7 304.442C71.0927 304.83 71.7333 304.83 72.1363 304.442C72.3326 304.248 72.4359 303.992 72.4359 303.737V303.726Z" fill="#E6322C"/>
<path d="M65.1411 303.726C65.1411 303.369 65.2754 303.021 65.5544 302.745L73.2937 295.091C73.8413 294.549 74.7299 294.549 75.2776 295.091C75.8252 295.633 75.8252 296.511 75.2776 297.053L67.5383 304.707C67.2697 304.973 66.9184 305.116 66.5464 305.116C66.1744 305.116 65.8231 304.973 65.5544 304.707C65.2858 304.442 65.1411 304.084 65.1411 303.726ZM75.2982 296.072C75.2982 295.816 75.1949 295.561 74.9986 295.367C74.6059 294.979 73.9653 294.979 73.5623 295.367L65.8231 303.021C65.4304 303.41 65.4304 304.043 65.8231 304.442C66.0091 304.626 66.2674 304.738 66.536 304.738C66.8047 304.738 67.063 304.636 67.249 304.442L74.9882 296.787C75.1846 296.593 75.2879 296.338 75.2879 296.082L75.2982 296.072Z" fill="#E6322C"/>
<path d="M62.2788 300.896C62.2788 300.538 62.4131 300.191 62.6921 299.915L70.4314 292.26C70.979 291.719 71.8676 291.719 72.4153 292.26C72.9629 292.802 72.9629 293.681 72.4153 294.222L64.676 301.877C64.1284 302.419 63.2398 302.419 62.6921 301.877C62.4235 301.611 62.2788 301.254 62.2788 300.896ZM72.4359 293.241C72.4359 292.986 72.3326 292.73 72.1363 292.536C71.7436 292.148 71.103 292.148 70.7 292.536L62.9608 300.191C62.5681 300.579 62.5681 301.213 62.9608 301.611C63.3534 302 63.9941 302 64.397 301.611L72.1363 293.957C72.3326 293.763 72.4359 293.507 72.4359 293.252V293.241Z" fill="#E6322C"/>
<path d="M74.1201 298.484C74.1201 297.452 74.9674 296.603 76.0213 296.603C77.0753 296.603 77.9226 297.452 77.9226 298.484C77.9226 299.516 77.0753 300.364 76.0213 300.364C74.9674 300.364 74.1201 299.526 74.1201 298.484ZM77.5299 298.484C77.5299 297.656 76.848 296.992 76.0213 296.992C75.1947 296.992 74.5128 297.666 74.5128 298.484C74.5128 299.301 75.1947 299.976 76.0213 299.976C76.848 299.976 77.5299 299.301 77.5299 298.484Z" fill="#E6322C"/>
<path d="M60.0674 298.484C60.0674 297.452 60.9147 296.603 61.9686 296.603C63.0226 296.603 63.8698 297.452 63.8698 298.484C63.8698 299.516 63.0226 300.364 61.9686 300.364C60.9147 300.364 60.0674 299.526 60.0674 298.484ZM63.4772 298.484C63.4772 297.656 62.7952 296.992 61.9686 296.992C61.142 296.992 60.46 297.666 60.46 298.484C60.46 299.301 61.142 299.976 61.9686 299.976C62.7952 299.976 63.4772 299.301 63.4772 298.484Z" fill="#E6322C"/>
<path d="M68.9948 274.509C87.7697 274.509 102.99 261.203 102.99 244.79C102.99 228.378 87.7697 215.072 68.9948 215.072C50.22 215.072 35 228.378 35 244.79C35 261.203 50.22 274.509 68.9948 274.509Z" fill="#E6322C"/>
<path d="M68.7264 274.213L68.6851 273.436C81.0534 272.751 91.0452 267.897 96.8212 259.742C101.626 252.956 102.897 244.699 100.386 236.492C94.734 217.954 69.9767 216.053 69.7287 216.043L69.7803 215.266C70.0387 215.287 95.323 217.218 101.14 236.268C103.713 244.709 102.411 253.212 97.4618 260.191C91.5515 268.541 81.3427 273.518 68.7264 274.213Z" fill="#EFC45D"/>
<path d="M68.8091 274.212L68.7471 273.436C76.4967 272.863 82.9856 269.379 87.4907 263.359C92.8121 256.247 94.6617 246.191 92.4401 236.462C88.2037 217.954 69.7183 216.053 69.5324 216.033L69.6047 215.256C69.801 215.277 88.8443 217.218 93.2048 236.288C95.478 246.231 93.5767 256.522 88.121 263.819C83.4713 270.033 76.7963 273.62 68.8091 274.212Z" fill="#EFC45D"/>
<path d="M68.8917 274.213L68.8091 273.446C72.6012 273.027 75.9077 271.034 78.6459 267.519C84.0189 260.6 86.3128 248.408 84.4942 236.452C83.0167 226.784 78.9765 221.756 75.8354 219.232C72.4462 216.503 69.3567 216.053 69.3257 216.053L69.429 215.287C69.5634 215.307 72.7252 215.767 76.29 218.598C79.5552 221.204 83.7503 226.396 85.2692 236.339C87.1498 248.684 84.8559 260.815 79.2659 267.999C76.4347 271.637 72.8492 273.794 68.8917 274.233V274.213Z" fill="#EFC45D"/>
<path d="M69.0052 274.202L68.8398 273.446C74.4505 272.21 77.9844 255.255 76.5481 236.411C75.1428 218.016 69.1395 216.043 69.0775 216.023L69.2842 215.277C69.5528 215.348 75.8661 217.28 77.3231 236.349C78.625 253.385 75.8145 272.7 69.0052 274.202Z" fill="#EFC45D"/>
<path d="M69.3878 215.655H68.6025V273.824H69.3878V215.655Z" fill="#EFC45D"/>
<path d="M68.9849 274.202C62.1756 272.71 59.3651 253.385 60.667 236.349C62.1239 217.28 68.4372 215.348 68.7059 215.277L68.9126 216.023C68.8506 216.043 62.8472 218.005 61.442 236.411C60.0057 255.255 63.5395 272.21 69.1502 273.446L68.9849 274.202Z" fill="#EFC45D"/>
<path d="M69.0982 274.213C65.1407 273.773 61.5552 271.627 58.724 267.979C53.1443 260.794 50.8401 248.664 52.7207 236.319C54.2396 226.375 58.4451 221.184 61.6999 218.578C65.2544 215.737 68.4265 215.277 68.5609 215.266L68.6642 216.033C68.6642 216.033 65.5437 216.493 62.1545 219.211C59.0237 221.725 54.9732 226.763 53.4957 236.431C51.6771 248.388 53.971 260.58 59.344 267.498C62.0822 271.014 65.3887 273.017 69.1808 273.426L69.0982 274.192V274.213Z" fill="#EFC45D"/>
<path d="M69.1915 274.212C61.2043 273.63 54.5293 270.033 49.8795 263.819C44.4238 256.533 42.5226 246.242 44.7958 236.288C49.1562 217.218 68.2099 215.277 68.3959 215.256L68.4682 216.033C68.2822 216.053 49.7969 217.954 45.5604 236.462C43.3389 246.191 45.1781 256.247 50.4995 263.359C55.0046 269.379 61.4832 272.863 69.2432 273.436L69.1812 274.212H69.1915Z" fill="#EFC45D"/>
<path d="M69.274 274.213C56.6576 273.518 46.4592 268.541 40.5385 260.192C35.5891 253.212 34.2872 244.719 36.86 236.268C42.6671 217.218 67.9617 215.287 68.22 215.267L68.2717 216.043C68.0237 216.064 43.2664 217.964 37.6143 236.492C35.1138 244.709 36.3744 252.966 41.1791 259.742C46.9552 267.897 56.947 272.751 69.3153 273.436L69.274 274.213Z" fill="#EFC45D"/>
<g style="mix-blend-mode:screen">
<g style="mix-blend-mode:screen" opacity="0.6">
<path d="M62.9915 225.476C62.3509 224.668 61.7723 223.912 60.801 223.513C59.7677 223.094 58.7034 222.798 57.5772 222.808C55.0353 222.819 52.4624 223.421 50.3959 224.965C48.3707 226.477 46.4074 228.756 46.1491 231.331C45.9425 233.365 47.0791 235.051 48.9906 235.603C49.1353 235.756 49.2903 235.899 49.4866 236.022C50.4889 236.656 51.8941 236.697 53.0307 236.635C55.149 236.523 57.4325 235.746 59.1374 234.52C60.9663 233.202 62.7745 231.832 63.5082 229.635C64.0145 228.143 63.9731 226.733 62.9812 225.476H62.9915Z" fill="#E97A7C"/>
</g>
<g style="mix-blend-mode:screen" opacity="0.6">
<path d="M51.4187 239.732C51.1708 239.415 50.9538 239.129 50.5715 238.976C50.1685 238.812 49.7655 238.7 49.3315 238.7C48.3499 238.7 47.358 238.935 46.5623 239.527C45.7771 240.11 45.0228 240.989 44.9298 241.98C44.8471 242.767 45.2914 243.411 46.025 243.625C46.0767 243.687 46.1387 243.738 46.2214 243.789C46.6037 244.034 47.1513 244.044 47.5853 244.024C48.4016 243.983 49.2799 243.677 49.9412 243.206C50.6438 242.695 51.3361 242.174 51.6254 241.326C51.8217 240.754 51.8011 240.212 51.4187 239.722V239.732Z" fill="#E97A7C"/>
</g>
</g>
<g style="mix-blend-mode:multiply" opacity="0.59">
<path d="M68.9948 215.072C50.2202 215.072 35 228.378 35 244.79C35 261.203 50.2202 274.509 68.9948 274.509C87.7695 274.509 102.99 261.203 102.99 244.79C102.99 228.378 87.7695 215.072 68.9948 215.072ZM69.1912 257.596C52.9894 257.596 39.8564 248.797 39.8564 237.954C39.8564 227.111 52.9894 218.312 69.1912 218.312C85.393 218.312 98.5259 227.111 98.5259 237.954C98.5259 248.797 85.393 257.596 69.1912 257.596Z" fill="#A1201C"/>
</g>
</g>
<g clip-path="url(#clip1_4013_4)">
<path d="M324.011 289.934C323.858 289.934 323.734 289.809 323.734 289.655V130.279C323.734 130.125 323.858 130 324.011 130C324.164 130 324.288 130.125 324.288 130.279V289.655C324.288 289.809 324.164 289.934 324.011 289.934Z" fill="#D6812C"/>
<path d="M322.844 290C322.691 290 322.574 289.883 322.567 289.729C322.261 275.526 323.61 273.583 323.661 273.502C323.756 273.378 323.931 273.356 324.048 273.451C324.164 273.539 324.194 273.715 324.106 273.832C324.041 273.927 322.822 276.01 323.114 289.714C323.114 289.868 322.997 289.993 322.844 290Z" fill="#D6812C"/>
<path d="M325.251 290C325.098 290 324.974 289.868 324.981 289.714C325.28 275.951 324.04 273.913 323.989 273.832C323.909 273.707 323.938 273.531 324.055 273.451C324.179 273.363 324.339 273.385 324.434 273.509C324.492 273.583 325.834 275.533 325.528 289.736C325.528 289.89 325.404 290.007 325.251 290.007V290Z" fill="#D6812C"/>
<path d="M326.411 289.626C326.258 289.626 326.134 289.494 326.141 289.34C326.44 276.134 324.04 273.773 324.011 273.751C323.902 273.649 323.887 273.473 323.989 273.363C324.091 273.246 324.259 273.238 324.376 273.333C324.485 273.429 326.994 275.753 326.695 289.355C326.695 289.509 326.571 289.626 326.418 289.626H326.411Z" fill="#D6812C"/>
<path d="M321.582 289.626C321.429 289.626 321.312 289.509 321.305 289.355C320.999 275.746 323.515 273.421 323.625 273.333C323.741 273.231 323.916 273.245 324.018 273.363C324.113 273.48 324.106 273.649 323.989 273.751C323.953 273.788 321.568 276.178 321.867 289.34C321.867 289.494 321.75 289.619 321.597 289.626H321.582Z" fill="#D6812C"/>
<path d="M325.229 273.15C325.229 273.81 324.697 274.353 324.033 274.353C323.369 274.353 322.837 273.817 322.837 273.15C322.837 272.483 323.369 271.948 324.033 271.948C324.697 271.948 325.229 272.483 325.229 273.15Z" fill="#E6322C"/>
<g style="mix-blend-mode:screen">
<path d="M324.325 272.747C324.325 273.026 324.099 273.253 323.822 273.253C323.544 273.253 323.318 273.026 323.318 272.747C323.318 272.468 323.544 272.241 323.822 272.241C324.099 272.241 324.325 272.468 324.325 272.747Z" fill="#E6322C"/>
</g>
<path d="M324.536 250.244C324.383 250.244 324.259 250.119 324.259 249.965V240.924C324.259 240.77 324.383 240.646 324.536 240.646C324.689 240.646 324.813 240.77 324.813 240.924V249.965C324.813 250.119 324.689 250.244 324.536 250.244Z" fill="#E1E31A"/>
<path d="M328.81 250.244C328.657 250.244 328.533 250.119 328.533 249.965V240.924C328.533 240.77 328.657 240.646 328.81 240.646C328.963 240.646 329.087 240.77 329.087 240.924V249.965C329.087 250.119 328.963 250.244 328.81 250.244Z" fill="#E1E31A"/>
<path d="M322.391 250.244C322.238 250.244 322.114 250.119 322.114 249.965V240.924C322.114 240.77 322.238 240.646 322.391 240.646C322.545 240.646 322.669 240.77 322.669 240.924V249.965C322.669 250.119 322.545 250.244 322.391 250.244Z" fill="#E1E31A"/>
<path d="M320.255 250.244C320.102 250.244 319.978 250.119 319.978 249.965V240.924C319.978 240.77 320.102 240.646 320.255 240.646C320.408 240.646 320.532 240.77 320.532 240.924V249.965C320.532 250.119 320.408 250.244 320.255 250.244Z" fill="#E1E31A"/>
<path d="M326.673 250.244C326.52 250.244 326.396 250.119 326.396 249.965V240.924C326.396 240.77 326.52 240.646 326.673 240.646C326.826 240.646 326.95 240.77 326.95 240.924V249.965C326.95 250.119 326.826 250.244 326.673 250.244Z" fill="#E1E31A"/>
<path d="M318.117 250.244C317.964 250.244 317.84 250.119 317.84 249.965V240.924C317.84 240.77 317.964 240.646 318.117 240.646C318.271 240.646 318.395 240.77 318.395 240.924V249.965C318.395 250.119 318.271 250.244 318.117 250.244Z" fill="#E1E31A"/>
<path d="M329.875 250.244C329.722 250.244 329.598 250.119 329.598 249.965V240.924C329.598 240.77 329.722 240.646 329.875 240.646C330.028 240.646 330.152 240.77 330.152 240.924V249.965C330.152 250.119 330.028 250.244 329.875 250.244Z" fill="#E1E31A"/>
<path d="M323.464 250.244C323.311 250.244 323.187 250.119 323.187 249.965V240.924C323.187 240.77 323.311 240.646 323.464 240.646C323.617 240.646 323.741 240.77 323.741 240.924V249.965C323.741 250.119 323.617 250.244 323.464 250.244Z" fill="#E1E31A"/>
<path d="M327.738 250.244C327.585 250.244 327.461 250.119 327.461 249.965V240.924C327.461 240.77 327.585 240.646 327.738 240.646C327.891 240.646 328.015 240.77 328.015 240.924V249.965C328.015 250.119 327.891 250.244 327.738 250.244Z" fill="#E1E31A"/>
<path d="M321.326 250.244C321.173 250.244 321.049 250.119 321.049 249.965V240.924C321.049 240.77 321.173 240.646 321.326 240.646C321.48 240.646 321.604 240.77 321.604 240.924V249.965C321.604 250.119 321.48 250.244 321.326 250.244Z" fill="#E1E31A"/>
<path d="M319.19 250.244C319.037 250.244 318.913 250.119 318.913 249.965V240.924C318.913 240.77 319.037 240.646 319.19 240.646C319.343 240.646 319.467 240.77 319.467 240.924V249.965C319.467 250.119 319.343 250.244 319.19 250.244Z" fill="#E1E31A"/>
<path d="M325.601 250.244C325.448 250.244 325.324 250.119 325.324 249.965V240.924C325.324 240.77 325.448 240.646 325.601 240.646C325.754 240.646 325.878 240.77 325.878 240.924V249.965C325.878 250.119 325.754 250.244 325.601 250.244Z" fill="#E1E31A"/>
<path d="M317.053 250.244C316.899 250.244 316.775 250.119 316.775 249.965V240.924C316.775 240.77 316.899 240.646 317.053 240.646C317.206 240.646 317.33 240.77 317.33 240.924V249.965C317.33 250.119 317.206 250.244 317.053 250.244Z" fill="#E1E31A"/>
<path d="M330.947 250.244C330.794 250.244 330.67 250.119 330.67 249.965V240.924C330.67 240.77 330.794 240.646 330.947 240.646C331.1 240.646 331.224 240.77 331.224 240.924V249.965C331.224 250.119 331.1 250.244 330.947 250.244Z" fill="#E1E31A"/>
<path d="M331.771 195.229H316.221V241.518H331.771V195.229Z" fill="#F1C319"/>
<g style="mix-blend-mode:multiply">
<path d="M331.772 195.229H327.702V241.518H331.772V195.229Z" fill="#F1C319"/>
</g>
<g style="mix-blend-mode:multiply">
<path d="M318.511 195.229H317.009V241.518H318.511V195.229Z" fill="#F1C319"/>
</g>
<g style="mix-blend-mode:screen">
<path d="M321.94 195.229H320.437V241.518H321.94V195.229Z" fill="#FFF200"/>
</g>
<path d="M331.436 243.043H316.556C316.403 243.043 316.279 242.919 316.279 242.765C316.279 242.611 316.403 242.486 316.556 242.486H331.436C331.589 242.486 331.713 242.611 331.713 242.765C331.713 242.919 331.589 243.043 331.436 243.043Z" fill="#D6812C"/>
<path d="M321.276 254.299C321.276 254.042 321.371 253.793 321.568 253.595C321.757 253.404 322.005 253.301 322.268 253.301C322.53 253.301 322.778 253.404 322.968 253.595L328.431 259.087C328.818 259.475 328.818 260.106 328.431 260.494C328.044 260.883 327.417 260.883 327.031 260.494L321.568 255.002C321.378 254.812 321.276 254.555 321.276 254.299ZM321.757 253.793C321.48 254.071 321.48 254.526 321.757 254.812L327.22 260.304C327.497 260.582 327.95 260.582 328.234 260.304C328.511 260.025 328.511 259.571 328.234 259.285L322.771 253.793C322.64 253.661 322.457 253.58 322.268 253.58C322.078 253.58 321.896 253.653 321.765 253.793H321.757Z" fill="#E6322C"/>
<path d="M319.255 256.33C319.255 256.073 319.35 255.824 319.547 255.626C319.934 255.237 320.561 255.237 320.948 255.626L326.411 261.118C326.797 261.506 326.797 262.137 326.411 262.526C326.024 262.914 325.397 262.914 325.01 262.526L319.547 257.034C319.357 256.843 319.255 256.586 319.255 256.33ZM326.425 261.822C326.425 261.638 326.352 261.455 326.214 261.316L320.751 255.824C320.473 255.545 320.021 255.545 319.737 255.824C319.46 256.102 319.46 256.564 319.737 256.843L325.2 262.335C325.477 262.614 325.929 262.614 326.214 262.335C326.352 262.196 326.425 262.012 326.425 261.829V261.822Z" fill="#E6322C"/>
<path d="M321.276 261.822C321.276 261.565 321.371 261.316 321.568 261.118L327.031 255.626C327.417 255.237 328.044 255.237 328.431 255.626C328.818 256.014 328.818 256.645 328.431 257.034L322.968 262.526C322.778 262.716 322.53 262.819 322.268 262.819C322.005 262.819 321.757 262.716 321.568 262.526C321.378 262.335 321.276 262.078 321.276 261.822ZM328.446 256.33C328.446 256.146 328.373 255.963 328.234 255.824C327.957 255.545 327.505 255.545 327.22 255.824L321.757 261.316C321.48 261.594 321.48 262.049 321.757 262.335C321.889 262.467 322.071 262.548 322.261 262.548C322.45 262.548 322.633 262.474 322.764 262.335L328.227 256.843C328.365 256.704 328.438 256.52 328.438 256.337L328.446 256.33Z" fill="#E6322C"/>
<path d="M319.255 259.791C319.255 259.534 319.35 259.285 319.547 259.087L325.01 253.595C325.397 253.206 326.024 253.206 326.411 253.595C326.797 253.984 326.797 254.614 326.411 255.003L320.948 260.495C320.561 260.883 319.934 260.883 319.547 260.495C319.357 260.304 319.255 260.047 319.255 259.791ZM326.425 254.299C326.425 254.116 326.352 253.932 326.214 253.793C325.936 253.514 325.484 253.514 325.2 253.793L319.737 259.285C319.46 259.563 319.46 260.018 319.737 260.304C320.014 260.583 320.466 260.583 320.751 260.304L326.214 254.812C326.352 254.673 326.425 254.489 326.425 254.306V254.299Z" fill="#E6322C"/>
<path d="M327.614 258.06C327.614 257.32 328.212 256.711 328.956 256.711C329.7 256.711 330.298 257.32 330.298 258.06C330.298 258.801 329.7 259.409 328.956 259.409C328.212 259.409 327.614 258.808 327.614 258.06ZM330.021 258.06C330.021 257.466 329.539 256.99 328.956 256.99C328.372 256.99 327.891 257.474 327.891 258.06C327.891 258.647 328.372 259.131 328.956 259.131C329.539 259.131 330.021 258.647 330.021 258.06Z" fill="#E6322C"/>
<path d="M317.694 258.06C317.694 257.32 318.292 256.711 319.036 256.711C319.78 256.711 320.378 257.32 320.378 258.06C320.378 258.801 319.78 259.409 319.036 259.409C318.292 259.409 317.694 258.808 317.694 258.06ZM320.101 258.06C320.101 257.466 319.62 256.99 319.036 256.99C318.453 256.99 317.971 257.474 317.971 258.06C317.971 258.647 318.453 259.131 319.036 259.131C319.62 259.131 320.101 258.647 320.101 258.06Z" fill="#E6322C"/>
<path d="M323.996 240.858C337.249 240.858 347.993 231.312 347.993 219.536C347.993 207.76 337.249 198.213 323.996 198.213C310.744 198.213 300 207.76 300 219.536C300 231.312 310.744 240.858 323.996 240.858Z" fill="#E6322C"/>
<path d="M323.807 240.646L323.777 240.088C332.508 239.597 339.561 236.114 343.638 230.263C347.03 225.394 347.927 219.47 346.154 213.582C342.165 200.281 324.689 198.917 324.514 198.91L324.55 198.352C324.733 198.367 342.581 199.753 346.687 213.421C348.503 219.477 347.584 225.578 344.09 230.586C339.918 236.576 332.712 240.147 323.807 240.646Z" fill="#EFC45D"/>
<path d="M323.865 240.646L323.821 240.088C329.292 239.678 333.872 237.177 337.052 232.859C340.808 227.755 342.114 220.54 340.546 213.56C337.555 200.281 324.507 198.917 324.376 198.902L324.427 198.345C324.565 198.36 338.008 199.753 341.086 213.435C342.69 220.57 341.348 227.953 337.497 233.189C334.215 237.647 329.503 240.22 323.865 240.646Z" fill="#EFC45D"/>
<path d="M323.923 240.646L323.865 240.096C326.542 239.795 328.876 238.365 330.808 235.843C334.601 230.879 336.22 222.131 334.937 213.553C333.894 206.616 331.042 203.009 328.824 201.197C326.432 199.24 324.251 198.917 324.229 198.917L324.302 198.367C324.397 198.382 326.629 198.712 329.145 200.743C331.45 202.613 334.411 206.337 335.484 213.472C336.811 222.329 335.192 231.033 331.246 236.188C329.248 238.798 326.717 240.345 323.923 240.66V240.646Z" fill="#EFC45D"/>
<path d="M324.003 240.638L323.887 240.096C327.847 239.209 330.342 227.044 329.328 213.523C328.336 200.325 324.098 198.91 324.054 198.895L324.2 198.36C324.39 198.411 328.846 199.797 329.875 213.479C330.794 225.702 328.81 239.56 324.003 240.638Z" fill="#EFC45D"/>
<path d="M324.274 198.631H323.719V240.367H324.274V198.631Z" fill="#EFC45D"/>
<path d="M323.989 240.638C319.182 239.568 317.198 225.702 318.117 213.479C319.146 199.797 323.602 198.411 323.792 198.36L323.938 198.895C323.894 198.91 319.656 200.318 318.664 213.523C317.651 227.044 320.145 239.209 324.106 240.096L323.989 240.638Z" fill="#EFC45D"/>
<path d="M324.069 240.646C321.276 240.33 318.745 238.791 316.746 236.173C312.808 231.018 311.181 222.315 312.509 213.457C313.581 206.323 316.549 202.598 318.847 200.728C321.356 198.69 323.595 198.36 323.69 198.352L323.763 198.902C323.763 198.902 321.56 199.232 319.168 201.183C316.958 202.987 314.099 206.601 313.056 213.538C311.772 222.117 313.391 230.864 317.184 235.828C319.117 238.351 321.451 239.788 324.128 240.081L324.069 240.631V240.646Z" fill="#EFC45D"/>
<path d="M324.135 240.646C318.497 240.228 313.785 237.647 310.503 233.189C306.652 227.961 305.31 220.577 306.914 213.435C309.992 199.753 323.442 198.36 323.573 198.345L323.624 198.902C323.493 198.917 310.445 200.281 307.454 213.56C305.886 220.54 307.184 227.755 310.941 232.859C314.121 237.177 318.694 239.678 324.171 240.088L324.128 240.646H324.135Z" fill="#EFC45D"/>
<path d="M324.193 240.646C315.288 240.147 308.089 236.576 303.909 230.586C300.416 225.578 299.497 219.484 301.313 213.421C305.412 199.753 323.267 198.367 323.449 198.352L323.486 198.91C323.311 198.924 305.835 200.288 301.845 213.582C300.08 219.477 300.97 225.402 304.362 230.263C308.439 236.114 315.492 239.597 324.222 240.088L324.193 240.646Z" fill="#EFC45D"/>
<g style="mix-blend-mode:screen">
<g style="mix-blend-mode:screen" opacity="0.6">
<path d="M319.759 205.678C319.307 205.098 318.898 204.556 318.213 204.27C317.483 203.969 316.732 203.756 315.937 203.764C314.143 203.771 312.327 204.204 310.868 205.311C309.438 206.396 308.052 208.031 307.87 209.879C307.724 211.338 308.526 212.548 309.876 212.944C309.978 213.054 310.087 213.157 310.226 213.245C310.933 213.699 311.925 213.729 312.728 213.685C314.223 213.604 315.835 213.047 317.038 212.167C318.329 211.221 319.606 210.238 320.124 208.662C320.481 207.591 320.452 206.579 319.752 205.678H319.759Z" fill="#E97A7C"/>
</g>
<g style="mix-blend-mode:screen" opacity="0.6">
<path d="M311.59 215.906C311.415 215.679 311.262 215.474 310.992 215.364C310.707 215.246 310.423 215.166 310.117 215.166C309.424 215.166 308.723 215.334 308.162 215.76C307.607 216.178 307.075 216.808 307.009 217.519C306.951 218.084 307.265 218.546 307.783 218.7C307.819 218.744 307.863 218.781 307.921 218.817C308.191 218.993 308.578 219 308.884 218.986C309.46 218.956 310.08 218.737 310.547 218.399C311.043 218.033 311.531 217.659 311.736 217.05C311.874 216.639 311.86 216.251 311.59 215.899V215.906Z" fill="#E97A7C"/>
</g>
</g>
<g style="mix-blend-mode:multiply" opacity="0.59">
<path d="M323.996 198.213C310.744 198.213 300 207.76 300 219.536C300 231.312 310.744 240.858 323.996 240.858C337.249 240.858 347.993 231.312 347.993 219.536C347.993 207.76 337.249 198.213 323.996 198.213ZM324.135 228.723C312.698 228.723 303.428 222.41 303.428 214.63C303.428 206.851 312.698 200.538 324.135 200.538C335.571 200.538 344.842 206.851 344.842 214.63C344.842 222.41 335.571 228.723 324.135 228.723Z" fill="#A1201C"/>
</g>
</g>
<path d="M95.693 52.1904C95.4543 46.3523 91.4282 40.8325 85.938 38.8282C80.4479 36.8238 72.6503 38.2237 68.6878 42.5187C62.402 25.4023 43.4014 13.9649 25.3237 16.3828C7.24596 18.8167 -8.33331 36.4739 -9.89283 54.6401C-21.7165 51.0132 -36.8025 55.8968 -44.1227 65.8548C-51.4429 75.8128 -50.7904 91.4657 -42.9451 101.424C-54.6097 100.915 -66.4175 105.051 -75.2176 112.702C-80.7237 117.49 -85.0044 123.503 -89.8898 128.928C-94.7752 134.352 -100.552 139.395 -107.617 141.256C-114.683 143.133 -123.197 141.017 -127 134.782C-123.467 157.831 -98.3558 162.588 -84.9725 155.875C-75.695 151.214 -61.2456 140.46 -51.0132 138.695C-40.0966 136.818 -29.896 147.301 -20.9209 153.807C-11.9457 160.313 -1.39505 167.026 9.41019 164.56C18.7673 162.429 25.5146 153.87 34.7285 151.198C46.775 147.698 58.9329 154.968 70.502 159.804C86.4791 166.501 104.78 168.76 121.234 163.367C137.689 157.975 151.788 144.151 154.955 127.13C158.106 110.109 148.494 90.8771 132.087 85.3573C134.872 75.3993 132.135 65.0594 124.528 58.0284C116.937 50.9973 105.305 48.6748 95.5816 52.2222L95.677 52.1426L95.693 52.1904Z" fill="#BB1605" stroke="#DFB850" stroke-linecap="round" stroke-linejoin="round"/>
<path d="M-9.84473 54.2106C-9.12862 59.5873 -7.87146 63.2301 -5.21392 67.9546C-2.55637 72.6791 1.54931 76.7355 6.6257 78.6285C11.718 80.5214 17.8129 79.9806 22.0777 76.6241C26.3266 73.2518 28.2362 66.9365 25.8969 62.037C23.5576 57.1376 16.8103 54.7037 12.1795 57.5034C9.44238 59.1578 7.73965 62.896 9.31508 65.6957" stroke="#DFB850" stroke-linecap="round" stroke-linejoin="round"/>
<path d="M19.7861 112.893C26.7244 119.001 35.9542 122.549 45.1999 122.231C54.4297 121.928 63.5482 117.649 69.3884 110.475C75.2127 103.301 77.5202 93.2951 75.0377 84.4029C74.0033 80.7123 72.1573 77.1809 69.3247 74.588C62.7684 68.5432 51.1993 69.1954 45.3591 75.9401C41.6671 80.2033 40.4418 86.789 43.2585 91.6725C46.0752 96.5561 53.268 98.6718 57.8193 95.3312" stroke="#DFB850" stroke-linecap="round" stroke-linejoin="round"/>
<path d="M95.6929 52.1904C90.4097 53.797 86.0653 56.9149 83.9647 62.0053C81.8482 67.0956 82.994 73.6336 87.3225 77.0537C89.6458 78.883 92.6535 79.7261 95.6134 79.8056C98.0163 79.8693 100.483 79.4398 102.552 78.2149C104.62 76.9741 106.228 74.8584 106.498 72.4723C106.769 70.0862 105.48 67.4933 103.268 66.5548C101.056 65.6162 98.0959 66.7139 97.3002 68.9886" stroke="#DFB850" stroke-linecap="round" stroke-linejoin="round"/>
<path d="M132.087 85.3892C126.12 84.1643 119.834 85.1187 114.328 87.7276C108.822 90.3364 104.334 95.3154 102.95 101.249C101.565 107.182 103.634 113.943 108.503 117.618C113.373 121.292 120.9 121.213 125.308 117.013C127.058 115.343 128.316 113.036 128.363 110.618C128.411 108.2 127.138 105.703 124.958 104.637C122.778 103.571 119.802 104.255 118.561 106.355" stroke="#DFB850" stroke-linecap="round" stroke-linejoin="round"/>
<path d="M1.7876 44.4594C4.97029 34.7877 12.8952 26.8022 22.5388 23.5571C32.1823 20.312 43.3217 21.8709 51.7081 27.6453" stroke="#DFB850" stroke-linecap="round" stroke-linejoin="round"/>
<path d="M-104.355 145.996C-96.9234 147.714 -89.3486 143.547 -83.7948 138.313C-78.241 133.079 -73.817 126.653 -67.6745 122.119C-60.5134 116.838 -51.4427 114.547 -42.5471 114.675C-33.6515 114.802 -24.915 117.236 -16.7355 120.704C-11.4204 122.946 -5.18228 125.603 -0.217285 122.66" stroke="#DFB850" stroke-linecap="round" stroke-linejoin="round"/>
<path d="M142.527 107.166C147.141 116.313 146.553 127.655 141.842 136.754C137.132 145.853 128.618 152.709 119.022 156.288C109.427 159.868 98.8282 160.345 88.7231 158.611" stroke="#DFB850" stroke-linecap="round" stroke-linejoin="round"/>
<path d="M89.3276 64.2164C89.3276 64.2164 94.3245 54.7993 106.53 54.7993C118.736 54.7993 123.192 64.9005 123.192 64.9005" stroke="#DFB850" stroke-linecap="round" stroke-linejoin="round"/>
<path d="M68.3697 97.9719C67.0648 106.005 60.222 112.368 52.504 114.945C44.786 117.522 36.145 116.981 28.3633 113.386" stroke="#DFB850" stroke-linecap="round" stroke-linejoin="round"/>
<path d="M433.992 88.0002C417.485 71.663 390.738 66.7211 369.492 76.0955C358.793 80.8166 349.776 88.6285 339.552 94.3176C329.329 100.007 316.133 103.335 305.452 98.5633C310.92 89.6814 310.461 75.9426 303.057 68.6062C295.653 61.2697 281.099 60.6414 272.268 66.1777C274.747 47.9215 261.297 28.7483 244.077 22.2101C226.857 15.6718 206.766 19.7136 191.431 29.9201C185.182 34.0638 180.511 39.4982 177.064 46.1553C173.617 52.8125 172.547 61.7962 175.654 68.6232C170.101 66.6532 162.255 68.1646 158.078 72.3084C153.9 76.4521 153.645 83.5338 155.564 89.087C140.025 94.4535 127.747 108.379 124.384 124.462C121.022 140.544 126.694 158.223 138.786 169.363C150.877 180.504 168.946 184.698 184.706 180.011C188.51 189.199 197.664 196.484 207.548 195.244C217.414 194.005 227.961 185.106 229.387 175.256C251.566 187.534 280.267 186.023 303.6 176.122C326.934 166.204 346.192 148.56 362.547 129.2C371.632 118.433 379.155 106.426 390.483 98.0368C401.81 89.6475 420.695 83.3809 434.009 88.0002H433.992Z" fill="#BB1605" stroke="#DFB850" stroke-linecap="round" stroke-linejoin="round"/>
<path d="M272.268 66.1776C271.555 73.3951 267.819 81.6996 261.416 87.2189C255.931 91.94 249.138 95.3535 241.92 95.9309C234.703 96.5253 227.112 94.0628 222.255 88.6794C217.398 83.3129 215.801 74.9575 219.079 68.5042C221.015 64.7001 224.802 61.6433 229.065 61.4564C233.327 61.2866 237.709 64.6322 237.862 68.8948" stroke="#DFB850" stroke-linecap="round" stroke-linejoin="round"/>
<path d="M155.564 89.087C161.695 86.5906 168.522 85.8264 175.332 87.3887C182.142 88.9511 188.341 92.7043 193.3 97.6122C199.006 103.267 203.217 110.723 203.795 118.721C204.372 126.737 200.908 135.211 194.132 139.542C187.356 143.872 177.421 143.091 172.19 136.995C169.575 133.955 168.301 129.437 170.051 125.82" stroke="#DFB850" stroke-linecap="round" stroke-linejoin="round"/>
<path d="M221.117 138.2C221.813 128.028 226.177 117.991 233.701 111.113C241.241 104.235 252.008 100.805 262.01 102.843C272.013 104.881 280.81 112.659 283.34 122.542C285.871 132.426 281.523 143.889 272.675 148.984C268.854 151.192 264.252 152.211 259.939 151.243C255.642 150.275 251.736 147.167 250.361 142.972C248.985 138.778 250.462 133.666 254.165 131.271" stroke="#DFB850" stroke-linecap="round" stroke-linejoin="round"/>
<path d="M305.978 98.2745C303.736 101.263 300.849 103.845 297.402 105.271C293.955 106.698 289.913 106.868 286.516 105.322C283.12 103.777 280.538 100.346 280.403 96.6102C280.267 92.8741 282.882 89.104 286.533 88.3058C290.184 87.5076 294.328 90.1739 294.753 93.893" stroke="#DFB850" stroke-linecap="round" stroke-linejoin="round"/>
<path d="M380.939 81.0033C371.819 82.7015 363.77 87.9491 356.467 93.6892C349.182 99.4293 342.304 105.815 334.254 110.4C326.204 114.985 316.541 117.702 307.575 115.308" stroke="#DFB850" stroke-linecap="round" stroke-linejoin="round"/>
<path d="M389.379 89.9361C378.816 95.2686 370.63 104.32 363.345 113.644C356.076 122.984 349.368 132.885 340.673 140.901C331.961 148.916 320.753 155.013 308.916 154.724" stroke="#DFB850" stroke-linecap="round" stroke-linejoin="round"/>
<path d="M356.654 103.76C349.555 112.964 341.641 121.744 331.995 128.248C322.349 134.753 310.767 138.863 299.168 138.047" stroke="#DFB850" stroke-linecap="round" stroke-linejoin="round"/>
<path d="M147.022 108.056C137.087 115.885 132.434 129.828 135.678 142.055C138.922 154.283 149.875 164.082 162.391 165.95" stroke="#DFB850" stroke-linecap="round" stroke-linejoin="round"/>
<path d="M248.696 109.84C254.487 108.005 261.026 108.379 266.375 111.283C271.708 114.187 275.681 119.655 276.327 125.701C276.989 131.73 274.119 138.132 268.956 141.308" stroke="#DFB850" stroke-linecap="round" stroke-linejoin="round"/>
<path d="M222.713 178.092C220.369 183.679 215.088 187.925 209.127 189.012C203.166 190.099 196.73 187.993 192.569 183.594" stroke="#DFB850" stroke-linecap="round" stroke-linejoin="round"/>
<path d="M234.431 27.4916C243.041 29.954 250.972 35.1167 256.203 42.4022C261.433 49.6877 263.777 59.1129 261.96 67.8929C260.126 76.6728 253.961 84.5697 245.623 87.8813" stroke="#DFB850" stroke-linecap="round" stroke-linejoin="round"/>
<path d="M216.548 28.0179C208.091 28.7142 199.871 32.1617 193.452 37.7149C187.033 43.2682 182.447 50.9103 180.545 59.1808" stroke="#DFB850" stroke-linecap="round" stroke-linejoin="round"/>
<g clip-path="url(#clip2_4013_4)">
<path d="M374.644 66.3422C367.057 63.3521 357.874 64.8471 351.621 70.088C345.367 75.3289 342.306 84.0856 343.935 92.0702C339.245 90.0658 333.337 91.3473 329.898 95.1095C326.458 98.8718 325.701 104.852 328.104 109.337C318.526 109.896 308.191 117.42 305.476 126.621C302.76 135.821 305.772 146.286 312.47 153.137C319.168 159.988 329.206 163.241 338.768 162.305C347.457 161.45 355.735 157.425 364.457 157.507C379.712 157.655 393.289 170.256 408.446 168.498C419.801 167.184 428.605 158.148 439.253 153.975C455.792 147.485 474.355 153.384 490.993 159.627C507.631 165.87 525.668 172.556 542.701 167.529C568.982 159.758 579.778 119.737 609.17 116.27C596.333 112.36 582.148 112.984 569.706 117.995C562.992 120.706 556.771 124.633 549.793 126.538C542.816 128.444 534.489 127.853 529.535 122.579C524.351 117.059 524.549 108.614 522.87 101.238C520.286 89.8687 512.338 79.8469 501.838 74.7375C491.355 69.628 478.535 69.5294 467.97 74.491C467.213 60.9206 460.137 45.9044 449.473 37.4434C438.809 28.9824 424.458 25.3352 411.03 27.6845C397.617 30.0339 385.357 38.3142 378.198 49.8802C375.384 54.4475 374.265 61.4627 374.611 66.3422H374.644Z" fill="#BB1605" stroke="#DFB850" stroke-linecap="round" stroke-linejoin="round"/>
<path d="M374.578 65.0608C375.747 71.9445 379.746 78.3026 385.44 82.3606C391.134 86.4186 398.457 88.1108 405.352 86.9936C410.273 86.1886 415.078 83.8885 418.255 80.0441C421.431 76.1997 422.797 70.7288 421.118 66.0301C419.439 61.3313 414.486 57.8319 409.532 58.4398C404.579 59.0477 400.465 64.19 401.551 69.053" stroke="#DFB850" stroke-linecap="round" stroke-linejoin="round"/>
<path d="M380.321 145.662C372.077 148.898 362.466 148.767 354.534 144.857C346.601 140.947 340.545 133.192 339.163 124.452C337.781 115.728 341.286 106.265 348.313 100.893C355.34 95.5203 365.691 94.6824 373.278 99.2497C376.849 101.402 379.844 104.77 380.766 108.828C381.704 112.886 380.239 117.585 376.734 119.835C373.229 122.086 367.831 121.117 365.856 117.437" stroke="#DFB850" stroke-linecap="round" stroke-linejoin="round"/>
<path d="M423.537 153.4C413.416 161.598 398.325 163.11 386.789 157.064" stroke="#DFB850" stroke-linecap="round" stroke-linejoin="round"/>
<path d="M315.959 121.035C311.878 127.557 311.318 136.133 314.494 143.148C317.67 150.163 324.5 155.404 332.103 156.653" stroke="#DFB850" stroke-linecap="round" stroke-linejoin="round"/>
</g>
<defs>
<clipPath id="clip0_4013_4">
<rect width="68" height="223" fill="white" transform="translate(35 120)"/>
</clipPath>
<clipPath id="clip1_4013_4">
<rect width="48" height="160" fill="white" transform="translate(300 130)"/>
</clipPath>
<clipPath id="clip2_4013_4">
<rect width="306.344" height="143.952" fill="white" transform="translate(303.666 26.1731)"/>
</clipPath>
</defs>
</svg>
