<svg width="1454" height="888" viewBox="0 0 1454 888" fill="none" xmlns="http://www.w3.org/2000/svg">
<g clip-path="url(#clip0_4009_118)">
<path d="M172.043 887.739C171.437 887.739 170.946 887.247 170.946 886.639V257.101C170.946 256.492 171.437 256 172.043 256C172.65 256 173.14 256.492 173.14 257.101V886.639C173.14 887.247 172.65 887.739 172.043 887.739Z" fill="#D6812C"/>
<path d="M167.424 888C166.818 888 166.356 887.537 166.327 886.928C165.114 830.827 170.455 823.152 170.657 822.833C171.033 822.341 171.726 822.254 172.188 822.631C172.65 822.978 172.765 823.673 172.419 824.137C172.159 824.513 167.337 832.739 168.492 886.87C168.492 887.479 168.03 887.971 167.424 888Z" fill="#D6812C"/>
<path d="M176.951 888C176.345 888 175.854 887.479 175.883 886.87C177.067 832.507 172.159 824.455 171.957 824.137C171.639 823.644 171.755 822.949 172.217 822.631C172.707 822.283 173.342 822.37 173.718 822.862C173.949 823.152 179.261 830.856 178.048 886.957C178.048 887.565 177.558 888.029 176.951 888.029V888Z" fill="#D6812C"/>
<path d="M181.542 886.523C180.936 886.523 180.445 886.002 180.474 885.393C181.657 833.231 172.159 823.905 172.043 823.818C171.61 823.413 171.553 822.718 171.957 822.283C172.361 821.82 173.025 821.791 173.487 822.167C173.92 822.544 183.852 831.725 182.668 885.451C182.668 886.059 182.177 886.523 181.571 886.523H181.542Z" fill="#D6812C"/>
<path d="M162.429 886.523C161.823 886.523 161.361 886.059 161.332 885.451C160.12 831.696 170.08 822.515 170.513 822.167C170.975 821.762 171.668 821.82 172.072 822.283C172.448 822.747 172.419 823.413 171.957 823.818C171.812 823.963 162.372 833.405 163.555 885.393C163.555 886.002 163.093 886.494 162.487 886.523H162.429Z" fill="#D6812C"/>
<path d="M176.865 821.443C176.865 824.05 174.757 826.193 172.13 826.193C169.503 826.193 167.395 824.079 167.395 821.443C167.395 818.808 169.503 816.693 172.13 816.693C174.757 816.693 176.865 818.808 176.865 821.443Z" fill="#E6322C"/>
<g style="mix-blend-mode:screen">
<path d="M173.285 819.85C173.285 820.951 172.39 821.849 171.293 821.849C170.196 821.849 169.301 820.951 169.301 819.85C169.301 818.75 170.196 817.852 171.293 817.852C172.39 817.852 173.285 818.75 173.285 819.85Z" fill="#E6322C"/>
</g>
<path d="M174.122 730.963C173.516 730.963 173.025 730.471 173.025 729.862V694.151C173.025 693.543 173.516 693.051 174.122 693.051C174.728 693.051 175.219 693.543 175.219 694.151V729.862C175.219 730.471 174.728 730.963 174.122 730.963Z" fill="#E1E31A"/>
<path d="M191.04 730.963C190.434 730.963 189.943 730.471 189.943 729.862V694.151C189.943 693.543 190.434 693.051 191.04 693.051C191.647 693.051 192.138 693.543 192.138 694.151V729.862C192.138 730.471 191.647 730.963 191.04 730.963Z" fill="#E1E31A"/>
<path d="M165.634 730.963C165.028 730.963 164.537 730.471 164.537 729.862V694.151C164.537 693.543 165.028 693.051 165.634 693.051C166.24 693.051 166.731 693.543 166.731 694.151V729.862C166.731 730.471 166.24 730.963 165.634 730.963Z" fill="#E1E31A"/>
<path d="M157.175 730.963C156.568 730.963 156.078 730.471 156.078 729.862V694.151C156.078 693.543 156.568 693.051 157.175 693.051C157.781 693.051 158.272 693.543 158.272 694.151V729.862C158.272 730.471 157.781 730.963 157.175 730.963Z" fill="#E1E31A"/>
<path d="M182.581 730.963C181.975 730.963 181.484 730.471 181.484 729.862V694.151C181.484 693.543 181.975 693.051 182.581 693.051C183.188 693.051 183.678 693.543 183.678 694.151V729.862C183.678 730.471 183.188 730.963 182.581 730.963Z" fill="#E1E31A"/>
<path d="M148.716 730.963C148.109 730.963 147.618 730.471 147.618 729.862V694.151C147.618 693.543 148.109 693.051 148.716 693.051C149.322 693.051 149.813 693.543 149.813 694.151V729.862C149.813 730.471 149.322 730.963 148.716 730.963Z" fill="#E1E31A"/>
<path d="M195.256 730.963C194.649 730.963 194.159 730.471 194.159 729.862V694.151C194.159 693.543 194.649 693.051 195.256 693.051C195.862 693.051 196.353 693.543 196.353 694.151V729.862C196.353 730.471 195.862 730.963 195.256 730.963Z" fill="#E1E31A"/>
<path d="M169.878 730.963C169.272 730.963 168.781 730.471 168.781 729.862V694.151C168.781 693.543 169.272 693.051 169.878 693.051C170.484 693.051 170.975 693.543 170.975 694.151V729.862C170.975 730.471 170.484 730.963 169.878 730.963Z" fill="#E1E31A"/>
<path d="M186.796 730.963C186.19 730.963 185.699 730.471 185.699 729.862V694.151C185.699 693.543 186.19 693.051 186.796 693.051C187.403 693.051 187.894 693.543 187.894 694.151V729.862C187.894 730.471 187.403 730.963 186.796 730.963Z" fill="#E1E31A"/>
<path d="M161.419 730.963C160.812 730.963 160.322 730.471 160.322 729.862V694.151C160.322 693.543 160.812 693.051 161.419 693.051C162.025 693.051 162.516 693.543 162.516 694.151V729.862C162.516 730.471 162.025 730.963 161.419 730.963Z" fill="#E1E31A"/>
<path d="M152.96 730.963C152.353 730.963 151.862 730.471 151.862 729.862V694.151C151.862 693.543 152.353 693.051 152.96 693.051C153.566 693.051 154.057 693.543 154.057 694.151V729.862C154.057 730.471 153.566 730.963 152.96 730.963Z" fill="#E1E31A"/>
<path d="M178.337 730.963C177.731 730.963 177.24 730.471 177.24 729.862V694.151C177.24 693.543 177.731 693.051 178.337 693.051C178.943 693.051 179.434 693.543 179.434 694.151V729.862C179.434 730.471 178.943 730.963 178.337 730.963Z" fill="#E1E31A"/>
<path d="M144.5 730.963C143.894 730.963 143.403 730.471 143.403 729.862V694.151C143.403 693.543 143.894 693.051 144.5 693.051C145.107 693.051 145.597 693.543 145.597 694.151V729.862C145.597 730.471 145.107 730.963 144.5 730.963Z" fill="#E1E31A"/>
<path d="M199.5 730.963C198.893 730.963 198.403 730.471 198.403 729.862V694.151C198.403 693.543 198.893 693.051 199.5 693.051C200.106 693.051 200.597 693.543 200.597 694.151V729.862C200.597 730.471 200.106 730.963 199.5 730.963Z" fill="#E1E31A"/>
<path d="M202.762 513.654H141.209V696.497H202.762V513.654Z" fill="#F1C319"/>
<g style="mix-blend-mode:multiply">
<path d="M202.762 513.654H186.652V696.497H202.762V513.654Z" fill="#F1C319"/>
</g>
<g style="mix-blend-mode:multiply">
<path d="M150.275 513.654H144.327V696.497H150.275V513.654Z" fill="#F1C319"/>
</g>
<g style="mix-blend-mode:screen">
<path d="M163.844 513.654H157.897V696.497H163.844V513.654Z" fill="#FFF200"/>
</g>
<path d="M201.434 702.521H142.537C141.931 702.521 141.44 702.029 141.44 701.421C141.44 700.813 141.931 700.32 142.537 700.32H201.434C202.04 700.32 202.531 700.813 202.531 701.421C202.531 702.029 202.04 702.521 201.434 702.521Z" fill="#D6812C"/>
<path d="M161.217 746.979C161.217 745.966 161.592 744.981 162.372 744.199C163.122 743.446 164.104 743.041 165.143 743.041C166.183 743.041 167.164 743.446 167.915 744.199L189.539 765.892C191.069 767.427 191.069 769.918 189.539 771.453C188.009 772.988 185.526 772.988 183.996 771.453L162.372 749.76C161.621 749.007 161.217 747.993 161.217 746.979ZM163.122 744.981C162.025 746.082 162.025 747.877 163.122 749.007L184.747 770.7C185.844 771.801 187.634 771.801 188.76 770.7C189.857 769.6 189.857 767.804 188.76 766.674L167.135 744.981C166.616 744.46 165.894 744.141 165.143 744.141C164.393 744.141 163.671 744.431 163.151 744.981H163.122Z" fill="#E6322C"/>
<path d="M153.219 755.002C153.219 753.988 153.595 753.004 154.374 752.222C155.904 750.687 158.387 750.687 159.918 752.222L181.542 773.915C183.072 775.45 183.072 777.941 181.542 779.476C180.012 781.011 177.529 781.011 175.999 779.476L154.374 757.783C153.624 757.03 153.219 756.016 153.219 755.002ZM181.6 776.695C181.6 775.971 181.311 775.247 180.762 774.697L159.138 753.004C158.041 751.903 156.251 751.903 155.125 753.004C154.028 754.104 154.028 755.929 155.125 757.03L176.749 778.723C177.846 779.823 179.636 779.823 180.762 778.723C181.311 778.172 181.6 777.448 181.6 776.724V776.695Z" fill="#E6322C"/>
<path d="M161.217 776.695C161.217 775.682 161.592 774.697 162.372 773.915L183.996 752.222C185.526 750.687 188.009 750.687 189.539 752.222C191.069 753.757 191.069 756.248 189.539 757.783L167.915 779.476C167.164 780.229 166.183 780.634 165.143 780.634C164.104 780.634 163.122 780.229 162.372 779.476C161.621 778.723 161.217 777.709 161.217 776.695ZM189.597 755.002C189.597 754.278 189.308 753.554 188.76 753.004C187.663 751.903 185.873 751.903 184.747 753.004L163.122 774.697C162.025 775.798 162.025 777.593 163.122 778.723C163.642 779.244 164.364 779.563 165.114 779.563C165.865 779.563 166.587 779.273 167.106 778.723L188.731 757.03C189.279 756.479 189.568 755.755 189.568 755.031L189.597 755.002Z" fill="#E6322C"/>
<path d="M153.219 768.673C153.219 767.659 153.595 766.674 154.374 765.892L175.999 744.199C177.529 742.664 180.012 742.664 181.542 744.199C183.072 745.734 183.072 748.225 181.542 749.76L159.918 771.453C158.387 772.988 155.904 772.988 154.374 771.453C153.624 770.7 153.219 769.686 153.219 768.673ZM181.6 746.979C181.6 746.255 181.311 745.531 180.762 744.981C179.665 743.88 177.875 743.88 176.749 744.981L155.125 766.674C154.028 767.775 154.028 769.571 155.125 770.7C156.222 771.801 158.012 771.801 159.138 770.7L180.762 749.007C181.311 748.457 181.6 747.732 181.6 747.008V746.979Z" fill="#E6322C"/>
<path d="M186.306 761.837C186.306 758.912 188.673 756.508 191.618 756.508C194.563 756.508 196.93 758.912 196.93 761.837C196.93 764.763 194.563 767.167 191.618 767.167C188.673 767.167 186.306 764.792 186.306 761.837ZM195.833 761.837C195.833 759.491 193.928 757.609 191.618 757.609C189.308 757.609 187.403 759.52 187.403 761.837C187.403 764.155 189.308 766.066 191.618 766.066C193.928 766.066 195.833 764.155 195.833 761.837Z" fill="#E6322C"/>
<path d="M147.041 761.837C147.041 758.912 149.408 756.508 152.353 756.508C155.298 756.508 157.666 758.912 157.666 761.837C157.666 764.763 155.298 767.167 152.353 767.167C149.408 767.167 147.041 764.792 147.041 761.837ZM156.568 761.837C156.568 759.491 154.663 757.609 152.353 757.609C150.044 757.609 148.138 759.52 148.138 761.837C148.138 764.155 150.044 766.066 152.353 766.066C154.663 766.066 156.568 764.155 156.568 761.837Z" fill="#E6322C"/>
<path d="M171.986 693.89C224.445 693.89 266.971 656.182 266.971 609.666C266.971 563.151 224.445 525.442 171.986 525.442C119.526 525.442 77 563.151 77 609.666C77 656.182 119.526 693.89 171.986 693.89Z" fill="#E6322C"/>
<path d="M171.235 693.05L171.119 690.849C205.678 688.909 233.596 675.151 249.735 652.039C263.16 632.807 266.711 609.405 259.696 586.148C243.903 533.609 174.728 528.222 174.035 528.193L174.18 525.992C174.902 526.05 245.549 531.524 261.803 585.511C268.992 609.434 265.354 633.532 251.525 653.313C235.011 676.976 206.486 691.081 171.235 693.05Z" fill="#EFC45D"/>
<path d="M171.466 693.05L171.293 690.849C192.946 689.227 211.077 679.351 223.665 662.292C238.533 642.134 243.701 613.634 237.494 586.061C225.657 533.61 174.007 528.222 173.487 528.165L173.689 525.963C174.238 526.021 227.447 531.524 239.63 585.569C245.982 613.75 240.67 642.916 225.426 663.595C212.434 681.205 193.783 691.371 171.466 693.05Z" fill="#EFC45D"/>
<path d="M171.697 693.051L171.466 690.878C182.062 689.691 191.3 684.043 198.951 674.08C213.964 654.472 220.373 619.919 215.292 586.033C211.163 558.634 199.875 544.384 191.098 537.23C181.628 529.497 172.996 528.223 172.909 528.223L173.198 526.05C173.573 526.108 182.408 527.412 192.368 535.434C201.492 542.82 213.213 557.533 217.457 585.714C222.712 620.701 216.303 655.08 200.683 675.441C192.773 685.752 182.754 691.863 171.697 693.108V693.051Z" fill="#EFC45D"/>
<path d="M172.014 693.022L171.552 690.878C187.229 687.374 197.103 639.324 193.09 585.917C189.164 533.783 172.39 528.194 172.217 528.136L172.794 526.021C173.545 526.224 191.185 531.698 195.256 585.743C198.893 634.024 191.04 688.764 172.014 693.022Z" fill="#EFC45D"/>
<path d="M173.083 527.093H170.888V691.95H173.083V527.093Z" fill="#EFC45D"/>
<path d="M171.957 693.022C152.931 688.793 145.078 634.024 148.716 585.743C152.786 531.698 170.427 526.224 171.177 526.021L171.755 528.136C171.581 528.194 154.807 533.754 150.881 585.917C146.868 639.324 156.742 687.374 172.419 690.878L171.957 693.022Z" fill="#EFC45D"/>
<path d="M172.274 693.05C161.217 691.805 151.198 685.723 143.288 675.383C127.697 655.022 121.259 620.643 126.514 585.656C130.758 557.475 142.508 542.762 151.603 535.376C161.534 527.324 170.398 526.021 170.773 525.992L171.062 528.164C171.062 528.164 162.343 529.468 152.873 537.172C144.125 544.297 132.808 558.575 128.679 585.974C123.598 619.861 130.007 654.414 145.02 674.022C152.671 683.985 161.91 689.662 172.505 690.82L172.274 692.992V693.05Z" fill="#EFC45D"/>
<path d="M172.534 693.05C150.217 691.4 131.566 681.205 118.574 663.595C103.33 642.945 98.0181 613.779 104.37 585.569C116.553 531.524 169.791 526.021 170.311 525.963L170.513 528.165C169.993 528.222 118.343 533.61 106.506 586.061C100.299 613.634 105.438 642.134 120.306 662.292C132.894 679.351 150.996 689.227 172.678 690.849L172.505 693.05H172.534Z" fill="#EFC45D"/>
<path d="M172.765 693.051C137.514 691.081 109.018 676.976 92.4749 653.313C78.6457 633.532 75.0079 609.464 82.1968 585.511C98.4223 531.524 169.098 526.05 169.82 525.992L169.965 528.194C169.272 528.251 100.097 533.639 84.3044 586.148C77.3176 609.435 80.8399 632.837 94.2649 652.039C110.404 675.151 138.322 688.909 172.881 690.849L172.765 693.051Z" fill="#EFC45D"/>
<g style="mix-blend-mode:screen">
<g style="mix-blend-mode:screen" opacity="0.6">
<path d="M155.212 554.926C153.422 552.638 151.805 550.495 149.091 549.366C146.204 548.178 143.23 547.338 140.083 547.367C132.981 547.396 125.792 549.105 120.018 553.478C114.359 557.765 108.874 564.223 108.152 571.522C107.574 577.286 110.75 582.065 116.091 583.629C116.496 584.063 116.929 584.469 117.477 584.816C120.278 586.612 124.204 586.728 127.38 586.554C133.298 586.235 139.679 584.034 144.443 580.559C149.553 576.822 154.605 572.941 156.655 566.714C158.07 562.486 157.954 558.489 155.183 554.926H155.212Z" fill="#E97A7C"/>
</g>
<g style="mix-blend-mode:screen" opacity="0.6">
<path d="M122.876 595.33C122.183 594.432 121.577 593.621 120.509 593.186C119.383 592.723 118.257 592.404 117.044 592.404C114.301 592.404 111.53 593.071 109.307 594.75C107.112 596.401 105.005 598.892 104.745 601.702C104.514 603.932 105.756 605.756 107.805 606.365C107.95 606.538 108.123 606.683 108.354 606.828C109.422 607.523 110.952 607.552 112.165 607.494C114.446 607.378 116.9 606.509 118.747 605.177C120.711 603.729 122.645 602.252 123.453 599.848C124.002 598.226 123.944 596.691 122.876 595.301V595.33Z" fill="#E97A7C"/>
</g>
</g>
<g style="mix-blend-mode:multiply" opacity="0.59">
<path d="M171.986 525.442C119.527 525.442 77 563.152 77 609.666C77 656.181 119.527 693.89 171.986 693.89C224.444 693.89 266.971 656.181 266.971 609.666C266.971 563.152 224.444 525.442 171.986 525.442ZM172.534 645.957C127.264 645.957 90.5694 621.02 90.5694 590.29C90.5694 559.56 127.264 534.623 172.534 534.623C217.804 534.623 254.499 559.56 254.499 590.29C254.499 621.02 217.804 645.957 172.534 645.957Z" fill="#A1201C"/>
</g>
</g>
<g clip-path="url(#clip1_4009_118)">
<path d="M1212.03 730.804C1211.58 730.804 1211.21 730.434 1211.21 729.977V256.827C1211.21 256.37 1211.58 256 1212.03 256C1212.49 256 1212.85 256.37 1212.85 256.827V729.977C1212.85 730.434 1212.49 730.804 1212.03 730.804Z" fill="#D6812C"/>
<path d="M1208.58 731C1208.13 731 1207.78 730.652 1207.76 730.195C1206.85 688.03 1210.85 682.261 1211 682.022C1211.28 681.652 1211.8 681.587 1212.14 681.87C1212.49 682.131 1212.57 682.653 1212.31 683.002C1212.12 683.284 1208.52 689.467 1209.38 730.151C1209.38 730.608 1209.03 730.978 1208.58 731Z" fill="#D6812C"/>
<path d="M1215.7 731C1215.25 731 1214.88 730.608 1214.9 730.151C1215.79 689.292 1212.12 683.241 1211.97 683.002C1211.73 682.631 1211.82 682.109 1212.16 681.87C1212.53 681.608 1213 681.674 1213.28 682.044C1213.46 682.261 1217.43 688.052 1216.52 730.216C1216.52 730.673 1216.15 731.022 1215.7 731.022V731Z" fill="#D6812C"/>
<path d="M1219.13 729.89C1218.68 729.89 1218.31 729.498 1218.33 729.041C1219.22 689.837 1212.12 682.827 1212.03 682.762C1211.71 682.457 1211.67 681.935 1211.97 681.608C1212.27 681.26 1212.77 681.238 1213.11 681.521C1213.43 681.804 1220.86 688.705 1219.97 729.084C1219.97 729.542 1219.61 729.89 1219.15 729.89H1219.13Z" fill="#D6812C"/>
<path d="M1204.85 729.89C1204.39 729.89 1204.05 729.542 1204.03 729.084C1203.12 688.683 1210.57 681.783 1210.89 681.521C1211.23 681.217 1211.75 681.26 1212.05 681.608C1212.33 681.957 1212.31 682.457 1211.97 682.762C1211.86 682.871 1204.8 689.967 1205.69 729.041C1205.69 729.498 1205.34 729.868 1204.89 729.89H1204.85Z" fill="#D6812C"/>
<path d="M1215.64 680.977C1215.64 682.936 1214.06 684.547 1212.1 684.547C1210.13 684.547 1208.56 682.958 1208.56 680.977C1208.56 678.996 1210.13 677.407 1212.1 677.407C1214.06 677.407 1215.64 678.996 1215.64 680.977Z" fill="#E6322C"/>
<g style="mix-blend-mode:screen">
<path d="M1212.96 679.78C1212.96 680.607 1212.29 681.282 1211.47 681.282C1210.65 681.282 1209.98 680.607 1209.98 679.78C1209.98 678.953 1210.65 678.278 1211.47 678.278C1212.29 678.278 1212.96 678.953 1212.96 679.78Z" fill="#E6322C"/>
</g>
<path d="M1213.59 612.974C1213.13 612.974 1212.77 612.604 1212.77 612.147V585.307C1212.77 584.849 1213.13 584.479 1213.59 584.479C1214.04 584.479 1214.41 584.849 1214.41 585.307V612.147C1214.41 612.604 1214.04 612.974 1213.59 612.974Z" fill="#E1E31A"/>
<path d="M1226.23 612.974C1225.78 612.974 1225.41 612.604 1225.41 612.147V585.307C1225.41 584.849 1225.78 584.479 1226.23 584.479C1226.68 584.479 1227.05 584.849 1227.05 585.307V612.147C1227.05 612.604 1226.68 612.974 1226.23 612.974Z" fill="#E1E31A"/>
<path d="M1207.24 612.974C1206.79 612.974 1206.42 612.604 1206.42 612.147V585.307C1206.42 584.849 1206.79 584.479 1207.24 584.479C1207.7 584.479 1208.06 584.849 1208.06 585.307V612.147C1208.06 612.604 1207.7 612.974 1207.24 612.974Z" fill="#E1E31A"/>
<path d="M1200.92 612.974C1200.47 612.974 1200.1 612.604 1200.1 612.147V585.307C1200.1 584.849 1200.47 584.479 1200.92 584.479C1201.37 584.479 1201.74 584.849 1201.74 585.307V612.147C1201.74 612.604 1201.37 612.974 1200.92 612.974Z" fill="#E1E31A"/>
<path d="M1219.91 612.974C1219.45 612.974 1219.09 612.604 1219.09 612.147V585.307C1219.09 584.849 1219.45 584.479 1219.91 584.479C1220.36 584.479 1220.73 584.849 1220.73 585.307V612.147C1220.73 612.604 1220.36 612.974 1219.91 612.974Z" fill="#E1E31A"/>
<path d="M1194.6 612.974C1194.14 612.974 1193.78 612.604 1193.78 612.147V585.307C1193.78 584.849 1194.14 584.479 1194.6 584.479C1195.05 584.479 1195.42 584.849 1195.42 585.307V612.147C1195.42 612.604 1195.05 612.974 1194.6 612.974Z" fill="#E1E31A"/>
<path d="M1229.38 612.974C1228.93 612.974 1228.56 612.604 1228.56 612.147V585.307C1228.56 584.849 1228.93 584.479 1229.38 584.479C1229.83 584.479 1230.2 584.849 1230.2 585.307V612.147C1230.2 612.604 1229.83 612.974 1229.38 612.974Z" fill="#E1E31A"/>
<path d="M1210.41 612.974C1209.96 612.974 1209.59 612.604 1209.59 612.147V585.307C1209.59 584.849 1209.96 584.479 1210.41 584.479C1210.87 584.479 1211.23 584.849 1211.23 585.307V612.147C1211.23 612.604 1210.87 612.974 1210.41 612.974Z" fill="#E1E31A"/>
<path d="M1223.06 612.974C1222.61 612.974 1222.24 612.604 1222.24 612.147V585.307C1222.24 584.849 1222.61 584.479 1223.06 584.479C1223.51 584.479 1223.88 584.849 1223.88 585.307V612.147C1223.88 612.604 1223.51 612.974 1223.06 612.974Z" fill="#E1E31A"/>
<path d="M1204.09 612.974C1203.64 612.974 1203.27 612.604 1203.27 612.147V585.307C1203.27 584.849 1203.64 584.479 1204.09 584.479C1204.55 584.479 1204.91 584.849 1204.91 585.307V612.147C1204.91 612.604 1204.55 612.974 1204.09 612.974Z" fill="#E1E31A"/>
<path d="M1197.77 612.974C1197.32 612.974 1196.95 612.604 1196.95 612.147V585.307C1196.95 584.849 1197.32 584.479 1197.77 584.479C1198.22 584.479 1198.59 584.849 1198.59 585.307V612.147C1198.59 612.604 1198.22 612.974 1197.77 612.974Z" fill="#E1E31A"/>
<path d="M1216.74 612.974C1216.28 612.974 1215.92 612.604 1215.92 612.147V585.307C1215.92 584.849 1216.28 584.479 1216.74 584.479C1217.19 584.479 1217.56 584.849 1217.56 585.307V612.147C1217.56 612.604 1217.19 612.974 1216.74 612.974Z" fill="#E1E31A"/>
<path d="M1191.45 612.974C1190.99 612.974 1190.63 612.604 1190.63 612.147V585.307C1190.63 584.849 1190.99 584.479 1191.45 584.479C1191.9 584.479 1192.27 584.849 1192.27 585.307V612.147C1192.27 612.604 1191.9 612.974 1191.45 612.974Z" fill="#E1E31A"/>
<path d="M1232.55 612.974C1232.1 612.974 1231.73 612.604 1231.73 612.147V585.307C1231.73 584.849 1232.1 584.479 1232.55 584.479C1233.01 584.479 1233.37 584.849 1233.37 585.307V612.147C1233.37 612.604 1233.01 612.974 1232.55 612.974Z" fill="#E1E31A"/>
<path d="M1234.99 449.648H1188.99V587.07H1234.99V449.648Z" fill="#F1C319"/>
<g style="mix-blend-mode:multiply">
<path d="M1234.99 449.648H1222.95V587.07H1234.99V449.648Z" fill="#F1C319"/>
</g>
<g style="mix-blend-mode:multiply">
<path d="M1195.76 449.648H1191.32V587.07H1195.76V449.648Z" fill="#F1C319"/>
</g>
<g style="mix-blend-mode:screen">
<path d="M1205.9 449.648H1201.46V587.07H1205.9V449.648Z" fill="#FFF200"/>
</g>
<path d="M1234 591.598H1189.98C1189.53 591.598 1189.16 591.228 1189.16 590.77C1189.16 590.313 1189.53 589.943 1189.98 589.943H1234C1234.45 589.943 1234.82 590.313 1234.82 590.77C1234.82 591.228 1234.45 591.598 1234 591.598Z" fill="#D6812C"/>
<path d="M1203.94 625.011C1203.94 624.25 1204.22 623.509 1204.8 622.922C1205.37 622.356 1206.1 622.051 1206.88 622.051C1207.65 622.051 1208.39 622.356 1208.95 622.922L1225.11 639.226C1226.25 640.38 1226.25 642.252 1225.11 643.405C1223.96 644.559 1222.11 644.559 1220.97 643.405L1204.8 627.101C1204.24 626.535 1203.94 625.773 1203.94 625.011ZM1205.37 623.509C1204.55 624.337 1204.55 625.686 1205.37 626.535L1221.53 642.839C1222.35 643.667 1223.68 643.667 1224.53 642.839C1225.35 642.012 1225.35 640.663 1224.53 639.814L1208.36 623.509C1207.98 623.118 1207.44 622.878 1206.88 622.878C1206.31 622.878 1205.77 623.096 1205.39 623.509H1205.37Z" fill="#E6322C"/>
<path d="M1197.96 631.041C1197.96 630.279 1198.24 629.539 1198.83 628.951C1199.97 627.798 1201.83 627.798 1202.97 628.951L1219.13 645.256C1220.27 646.409 1220.27 648.281 1219.13 649.435C1217.99 650.589 1216.13 650.589 1214.99 649.435L1198.83 633.131C1198.27 632.565 1197.96 631.803 1197.96 631.041ZM1219.17 647.345C1219.17 646.801 1218.96 646.257 1218.55 645.843L1202.39 629.539C1201.57 628.712 1200.23 628.712 1199.39 629.539C1198.57 630.366 1198.57 631.738 1199.39 632.565L1215.55 648.869C1216.37 649.696 1217.71 649.696 1218.55 648.869C1218.96 648.456 1219.17 647.911 1219.17 647.367V647.345Z" fill="#E6322C"/>
<path d="M1203.94 647.345C1203.94 646.584 1204.22 645.843 1204.8 645.256L1220.97 628.951C1222.11 627.798 1223.96 627.798 1225.11 628.951C1226.25 630.105 1226.25 631.977 1225.11 633.131L1208.95 649.435C1208.39 650.001 1207.65 650.306 1206.88 650.306C1206.1 650.306 1205.37 650.001 1204.8 649.435C1204.24 648.869 1203.94 648.107 1203.94 647.345ZM1225.15 631.041C1225.15 630.497 1224.94 629.953 1224.53 629.539C1223.71 628.712 1222.37 628.712 1221.53 629.539L1205.37 645.843C1204.55 646.671 1204.55 648.02 1205.37 648.869C1205.75 649.261 1206.29 649.5 1206.85 649.5C1207.41 649.5 1207.95 649.283 1208.34 648.869L1224.5 632.565C1224.91 632.151 1225.13 631.607 1225.13 631.063L1225.15 631.041Z" fill="#E6322C"/>
<path d="M1197.96 641.316C1197.96 640.554 1198.24 639.814 1198.83 639.226L1214.99 622.922C1216.13 621.768 1217.99 621.768 1219.13 622.922C1220.27 624.076 1220.27 625.948 1219.13 627.101L1202.97 643.406C1201.83 644.559 1199.97 644.559 1198.83 643.406C1198.27 642.84 1197.96 642.078 1197.96 641.316ZM1219.17 625.012C1219.17 624.467 1218.96 623.923 1218.55 623.51C1217.73 622.682 1216.39 622.682 1215.55 623.51L1199.39 639.814C1198.57 640.641 1198.57 641.991 1199.39 642.84C1200.21 643.667 1201.55 643.667 1202.39 642.84L1218.55 626.535C1218.96 626.122 1219.17 625.577 1219.17 625.033V625.012Z" fill="#E6322C"/>
<path d="M1222.69 636.178C1222.69 633.98 1224.46 632.173 1226.66 632.173C1228.86 632.173 1230.63 633.98 1230.63 636.178C1230.63 638.377 1228.86 640.184 1226.66 640.184C1224.46 640.184 1222.69 638.399 1222.69 636.178ZM1229.81 636.178C1229.81 634.415 1228.39 633 1226.66 633C1224.94 633 1223.51 634.437 1223.51 636.178C1223.51 637.92 1224.94 639.357 1226.66 639.357C1228.39 639.357 1229.81 637.92 1229.81 636.178Z" fill="#E6322C"/>
<path d="M1193.35 636.178C1193.35 633.98 1195.12 632.173 1197.32 632.173C1199.52 632.173 1201.29 633.98 1201.29 636.178C1201.29 638.377 1199.52 640.184 1197.32 640.184C1195.12 640.184 1193.35 638.399 1193.35 636.178ZM1200.47 636.178C1200.47 634.415 1199.04 633 1197.32 633C1195.59 633 1194.17 634.437 1194.17 636.178C1194.17 637.92 1195.59 639.357 1197.32 639.357C1199.04 639.357 1200.47 637.92 1200.47 636.178Z" fill="#E6322C"/>
<path d="M1211.99 585.111C1251.2 585.111 1282.98 556.77 1282.98 521.809C1282.98 486.849 1251.2 458.508 1211.99 458.508C1172.78 458.508 1141 486.849 1141 521.809C1141 556.77 1172.78 585.111 1211.99 585.111Z" fill="#E6322C"/>
<path d="M1211.43 584.479L1211.34 582.825C1237.17 581.367 1258.04 571.027 1270.1 553.656C1280.13 539.202 1282.78 521.613 1277.54 504.134C1265.74 464.646 1214.04 460.598 1213.52 460.576L1213.63 458.921C1214.17 458.965 1266.97 463.079 1279.12 503.655C1284.49 521.635 1281.77 539.746 1271.43 554.614C1259.09 572.398 1237.77 582.999 1211.43 584.479Z" fill="#EFC45D"/>
<path d="M1211.6 584.479L1211.47 582.825C1227.65 581.606 1241.2 574.183 1250.61 561.362C1261.72 546.211 1265.59 524.792 1260.95 504.068C1252.1 464.646 1213.5 460.598 1213.11 460.554L1213.26 458.9C1213.67 458.943 1253.44 463.079 1262.54 503.698C1267.29 524.879 1263.32 546.799 1251.93 562.341C1242.22 575.576 1228.28 583.217 1211.6 584.479Z" fill="#EFC45D"/>
<path d="M1211.77 584.479L1211.6 582.847C1219.52 581.954 1226.42 577.71 1232.14 570.221C1243.36 555.484 1248.15 529.515 1244.36 504.047C1241.27 483.454 1232.83 472.744 1226.27 467.367C1219.2 461.555 1212.74 460.598 1212.68 460.598L1212.9 458.965C1213.18 459.009 1219.78 459.988 1227.22 466.018C1234.04 471.569 1242.8 482.627 1245.97 503.807C1249.9 530.103 1245.11 555.942 1233.44 571.244C1227.52 578.994 1220.04 583.587 1211.77 584.523V584.479Z" fill="#EFC45D"/>
<path d="M1212.01 584.458L1211.67 582.847C1223.38 580.213 1230.76 544.1 1227.76 503.96C1224.83 464.777 1212.29 460.576 1212.16 460.532L1212.59 458.943C1213.15 459.096 1226.34 463.21 1229.38 503.829C1232.1 540.116 1226.23 581.258 1212.01 584.458Z" fill="#EFC45D"/>
<path d="M1212.81 459.749H1211.17V583.652H1212.81V459.749Z" fill="#EFC45D"/>
<path d="M1211.97 584.458C1197.75 581.28 1191.88 540.116 1194.6 503.829C1197.64 463.21 1210.82 459.096 1211.39 458.943L1211.82 460.532C1211.69 460.576 1199.15 464.755 1196.22 503.96C1193.22 544.1 1200.6 580.213 1212.31 582.847L1211.97 584.458Z" fill="#EFC45D"/>
<path d="M1212.21 584.479C1203.94 583.543 1196.45 578.972 1190.54 571.201C1178.89 555.898 1174.08 530.059 1178.01 503.764C1181.18 482.583 1189.96 471.525 1196.76 465.974C1204.18 459.923 1210.8 458.943 1211.08 458.921L1211.3 460.554C1211.3 460.554 1204.78 461.534 1197.71 467.324C1191.17 472.679 1182.71 483.41 1179.62 504.003C1175.83 529.472 1180.62 555.441 1191.84 570.178C1197.55 577.666 1204.46 581.932 1212.38 582.803L1212.21 584.436V584.479Z" fill="#EFC45D"/>
<path d="M1212.4 584.479C1195.72 583.239 1181.78 575.576 1172.07 562.341C1160.68 546.821 1156.71 524.9 1161.46 503.698C1170.56 463.079 1210.35 458.943 1210.74 458.9L1210.89 460.554C1210.5 460.598 1171.9 464.646 1163.05 504.068C1158.41 524.792 1162.25 546.211 1173.37 561.362C1182.77 574.183 1196.3 581.606 1212.51 582.825L1212.38 584.479H1212.4Z" fill="#EFC45D"/>
<path d="M1212.57 584.479C1186.23 582.999 1164.93 572.398 1152.57 554.614C1142.23 539.746 1139.51 521.657 1144.88 503.655C1157.01 463.079 1209.83 458.965 1210.37 458.922L1210.48 460.576C1209.96 460.619 1158.26 464.668 1146.46 504.134C1141.24 521.635 1143.87 539.224 1153.9 553.656C1165.96 571.027 1186.83 581.367 1212.66 582.825L1212.57 584.479Z" fill="#EFC45D"/>
<g style="mix-blend-mode:screen">
<g style="mix-blend-mode:screen" opacity="0.6">
<path d="M1199.45 480.668C1198.12 478.948 1196.91 477.337 1194.88 476.488C1192.72 475.596 1190.5 474.964 1188.15 474.986C1182.84 475.008 1177.47 476.292 1173.15 479.579C1168.92 482.801 1164.82 487.655 1164.28 493.141C1163.85 497.473 1166.22 501.064 1170.22 502.24C1170.52 502.566 1170.84 502.871 1171.25 503.132C1173.34 504.482 1176.28 504.569 1178.65 504.438C1183.08 504.199 1187.84 502.545 1191.4 499.932C1195.22 497.124 1199 494.207 1200.53 489.527C1201.59 486.349 1201.5 483.345 1199.43 480.668H1199.45Z" fill="#E97A7C"/>
</g>
<g style="mix-blend-mode:screen" opacity="0.6">
<path d="M1175.29 511.034C1174.77 510.359 1174.32 509.75 1173.52 509.423C1172.68 509.075 1171.83 508.836 1170.93 508.836C1168.88 508.836 1166.81 509.336 1165.14 510.599C1163.51 511.839 1161.93 513.712 1161.74 515.823C1161.56 517.499 1162.49 518.871 1164.02 519.328C1164.13 519.458 1164.26 519.567 1164.43 519.676C1165.23 520.198 1166.37 520.22 1167.28 520.177C1168.99 520.09 1170.82 519.437 1172.2 518.435C1173.67 517.347 1175.11 516.237 1175.72 514.43C1176.13 513.211 1176.08 512.057 1175.29 511.012V511.034Z" fill="#E97A7C"/>
</g>
</g>
<g style="mix-blend-mode:multiply" opacity="0.59">
<path d="M1211.99 458.508C1172.78 458.508 1141 486.85 1141 521.809C1141 556.769 1172.78 585.111 1211.99 585.111C1251.2 585.111 1282.98 556.769 1282.98 521.809C1282.98 486.85 1251.2 458.508 1211.99 458.508ZM1212.4 549.085C1178.57 549.085 1151.14 530.342 1151.14 507.246C1151.14 484.151 1178.57 465.408 1212.4 465.408C1246.23 465.408 1273.66 484.151 1273.66 507.246C1273.66 530.342 1246.23 549.085 1212.4 549.085Z" fill="#A1201C"/>
</g>
</g>
<path d="M265.373 87.7383C264.972 77.9239 258.204 68.6443 248.974 65.2748C239.745 61.9053 226.636 64.2586 219.975 71.479C209.407 42.7044 177.465 23.4767 147.074 27.5415C116.683 31.6331 90.4928 61.3169 87.8711 91.8566C67.994 85.7593 42.6327 93.9692 30.3266 110.71C18.0205 127.45 19.1174 153.765 32.3063 170.505C12.6968 169.65 -7.15353 176.603 -21.9476 189.466C-31.204 197.515 -38.4004 207.624 -46.6133 216.743C-54.8263 225.862 -64.5375 234.339 -76.4155 237.468C-88.2936 240.624 -102.606 237.067 -109 226.584C-103.061 265.333 -60.8456 273.329 -38.3468 262.044C-22.7502 254.209 1.54102 236.131 18.7428 233.162C37.095 230.007 54.2433 247.63 69.3317 258.568C84.42 269.505 102.157 280.79 120.322 276.645C136.052 273.062 147.395 258.675 162.885 254.182C183.136 248.299 203.575 260.52 223.024 268.649C249.884 279.908 280.649 283.705 308.311 274.64C335.973 265.574 359.676 242.335 364.999 213.721C370.296 185.107 354.138 152.775 326.556 143.496C331.238 126.755 326.636 109.373 313.849 97.5527C301.088 85.7326 281.532 81.8282 265.186 87.7917L265.347 87.658L265.373 87.7383Z" fill="#BB1605" stroke="#DFB850" stroke-linecap="round" stroke-linejoin="round"/>
<path d="M87.9514 91.1346C89.1552 100.173 91.2686 106.297 95.7363 114.24C100.204 122.182 107.106 129.002 115.64 132.184C124.201 135.366 134.447 134.457 141.617 128.814C148.76 123.145 151.97 112.528 148.037 104.292C144.105 96.0552 132.762 91.9636 124.977 96.6702C120.375 99.4514 117.513 105.736 120.161 110.442" stroke="#DFB850" stroke-linecap="round" stroke-linejoin="round"/>
<path d="M137.764 189.787C149.428 200.056 164.945 206.019 180.488 205.484C196.004 204.976 211.334 197.783 221.152 185.722C230.943 173.661 234.822 156.84 230.649 141.891C228.91 135.687 225.807 129.75 221.045 125.391C210.023 115.229 190.574 116.326 180.755 127.664C174.549 134.831 172.489 145.903 177.224 154.112C181.959 162.322 194.051 165.879 201.703 160.263" stroke="#DFB850" stroke-linecap="round" stroke-linejoin="round"/>
<path d="M265.373 87.7383C256.492 90.4393 249.188 95.6808 245.657 104.238C242.099 112.796 244.025 123.787 251.302 129.536C255.207 132.612 260.264 134.029 265.24 134.163C269.279 134.27 273.426 133.548 276.904 131.489C280.381 129.403 283.083 125.846 283.538 121.835C283.993 117.823 281.826 113.464 278.108 111.887C274.389 110.309 269.413 112.154 268.075 115.978" stroke="#DFB850" stroke-linecap="round" stroke-linejoin="round"/>
<path d="M326.556 143.549C316.524 141.49 305.957 143.095 296.701 147.48C287.444 151.866 279.9 160.237 277.573 170.211C275.245 180.186 278.723 191.552 286.909 197.729C295.095 203.907 307.749 203.773 315.16 196.713C318.102 193.905 320.216 190.027 320.296 185.963C320.376 181.898 318.236 177.699 314.571 175.907C310.906 174.116 305.903 175.266 303.817 178.796" stroke="#DFB850" stroke-linecap="round" stroke-linejoin="round"/>
<path d="M31.691 169.73C37.4695 173.581 41.2683 175.48 47.8227 177.779C54.377 180.106 61.5734 181.015 68.315 179.277C75.0566 177.539 81.2097 172.939 83.8314 166.494C86.4264 160.049 84.9015 151.893 79.4975 147.534C74.0936 143.175 65.0245 143.844 60.9581 149.486C58.6039 152.749 58.2026 157.509 60.5568 160.798" stroke="#DFB850" stroke-linecap="round" stroke-linejoin="round"/>
<path d="M107.507 74.7416C112.858 58.4823 126.181 45.0577 142.392 39.6023C158.604 34.1469 177.331 36.7677 191.43 46.4751" stroke="#DFB850" stroke-linecap="round" stroke-linejoin="round"/>
<path d="M70.803 100.494C59.5403 99.5852 47.9565 104.105 40.2785 112.395C32.6006 120.685 29.0158 132.612 30.8349 143.763" stroke="#DFB850" stroke-linecap="round" stroke-linejoin="round"/>
<path d="M-70.9313 245.437C-58.4379 248.325 -45.7037 241.319 -36.3671 232.521C-27.0305 223.722 -19.5934 212.919 -9.26694 205.297C2.77165 196.419 18.0205 192.568 32.9751 192.782C47.9297 192.996 62.6168 197.087 76.3676 202.917C85.3029 206.688 95.7898 211.154 104.137 206.206" stroke="#DFB850" stroke-linecap="round" stroke-linejoin="round"/>
<path d="M-32.0065 244.207C-15.527 240.41 -7.09996 221.583 7.9349 213.881C18.7696 208.319 32.0388 209.228 43.4086 213.641C54.7784 218.053 64.5965 225.568 74.1204 233.163" stroke="#DFB850" stroke-linecap="round" stroke-linejoin="round"/>
<path d="M344.106 180.159C351.864 195.536 350.874 214.603 342.955 229.9C335.037 245.197 320.724 256.722 304.592 262.739C288.461 268.756 270.644 269.559 253.656 266.644" stroke="#DFB850" stroke-linecap="round" stroke-linejoin="round"/>
<path d="M254.672 107.955C254.672 107.955 263.073 92.1241 283.592 92.1241C304.111 92.1241 311.602 109.105 311.602 109.105" stroke="#DFB850" stroke-linecap="round" stroke-linejoin="round"/>
<path d="M219.44 164.702C217.246 178.207 205.742 188.904 192.767 193.236C179.792 197.569 165.266 196.659 152.184 190.616" stroke="#DFB850" stroke-linecap="round" stroke-linejoin="round"/>
<path d="M834.094 147.939C806.344 120.474 761.379 112.166 725.663 127.926C707.677 135.862 692.517 148.995 675.33 158.559C658.144 168.123 635.961 173.719 618.003 165.697C627.196 150.765 626.425 127.669 613.977 115.335C601.53 103.002 577.063 101.945 562.217 111.253C566.385 80.5618 543.774 48.3294 514.825 37.3378C485.876 26.3462 452.101 33.141 426.321 50.2993C415.815 57.2654 407.964 66.4012 402.168 77.5927C396.373 88.7841 394.574 103.887 399.799 115.364C390.463 112.052 377.273 114.593 370.25 121.559C363.227 128.525 362.798 140.43 366.024 149.766C339.902 158.788 319.26 182.198 313.607 209.235C307.955 236.271 317.49 265.991 337.817 284.72C358.145 303.448 388.521 310.5 415.015 302.62C421.411 318.066 436.799 330.313 453.415 328.229C470.002 326.145 487.731 311.185 490.129 294.626C527.415 315.268 575.664 312.727 614.891 296.082C654.118 279.41 686.493 249.747 713.987 217.2C729.261 199.1 741.908 178.915 760.951 164.812C779.993 150.708 811.74 140.173 834.123 147.939H834.094Z" fill="#BB1605" stroke="#DFB850" stroke-linecap="round" stroke-linejoin="round"/>
<path d="M562.217 111.252C561.018 123.386 554.737 137.347 543.974 146.625C534.753 154.562 523.333 160.301 511.199 161.271C499.066 162.27 486.304 158.131 478.139 149.081C469.974 140.059 467.29 126.013 472.8 115.164C476.055 108.769 482.421 103.63 489.587 103.316C496.753 103.03 504.119 108.654 504.376 115.82" stroke="#DFB850" stroke-linecap="round" stroke-linejoin="round"/>
<path d="M366.025 149.766C376.331 145.569 387.808 144.284 399.256 146.911C410.705 149.537 421.125 155.847 429.462 164.098C439.054 173.605 446.135 186.138 447.105 199.585C448.076 213.06 442.252 227.306 430.861 234.587C419.469 241.867 402.768 240.553 393.975 230.304C389.578 225.194 387.437 217.6 390.377 211.519" stroke="#DFB850" stroke-linecap="round" stroke-linejoin="round"/>
<path d="M476.226 232.331C477.396 215.23 484.734 198.357 497.381 186.795C510.057 175.232 528.158 169.465 544.973 172.891C561.789 176.317 576.578 189.393 580.831 206.009C585.085 222.624 577.777 241.895 562.902 250.46C556.479 254.172 548.742 255.885 541.49 254.257C534.267 252.63 527.701 247.405 525.388 240.354C523.076 233.302 525.56 224.708 531.783 220.683" stroke="#DFB850" stroke-linecap="round" stroke-linejoin="round"/>
<path d="M618.888 165.211C615.119 170.236 610.266 174.575 604.47 176.974C598.675 179.372 591.88 179.657 586.17 177.059C580.46 174.461 576.121 168.694 575.892 162.413C575.664 156.132 580.06 149.794 586.199 148.453C592.337 147.111 599.303 151.593 600.017 157.845" stroke="#DFB850" stroke-linecap="round" stroke-linejoin="round"/>
<path d="M744.906 136.176C729.575 139.031 716.042 147.853 703.766 157.503C691.518 167.153 679.956 177.887 666.423 185.596C652.891 193.304 636.646 197.872 621.572 193.846" stroke="#DFB850" stroke-linecap="round" stroke-linejoin="round"/>
<path d="M759.095 151.193C741.337 160.158 727.576 175.375 715.328 191.049C703.109 206.751 691.832 223.395 677.215 236.871C662.569 250.346 643.726 260.595 623.827 260.11" stroke="#DFB850" stroke-linecap="round" stroke-linejoin="round"/>
<path d="M704.08 174.433C692.146 189.906 678.842 204.667 662.626 215.601C646.41 226.536 626.939 233.445 607.44 232.074" stroke="#DFB850" stroke-linecap="round" stroke-linejoin="round"/>
<path d="M351.664 181.656C334.963 194.817 327.14 218.256 332.593 238.812C338.046 259.368 356.46 275.841 377.501 278.981" stroke="#DFB850" stroke-linecap="round" stroke-linejoin="round"/>
<path d="M522.59 184.653C532.326 181.57 543.317 182.198 552.31 187.08C561.275 191.962 567.956 201.155 569.04 211.319C570.154 221.454 565.329 232.217 556.65 237.556" stroke="#DFB850" stroke-linecap="round" stroke-linejoin="round"/>
<path d="M478.909 299.394C474.97 308.787 466.091 315.924 456.07 317.751C446.049 319.579 435.229 316.038 428.234 308.644" stroke="#DFB850" stroke-linecap="round" stroke-linejoin="round"/>
<path d="M498.609 46.2166C513.083 50.3562 526.416 59.0353 535.209 71.2831C544.002 83.5308 547.942 99.3758 544.887 114.136C541.804 128.896 531.441 142.172 517.423 147.739" stroke="#DFB850" stroke-linecap="round" stroke-linejoin="round"/>
<path d="M468.546 47.1016C454.328 48.2721 440.51 54.0677 429.719 63.4034C418.927 72.7391 411.218 85.5864 408.021 99.49" stroke="#DFB850" stroke-linecap="round" stroke-linejoin="round"/>
<g clip-path="url(#clip2_4009_118)">
<path d="M734.323 111.529C721.569 106.502 706.131 109.016 695.618 117.826C685.105 126.637 679.959 141.358 682.698 154.781C674.814 151.411 664.882 153.566 659.099 159.89C653.317 166.215 652.045 176.269 656.084 183.809C639.982 184.748 622.608 197.397 618.043 212.864C613.478 228.331 618.541 245.924 629.801 257.442C641.061 268.959 657.937 274.428 674.011 272.853C688.619 271.417 702.535 264.65 717.198 264.788C742.844 265.037 765.668 286.221 791.149 283.266C810.238 281.056 825.039 265.866 842.939 258.85C870.743 247.941 901.95 257.856 929.92 268.351C957.891 278.847 988.212 290.088 1016.85 281.636C1061.03 268.572 1079.18 201.292 1128.59 195.464C1107.01 188.891 1083.16 189.94 1062.25 198.364C1050.96 202.921 1040.5 209.522 1028.77 212.726C1017.04 215.93 1003.04 214.936 994.714 206.07C985.999 196.79 986.331 182.593 983.509 170.192C979.166 151.08 965.803 134.232 948.152 125.643C930.529 117.053 908.977 116.887 891.216 125.228C889.943 102.415 878.047 77.1707 860.12 62.9468C842.192 48.7229 818.067 42.5914 795.492 46.541C772.944 50.4905 752.333 64.4106 740.299 83.8546C735.568 91.5328 733.687 103.326 734.268 111.529H734.323Z" fill="#BB1605" stroke="#DFB850" stroke-linecap="round" stroke-linejoin="round"/>
<path d="M734.212 109.375C736.176 120.947 742.899 131.636 752.472 138.458C762.044 145.28 774.355 148.125 785.947 146.247C794.219 144.893 802.298 141.026 807.637 134.564C812.977 128.101 815.273 118.903 812.451 111.004C809.629 103.105 801.302 97.2223 792.974 98.2442C784.647 99.2661 777.731 107.911 779.557 116.086" stroke="#DFB850" stroke-linecap="round" stroke-linejoin="round"/>
<path d="M892.35 124.731C878.988 127.769 869.526 143.043 871.767 156.521C874.008 169.999 887.149 180.632 900.844 180.577C906.045 180.577 911.44 179.058 915.119 175.385C918.799 171.739 920.293 165.635 917.692 161.161C915.119 156.659 908.092 155.085 904.44 158.758" stroke="#DFB850" stroke-linecap="round" stroke-linejoin="round"/>
<path d="M743.868 244.875C730.007 250.316 713.85 250.095 700.515 243.522C687.18 236.948 676.999 223.912 674.675 209.218C672.351 194.553 678.244 178.644 690.057 169.612C701.871 160.581 719.273 159.172 732.027 166.85C738.03 170.469 743.065 176.131 744.615 182.953C746.192 189.774 743.729 197.674 737.836 201.457C731.944 205.241 722.869 203.612 719.549 197.425" stroke="#DFB850" stroke-linecap="round" stroke-linejoin="round"/>
<path d="M816.518 257.884C799.504 271.666 774.134 274.207 754.74 264.043" stroke="#DFB850" stroke-linecap="round" stroke-linejoin="round"/>
<path d="M635.666 203.474C628.805 214.438 627.865 228.856 633.204 240.649C638.544 252.443 650.025 261.253 662.807 263.352" stroke="#DFB850" stroke-linecap="round" stroke-linejoin="round"/>
<path d="M773.608 72.7516C789.821 60.5163 812.036 56.6496 831.43 62.643C850.851 68.664 866.953 84.407 873.371 103.658" stroke="#DFB850" stroke-linecap="round" stroke-linejoin="round"/>
<path d="M895.532 141.413C903.361 132.63 915.479 127.824 927.209 128.819C938.967 129.813 950.061 136.607 956.314 146.578" stroke="#DFB850" stroke-linecap="round" stroke-linejoin="round"/>
</g>
<path d="M1575.37 2.97551C1576.02 23.7316 1554.72 43.6169 1534.36 47.8987C1514 52.1806 1492.95 46.5198 1473.25 39.843C1453.54 33.1662 1433.69 25.292 1412.9 25.1468C1392.1 24.9654 1368.4 34.5451 1360.26 53.6683C1341.53 20.1755 1296.53 -3.22955 1258.61 2.75779C1220.69 8.74513 1193.35 40.9316 1185.97 78.5249C1175.4 72.211 1156.13 75.2591 1146.06 82.3713C1135.99 89.4835 1130.28 102.039 1130.68 114.34C1111.56 99.0633 1081.53 95.616 1058.52 103.962C1035.5 112.308 1017.51 133.137 1012.64 157.086C1007.77 181.035 1016.2 207.235 1034.16 223.854C1017.11 232.635 997.368 228.136 979.991 220.044C962.613 211.952 946.836 200.413 928.658 194.28C910.481 188.184 888.087 188.837 874.854 202.699C893.649 194.788 915.716 202.699 931.967 215C948.217 227.301 960.977 243.739 977.01 256.331C1011.8 283.655 1077.75 284.816 1109.38 267.689C1114.28 286.231 1135.51 298.678 1154.13 293.997C1170.31 289.932 1182.45 275.345 1198.81 272.079C1217.64 268.305 1235.45 280.244 1252.94 288.118C1276.06 298.532 1302.53 302.234 1327.21 296.319C1351.9 290.404 1374.36 274.329 1386.03 251.868C1394.25 236.046 1397.92 216.524 1412.46 206.182C1422.93 198.743 1436.71 197.981 1448.2 192.248C1467.54 182.559 1477.64 157.594 1470.41 137.237C1465.21 122.541 1452.31 107.337 1459.58 93.5477C1462.7 87.6692 1468.88 84.0768 1475.03 81.5004C1490.11 75.1502 1506.62 73.0818 1522.58 69.562C1538.57 66.0422 1554.86 60.5991 1566.53 49.1688C1578.2 37.7021 1583.18 17.3088 1575.29 3.0118L1575.37 2.97551Z" fill="#BB1605" stroke="#DFB850" stroke-linecap="round" stroke-linejoin="round"/>
<path d="M1131.01 114.703C1142.82 123.23 1147.66 140.249 1142.06 153.711C1136.46 167.174 1120.97 175.738 1106.58 173.379C1097.02 171.819 1087.93 165.214 1085.38 155.852C1082.84 146.49 1088.73 135.169 1098.25 133.5" stroke="#DFB850" stroke-linecap="round" stroke-linejoin="round"/>
<path d="M1186.08 78.162C1182.41 89.7738 1184.74 103.091 1192.08 112.816C1199.43 122.541 1211.6 128.419 1223.82 128.129C1232.83 127.911 1241.85 124.319 1247.89 117.642C1253.92 111.002 1256.65 101.204 1254.07 92.6042C1251.48 84.0042 1243.34 77.1097 1234.33 76.7831C1225.35 76.4565 1216.4 83.3148 1215.09 92.205" stroke="#DFB850" stroke-linecap="round" stroke-linejoin="round"/>
<path d="M1513.6 60.0911C1500.51 68.2557 1483.75 67.3485 1468.74 63.9375C1453.72 60.5266 1439.04 54.7932 1423.66 54.1764C1408.21 53.5595 1392.79 58.1679 1379.6 66.2236C1362.15 76.8557 1348.19 94.1645 1344.44 114.231C1340.7 134.298 1348.48 156.796 1365.56 168.045C1382.65 179.294 1408.39 176.572 1420.75 160.316C1426.64 152.586 1429.26 142.136 1426.49 132.846C1423.73 123.557 1415.08 115.937 1405.37 115.501C1395.67 115.03 1385.89 122.65 1385.01 132.302" stroke="#DFB850" stroke-linecap="round" stroke-linejoin="round"/>
<path d="M1227.16 181.507C1227.49 187.349 1233.13 191.776 1238.91 192.684C1248.61 194.244 1258.72 187.349 1261.59 177.987C1264.5 168.589 1260.5 157.776 1252.76 151.716C1245.01 145.692 1234.07 144.349 1224.73 147.434C1215.38 150.518 1207.68 157.703 1203.06 166.376C1193.39 184.374 1197.79 208.722 1213.17 222.185C1224.66 232.273 1240.47 235.974 1255.74 236.663C1268.9 237.244 1282.46 235.72 1294.35 230.023C1306.23 224.326 1316.3 213.984 1319.58 201.211" stroke="#DFB850" stroke-linecap="round" stroke-linejoin="round"/>
<path d="M1109.34 268.088C1106.47 257.238 1107.27 245.263 1112.43 235.321C1117.59 225.342 1127.37 217.649 1138.5 215.907C1149.58 214.165 1161.73 218.81 1168.02 228.1C1171.94 233.869 1173.5 241.381 1171.47 248.057C1169.43 254.734 1163.54 260.286 1156.64 261.193C1149.73 262.137 1142.24 257.891 1140.1 251.251" stroke="#DFB850" stroke-linecap="round" stroke-linejoin="round"/>
<path d="M1370.8 239.058C1361.35 257.782 1344.22 272.478 1324.27 279.046C1304.31 285.578 1281.77 283.909 1263.05 274.438" stroke="#DFB850" stroke-linecap="round" stroke-linejoin="round"/>
<path d="M1085.6 113.614C1066.84 115.9 1049.68 128.383 1041.76 145.511C1033.83 162.638 1035.47 183.793 1045.9 199.505" stroke="#DFB850" stroke-linecap="round" stroke-linejoin="round"/>
<path d="M1070.84 231.583C1046.34 248.493 1013.15 252.049 985.589 240.764" stroke="#DFB850" stroke-linecap="round" stroke-linejoin="round"/>
<path d="M1081.75 245.227C1066.22 253.972 1048.48 258.798 1030.67 259.089" stroke="#DFB850" stroke-linecap="round" stroke-linejoin="round"/>
<path d="M1222.22 44.5603C1233.82 26.5983 1255.41 15.5671 1276.79 16.7283C1298.16 17.8894 1318.45 31.0979 1328.08 50.1848" stroke="#DFB850" stroke-linecap="round" stroke-linejoin="round"/>
<defs>
<clipPath id="clip0_4009_118">
<rect width="190" height="632" fill="white" transform="translate(77 256)"/>
</clipPath>
<clipPath id="clip1_4009_118">
<rect width="142" height="475" fill="white" transform="translate(1141 256)"/>
</clipPath>
<clipPath id="clip2_4009_118">
<rect width="515" height="242" fill="white" transform="translate(615 44)"/>
</clipPath>
</defs>
</svg>
