<svg width="1318" height="414" viewBox="0 0 1318 414" fill="none" xmlns="http://www.w3.org/2000/svg">
<g opacity="0.05">
<path d="M149.499 57.6849H417V105.608H149.499V57.6849ZM200.959 0H251.974V155.749H200.959V0ZM312.306 0H363.766V155.749H312.306V0ZM164.582 169.505H403.248V411.781H352.676V216.096H212.493V414H164.582V169.505ZM191.643 258.251H374.413V303.511H191.643V258.251ZM192.973 346.553H375.744V393.145H192.973V346.553ZM257.742 192.579H305.209V381.164H257.742V192.579ZM12.8649 35.9421L49.6851 7.54341C133.085 77.6527 143.732 156.193 143.732 241.389C143.732 302.18 138.852 362.084 118.889 389.151C111.791 398.469 102.476 404.238 91.3851 406.457C74.9713 410.894 56.3394 411.338 35.933 410.006C35.933 393.588 31.0532 374.064 22.1809 359.421C43.0308 360.752 58.1138 360.752 66.9862 359.865C73.1968 358.978 77.1894 356.759 80.2947 351.878C89.6106 339.897 93.1596 293.305 93.1596 240.058C93.1596 159.743 81.6255 94.9582 12.8649 35.9421ZM96.2649 161.518L135.747 184.592C114.01 228.077 72.7532 279.55 37.2638 309.28C28.8351 296.412 14.1957 279.106 1.33085 269.344C36.8202 246.714 76.7457 201.01 96.2649 161.518ZM114.453 8.43087L154.379 40.8232C123.769 89.1897 78.9638 132.675 34.1585 163.293C26.617 152.199 11.0904 135.338 0 126.019C44.3617 96.7331 87.3925 51.9164 114.453 8.43087Z" fill="url(#paint0_linear_2358_6359)"/>
<path d="M599.499 57.6849H867V105.608H599.499V57.6849ZM650.959 0H701.974V155.749H650.959V0ZM762.306 0H813.766V155.749H762.306V0ZM614.582 169.505H853.248V411.781H802.676V216.096H662.493V414H614.582V169.505ZM641.643 258.251H824.413V303.511H641.643V258.251ZM642.973 346.553H825.744V393.145H642.973V346.553ZM707.742 192.579H755.209V381.164H707.742V192.579ZM462.865 35.9421L499.685 7.54341C583.085 77.6527 593.732 156.193 593.732 241.389C593.732 302.18 588.852 362.084 568.889 389.151C561.791 398.469 552.476 404.238 541.385 406.457C524.971 410.894 506.339 411.338 485.933 410.006C485.933 393.588 481.053 374.064 472.181 359.421C493.031 360.752 508.114 360.752 516.986 359.865C523.197 358.978 527.189 356.759 530.295 351.878C539.611 339.897 543.16 293.305 543.16 240.058C543.16 159.743 531.626 94.9582 462.865 35.9421ZM546.265 161.518L585.747 184.592C564.01 228.077 522.753 279.55 487.264 309.28C478.835 296.412 464.196 279.106 451.331 269.344C486.82 246.714 526.746 201.01 546.265 161.518ZM564.453 8.43087L604.379 40.8232C573.769 89.1897 528.964 132.675 484.159 163.293C476.617 152.199 461.09 135.338 450 126.019C494.362 96.7331 537.393 51.9164 564.453 8.43087Z" fill="url(#paint1_linear_2358_6359)"/>
<path d="M1050.5 57.6849H1318V105.608H1050.5V57.6849ZM1101.96 0H1152.97V155.749H1101.96V0ZM1213.31 0H1264.77V155.749H1213.31V0ZM1065.58 169.505H1304.25V411.781H1253.68V216.096H1113.49V414H1065.58V169.505ZM1092.64 258.251H1275.41V303.511H1092.64V258.251ZM1093.97 346.553H1276.74V393.145H1093.97V346.553ZM1158.74 192.579H1206.21V381.164H1158.74V192.579ZM913.865 35.9421L950.685 7.54341C1034.09 77.6527 1044.73 156.193 1044.73 241.389C1044.73 302.18 1039.85 362.084 1019.89 389.151C1012.79 398.469 1003.48 404.238 992.385 406.457C975.971 410.894 957.339 411.338 936.933 410.006C936.933 393.588 932.053 374.064 923.181 359.421C944.031 360.752 959.114 360.752 967.986 359.865C974.197 358.978 978.189 356.759 981.295 351.878C990.611 339.897 994.16 293.305 994.16 240.058C994.16 159.743 982.626 94.9582 913.865 35.9421ZM997.265 161.518L1036.75 184.592C1015.01 228.077 973.753 279.55 938.264 309.28C929.835 296.412 915.196 279.106 902.331 269.344C937.82 246.714 977.746 201.01 997.265 161.518ZM1015.45 8.43087L1055.38 40.8232C1024.77 89.1897 979.964 132.675 935.159 163.293C927.617 152.199 912.09 135.338 901 126.019C945.362 96.7331 988.393 51.9164 1015.45 8.43087Z" fill="url(#paint2_linear_2358_6359)"/>
</g>
<defs>
<linearGradient id="paint0_linear_2358_6359" x1="180.816" y1="20" x2="180.816" y2="393.5" gradientUnits="userSpaceOnUse">
<stop stop-color="#616161"/>
<stop offset="1" stop-color="#C7C7C7"/>
</linearGradient>
<linearGradient id="paint1_linear_2358_6359" x1="630.816" y1="20" x2="630.816" y2="393.5" gradientUnits="userSpaceOnUse">
<stop stop-color="#616161"/>
<stop offset="1" stop-color="#C7C7C7"/>
</linearGradient>
<linearGradient id="paint2_linear_2358_6359" x1="1081.82" y1="20" x2="1081.82" y2="393.5" gradientUnits="userSpaceOnUse">
<stop stop-color="#616161"/>
<stop offset="1" stop-color="#C7C7C7"/>
</linearGradient>
</defs>
</svg>
