<svg width="175" height="46" viewBox="0 0 175 46" fill="none" xmlns="http://www.w3.org/2000/svg">
<g clip-path="url(#clip0_2006_545)">
<path d="M52.5991 31.7952V13.1211H60.8405C64.4964 13.1211 66.8322 15.7927 66.8322 19.1674C66.8322 22.5421 64.4964 25.0185 60.8405 25.0185H56.5089V31.7991H52.5991V31.7952ZM60.2195 21.8391C62.4693 21.8391 63.3989 20.6868 63.3989 19.0541C63.3989 17.5074 62.4693 16.3552 60.2195 16.3552H56.505V21.8391H60.2195Z" fill="#270459"/>
<path d="M76.9836 31.7951V29.8539C76.0266 31.428 74.5932 32.1584 72.6793 32.1584C69.9217 32.1584 67.9805 30.1039 67.9805 27.069V17.9565H71.6364V26.5065C71.6364 28.2486 72.4254 29.0962 73.9721 29.0962C75.8274 29.0962 76.8117 27.776 76.8117 25.9441V17.9565H80.4403V31.7951H76.9797H76.9836Z" fill="#270459"/>
<path d="M82.3267 31.7953V17.9607H85.7561V19.6207C86.9669 17.7654 88.3731 17.5974 89.8612 17.5974H90.3377V21.3393C90.0018 21.2846 89.662 21.2533 89.3261 21.2533C87.0763 21.2533 85.9787 22.3782 85.9787 24.6007V31.7993H82.3228L82.3267 31.7953Z" fill="#270459"/>
<path d="M91.6346 38.3492V17.9604H95.1499L95.1773 19.6478C96.0483 18.2416 97.3411 17.5933 99.0285 17.5933C102.516 17.5933 105.02 20.3508 105.02 25.0184C105.02 29.2094 102.911 32.1623 99.337 32.1623C97.6223 32.1623 96.2709 31.4592 95.2319 29.9984V38.3531H91.6307L91.6346 38.3492ZM101.31 24.7645C101.31 22.2881 100.017 20.5735 98.1887 20.5735C96.3607 20.5735 95.0952 22.2022 95.0952 24.5379C95.0952 27.5455 96.1381 29.0375 98.1614 29.0375C100.298 29.0375 101.313 27.6041 101.313 24.7606L101.31 24.7645Z" fill="#270459"/>
<path d="M106.625 31.7952V12.8945H110.281V31.7952H106.625Z" fill="#270459"/>
<path d="M115.457 25.8349C115.57 27.9168 116.749 29.2682 118.55 29.2682C119.73 29.2682 120.773 28.6784 121.026 27.7215H124.796C123.952 30.5611 121.675 32.1664 118.722 32.1664C114.109 32.1664 111.805 29.6354 111.805 24.628C111.805 20.3511 114.25 17.5974 118.499 17.5974C122.749 17.5974 124.995 20.355 124.995 25.8389H115.461L115.457 25.8349ZM121.222 23.5305C121.167 21.476 119.816 20.4917 118.382 20.4917C116.949 20.4917 115.711 21.6166 115.57 23.5305H121.222Z" fill="#270459"/>
<path d="M137.029 18.6323C136.834 16.7184 135.678 15.7927 133.315 15.7927C131.119 15.7927 129.967 16.5817 129.967 17.9878C129.967 19.1674 130.784 19.8431 132.865 20.3509C134.975 20.8586 137.029 21.3625 138.408 21.9835C140.04 22.7139 141.333 23.8662 141.333 26.5104C141.333 30.6155 138.24 32.4435 133.881 32.4435C129.268 32.4435 126.061 30.389 125.975 26.198H129.745C129.799 28.1119 131.405 29.2914 133.908 29.2914C136.213 29.2914 137.537 28.3072 137.537 26.6472C137.537 25.5496 136.974 24.7919 134.639 24.2841C132.334 23.7763 130.842 23.4404 129.518 22.8506C127.522 21.9523 126.397 20.6008 126.397 18.2378C126.397 14.8904 128.674 12.5 133.233 12.5C137.791 12.5 140.603 15.0584 140.744 18.6323H137.029Z" fill="#270459"/>
<path d="M151.313 31.7951C151.2 31.4592 151.118 30.9788 151.086 30.5569C150.215 31.5139 148.751 32.1583 146.895 32.1583C143.743 32.1583 142.283 30.6116 142.283 28.3618C142.283 24.37 144.954 23.9169 148.637 23.413C150.465 23.1592 150.973 22.7959 150.973 21.839C150.973 20.9406 150.075 20.4055 148.637 20.4055C146.977 20.4055 146.302 21.2218 146.134 22.46H142.732C142.786 19.5892 144.364 17.5933 148.805 17.5933C153.246 17.5933 154.711 19.5618 154.711 23.0498V31.799H151.309L151.313 31.7951ZM151.059 25.0145C150.692 25.3816 150.047 25.5769 148.696 25.8308C146.614 26.2253 145.938 26.8151 145.938 27.9986C145.938 29.0375 146.556 29.5453 147.712 29.5453C149.594 29.5453 151 28.1665 151.032 26.5378L151.059 25.0184V25.0145Z" fill="#270459"/>
<path d="M156.601 31.7952V12.8945H160.257V31.7952H156.601Z" fill="#270459"/>
<path d="M165.433 25.8349C165.546 27.9168 166.726 29.2682 168.526 29.2682C169.706 29.2682 170.749 28.6784 171.003 27.7215H174.772C173.928 30.5611 171.651 32.1664 168.698 32.1664C164.085 32.1664 161.781 29.6354 161.781 24.628C161.781 20.3511 164.226 17.5974 168.475 17.5974C172.725 17.5974 174.971 20.355 174.971 25.8389H165.437L165.433 25.8349ZM171.198 23.5305C171.143 21.476 169.792 20.4917 168.358 20.4917C166.925 20.4917 165.687 21.6166 165.546 23.5305H171.198Z" fill="#270459"/>
<path d="M33.2583 6.78781C34.7103 4.84373 35.2804 2.87528 35.3583 2.5878L35.5727 1.7936C35.7091 1.282 35.6312 0.741165 35.3486 0.292904C35.066 -0.155357 34.6128 -0.462318 34.0915 -0.554894L33.2924 -0.701066C32.8247 -0.788769 28.6003 -1.4904 25.0093 0.775271C24.5562 1.05787 24.1274 1.38432 23.723 1.74488C23.1529 1.23815 22.31 1.11147 21.5938 1.48664L20.5803 2.01773C20.5803 2.01773 20.5413 1.99337 20.5218 1.97875C17.5692 0.127242 14.0464 0.692441 13.642 0.765527L12.8332 0.916571C12.3167 1.01402 11.8587 1.32098 11.5761 1.76924C11.2935 2.2175 11.2156 2.76321 11.352 3.26994L11.5664 4.05927C11.6005 4.18108 11.8051 4.89245 12.2631 5.81333C5.51972 9.38968 1.24663 16.4059 1.24663 24.1336C1.24663 35.5545 10.5383 44.8413 21.9592 44.8413C33.3801 44.8413 42.6718 35.5496 42.6718 24.1336C42.6718 17.1465 39.0467 10.5834 33.2583 6.79269V6.78781Z" fill="white"/>
<path d="M29.3944 7.6552C27.957 7.00229 26.4417 7.50902 24.98 8.00114C23.9909 8.33246 22.9677 8.67353 21.9591 8.67353C20.9505 8.67353 19.9907 8.3081 19.0308 7.95729C17.6519 7.45056 16.2243 6.92434 14.8503 7.5139C8.1897 10.3643 3.88737 16.8884 3.88737 24.1337C3.88737 34.0977 11.995 42.2054 21.9591 42.2054C31.9232 42.2054 40.0308 34.0977 40.0308 24.1337C40.0308 17.0443 35.8552 10.5786 29.3944 7.6552Z" fill="#8A73F9"/>
<path d="M27.558 25.0543C29.1699 25.0543 30.4765 22.9711 30.4765 20.4012C30.4765 17.8313 29.1699 15.748 27.558 15.748C25.9461 15.748 24.6394 17.8313 24.6394 20.4012C24.6394 22.9711 25.9461 25.0543 27.558 25.0543Z" fill="#270459"/>
<path d="M27.5581 23.2758C28.0155 23.2758 28.3864 22.6825 28.3864 21.9505C28.3864 21.2186 28.0155 20.6252 27.5581 20.6252C27.1006 20.6252 26.7298 21.2186 26.7298 21.9505C26.7298 22.6825 27.1006 23.2758 27.5581 23.2758Z" fill="white"/>
<path d="M19.8398 22.2333H18.7191C18.7191 21.405 17.6423 20.7083 16.3657 20.7083C15.0892 20.7083 14.0124 21.405 14.0124 22.2333H12.8917C12.8917 20.7473 14.4217 19.5828 16.3706 19.5828C18.3196 19.5828 19.8495 20.7473 19.8495 22.2333H19.8398Z" fill="#270459"/>
<path d="M27.699 30.9449V30.9546C27.699 31.3688 27.6552 31.7732 27.5723 32.163C27.0169 34.7502 24.7122 36.6943 21.9544 36.6943C19.1967 36.6943 16.8969 34.7551 16.3463 32.1678C16.2635 31.7781 16.2196 31.3688 16.2196 30.9546V30.9449C16.2196 30.4528 16.6143 30.0532 17.1113 30.0532H26.8122C27.3043 30.0532 27.7039 30.4528 27.7039 30.9449H27.699Z" fill="#B70BE0"/>
<path d="M21.9592 36.8795C19.2355 36.8795 16.8335 34.9842 16.2 32.3531L16.1659 32.2069C16.0782 31.7928 16.0344 31.3737 16.0344 30.9547C16.0344 30.3505 16.5167 29.8682 17.1112 29.8682H26.8121C27.4066 29.8682 27.8889 30.3505 27.8889 30.945V30.9547C27.8889 31.3689 27.8451 31.7879 27.7574 32.202C27.1727 34.916 24.7365 36.8844 21.9592 36.8844V36.8795ZM16.507 32.0266L16.5314 32.1241C17.0722 34.6626 19.3574 36.5044 21.9592 36.5044C24.5611 36.5044 26.8462 34.6626 27.3919 32.1192C27.4748 31.7343 27.5138 31.3396 27.5138 30.9498V30.9401C27.5138 30.5503 27.197 30.2385 26.8121 30.2385H17.1112C16.7214 30.2385 16.4096 30.5552 16.4096 30.9401C16.4096 31.3055 16.4437 31.6661 16.5119 32.0218L16.507 32.0266Z" fill="black"/>
<path d="M24.4736 32.2167C24.4736 32.4018 24.4541 32.5772 24.42 32.7478C24.1763 33.883 23.1678 34.7308 21.9594 34.7308C20.751 34.7308 19.7473 33.883 19.5037 32.7478C19.4696 32.5772 19.4501 32.397 19.4501 32.2167C19.4501 31.9974 19.6255 31.822 19.8399 31.822H24.0886C24.303 31.822 24.4784 31.9974 24.4784 32.2118L24.4736 32.2167Z" fill="#9B08BF"/>
<path d="M27.6991 30.799C27.6991 31.1546 27.6553 31.4908 27.5724 31.8173C27.1485 31.9001 26.2423 32.1778 24.7026 32.3532C23.9474 32.4361 23.0362 32.4994 21.9546 32.4994C20.8729 32.4994 19.9666 32.441 19.2114 32.3581C17.6522 32.1876 16.746 31.9099 16.3464 31.8222C16.2636 31.4957 16.2197 31.1546 16.2197 30.8087C16.2197 30.3945 16.6144 30.0583 17.1114 30.0583H26.8123C27.3045 30.0583 27.704 30.3945 27.704 30.8038L27.6991 30.799Z" fill="#E3E0FD"/>
<path d="M24.7022 30.0535C24.7022 30.0535 24.8776 30.4189 24.8776 31.2764C24.8776 32.0706 24.7022 32.3484 24.7022 32.3484C23.947 32.4312 23.0359 32.4945 21.9542 32.4945C20.8725 32.4945 19.9662 32.4361 19.211 32.3532C19.211 32.3532 19.0356 32.0706 19.0356 31.101C19.0356 30.1314 19.211 30.0535 19.211 30.0535H24.7022Z" fill="white"/>
<path d="M21.9592 37.0648C19.1965 37.0648 16.7603 35.1792 16.0538 32.5383H16.0441L15.9759 32.2411C15.8882 31.8172 15.8394 31.3836 15.8394 30.9499C15.8394 30.2434 16.4046 29.6782 17.1063 29.6782H26.8072C27.504 29.6782 28.074 30.2434 28.074 30.945V30.9548C28.074 31.3836 28.0302 31.8172 27.9376 32.2411C27.3334 35.0379 24.8193 37.0697 21.9543 37.0697L21.9592 37.0648ZM16.6872 31.9536L16.7165 32.0852C17.2427 34.536 19.445 36.3193 21.9592 36.3193C24.4733 36.3193 26.6805 34.536 27.2116 32.0803C27.2896 31.71 27.3286 31.33 27.3286 30.9499V30.9402C27.3286 30.6576 27.0947 30.4237 26.8121 30.4237H17.1111C16.8285 30.4237 16.5947 30.6576 16.5947 30.9402C16.5947 31.2812 16.6239 31.6174 16.6872 31.9488V31.9536Z" fill="#270459"/>
<path d="M30.2519 7.24579C32.6491 5.26272 33.4969 2.24183 33.5359 2.10053L33.7503 1.3112L32.9415 1.16503C32.7856 1.1358 29.0289 0.478022 26.0081 2.38313C24.5658 3.29427 23.5816 4.60982 22.9384 5.74996C22.8995 4.7365 22.7728 3.75715 22.4609 3.17246L21.1259 3.87408C21.277 4.16156 21.3647 4.72676 21.4085 5.40402C20.931 4.74624 20.3073 4.09334 19.5131 3.59636C17.1013 2.08104 14.1048 2.61701 13.983 2.6365L13.1742 2.78754L13.3885 3.57687C13.4129 3.66944 13.8563 5.23348 15.0208 6.6611C14.8649 6.70495 14.709 6.75855 14.5482 6.82676C7.61961 9.78918 3.13213 16.5862 3.13213 24.1335C3.13213 34.5117 11.576 42.9556 21.9591 42.9556C32.3422 42.9556 40.786 34.5117 40.786 24.1335C40.786 16.9565 36.6689 10.3982 30.2568 7.24579H30.2519ZM26.8169 3.65483C28.5271 2.57803 30.6076 2.4952 31.7721 2.55854C31.3287 3.63534 30.364 5.47223 28.644 6.55878C28.5953 6.58801 28.5466 6.61237 28.4979 6.63674C27.1921 6.47107 25.9057 6.89985 24.7364 7.28964C24.3855 7.40658 24.0396 7.52351 23.7034 7.62096C24.1517 6.54416 25.1115 4.72676 26.8169 3.65483ZM18.7141 4.86805C19.9029 5.61353 20.6289 6.85599 21.0041 7.68917C20.8725 7.68917 20.7215 7.68917 20.5705 7.68917C20.1563 7.56736 19.7275 7.41145 19.289 7.25066C18.5923 6.99729 17.8517 6.72444 17.0867 6.58801C16.122 5.83766 15.5129 4.77548 15.1767 4.03487C16.0927 4.00564 17.5203 4.11771 18.7141 4.86805ZM21.9542 40.6948C12.8233 40.6948 5.39293 33.2644 5.39293 24.1335C5.39293 17.4924 9.33957 11.514 15.4447 8.9024C15.6688 8.80495 15.9124 8.76598 16.1658 8.76598C16.8431 8.76598 17.6324 9.05345 18.5046 9.37503C19.5375 9.75507 20.7069 10.1838 21.9542 10.1838C23.2016 10.1838 24.405 9.78431 25.4575 9.43349C26.7535 8.99985 27.8693 8.62955 28.7658 9.03396C34.6858 11.7089 38.5155 17.6386 38.5155 24.1335C38.5155 33.2644 31.0851 40.6948 21.9542 40.6948Z" fill="#270459"/>
<path d="M31.777 2.55375C31.6698 2.81199 31.5334 3.11408 31.3628 3.43566C30.8317 4.46861 29.9596 5.73056 28.6489 6.55399C26.9387 7.63567 24.8582 7.71362 23.6937 7.65028L23.7083 7.62105C24.1517 6.54425 25.1164 4.72684 26.8169 3.65004C28.532 2.57324 30.6125 2.49528 31.777 2.55375Z" fill="#62BF37"/>
<path d="M31.3629 3.43555C30.8318 4.4685 29.9596 5.73045 28.649 6.55388C26.9387 7.63556 24.8582 7.71351 23.6937 7.65017L23.7083 7.62094C24.7754 7.29936 26.4905 6.70493 28.2884 5.76943C29.6673 5.05318 30.6661 4.19077 31.3629 3.43555Z" fill="#8CDD62"/>
<path d="M21.0041 7.6892C20.088 7.71356 18.6604 7.6015 17.4667 6.85602C16.2778 6.11054 15.5567 4.86808 15.1815 4.0349C15.2205 4.0349 15.2546 4.03003 15.2936 4.0349C15.3423 4.03003 15.391 4.03003 15.4398 4.03003C16.346 4.03003 17.6324 4.18595 18.714 4.86808C19.7957 5.54535 20.4876 6.62702 20.8871 7.44558C20.931 7.52841 20.9699 7.61124 21.0041 7.6892Z" fill="#62BF37"/>
<path d="M21.0041 7.68918C20.0881 7.71354 18.6605 7.60148 17.4667 6.856C16.2779 6.11052 15.5568 4.86806 15.1816 4.03488C15.2206 4.03488 15.2547 4.03001 15.2937 4.03488C15.776 4.66342 16.6189 5.54532 17.9589 6.23721C19.0649 6.81215 20.1271 7.20194 20.8872 7.44556C20.931 7.52839 20.97 7.61122 21.0041 7.68918Z" fill="#8CDD62"/>
</g>
<defs>
<clipPath id="clip0_2006_545">
<rect width="174" height="45" fill="white" transform="translate(0.970894 0.5)"/>
</clipPath>
</defs>
</svg>
