<svg width="1454" height="322" viewBox="0 0 1454 322" fill="none" xmlns="http://www.w3.org/2000/svg">
<path d="M265.373 241.723C264.972 251.537 258.204 260.817 248.974 264.186C239.745 267.556 226.636 265.202 219.975 257.982C209.407 286.757 177.465 305.984 147.074 301.919C116.683 297.828 90.4928 268.144 87.8711 237.604C67.994 243.702 42.6327 235.492 30.3266 218.751C18.0205 202.01 19.1174 175.696 32.3063 158.955C12.6968 159.811 -7.15353 152.858 -21.9476 139.995C-31.204 131.946 -38.4004 121.837 -46.6133 112.718C-54.8263 103.599 -64.5375 95.1218 -76.4155 91.993C-88.2936 88.8374 -102.606 92.3941 -109 102.877C-103.061 64.1276 -60.8456 56.1317 -38.3468 67.4169C-22.7502 75.2523 1.54102 93.3301 18.7428 96.2985C37.095 99.4541 54.2433 81.8309 69.3317 70.8934C84.42 59.9558 102.157 48.6706 120.322 52.8156C136.052 56.3991 147.395 70.7864 162.885 75.2791C183.136 81.1624 203.575 68.9412 223.024 60.8115C249.884 49.5531 280.649 45.7557 308.311 54.8213C335.973 63.8869 359.676 87.1259 364.999 115.74C370.296 144.354 354.138 176.686 326.556 185.965C331.238 202.706 326.636 220.088 313.849 231.908C301.088 243.728 281.532 247.633 265.186 241.669L265.347 241.803L265.373 241.723Z" fill="#BB1605" stroke="#DFB850" stroke-linecap="round" stroke-linejoin="round"/>
<path d="M87.9517 238.326C89.1555 229.288 91.269 223.164 95.7366 215.221C100.204 207.279 107.106 200.459 115.64 197.277C124.201 194.095 134.447 195.004 141.617 200.647C148.76 206.316 151.97 216.933 148.038 225.169C144.105 233.406 132.762 237.497 124.977 232.791C120.376 230.01 117.513 223.725 120.162 219.019" stroke="#DFB850" stroke-linecap="round" stroke-linejoin="round"/>
<path d="M137.765 139.674C149.429 129.405 164.945 123.442 180.488 123.977C196.005 124.485 211.334 131.679 221.152 143.739C230.943 155.8 234.822 172.621 230.649 187.57C228.91 193.774 225.807 199.711 221.045 204.07C210.023 214.232 190.574 213.135 180.756 201.797C174.549 194.63 172.489 183.558 177.224 175.349C181.96 167.139 194.052 163.582 201.703 169.198" stroke="#DFB850" stroke-linecap="round" stroke-linejoin="round"/>
<path d="M265.373 241.723C256.492 239.022 249.188 233.78 245.657 225.223C242.099 216.665 244.025 205.674 251.302 199.925C255.207 196.849 260.264 195.432 265.24 195.298C269.279 195.191 273.426 195.913 276.904 197.972C280.381 200.058 283.083 203.615 283.538 207.626C283.993 211.638 281.826 215.997 278.108 217.574C274.389 219.152 269.413 217.307 268.075 213.483" stroke="#DFB850" stroke-linecap="round" stroke-linejoin="round"/>
<path d="M326.556 185.912C316.524 187.971 305.957 186.366 296.701 181.981C287.444 177.595 279.9 169.224 277.573 159.25C275.245 149.275 278.723 137.909 286.909 131.732C295.096 125.554 307.749 125.688 315.16 132.748C318.103 135.556 320.216 139.434 320.296 143.498C320.377 147.563 318.236 151.762 314.571 153.554C310.906 155.345 305.904 154.195 303.817 150.665" stroke="#DFB850" stroke-linecap="round" stroke-linejoin="round"/>
<path d="M31.6909 159.731C37.4694 155.88 41.2683 153.981 47.8226 151.682C54.377 149.355 61.5734 148.446 68.315 150.184C75.0566 151.922 81.2096 156.522 83.8314 162.967C86.4264 169.412 84.9015 177.568 79.4975 181.927C74.0935 186.286 65.0244 185.617 60.9581 179.975C58.6038 176.712 58.2026 171.952 60.5568 168.663" stroke="#DFB850" stroke-linecap="round" stroke-linejoin="round"/>
<path d="M107.507 254.719C112.858 270.979 126.181 284.403 142.392 289.859C158.604 295.314 177.331 292.693 191.43 282.986" stroke="#DFB850" stroke-linecap="round" stroke-linejoin="round"/>
<path d="M70.803 228.967C59.5402 229.876 47.9564 225.356 40.2785 217.066C32.6006 208.776 29.0157 196.849 30.8349 185.698" stroke="#DFB850" stroke-linecap="round" stroke-linejoin="round"/>
<path d="M-70.9312 84.0239C-58.4378 81.1357 -45.7036 88.1422 -36.367 96.9404C-27.0304 105.739 -19.5933 116.542 -9.26682 124.164C2.77177 133.042 18.0207 136.893 32.9753 136.679C47.9299 136.465 62.6169 132.374 76.3677 126.544C85.303 122.773 95.79 118.307 104.137 123.255" stroke="#DFB850" stroke-linecap="round" stroke-linejoin="round"/>
<path d="M-32.0063 85.2538C-15.5269 89.0512 -7.09984 107.878 7.93502 115.579C18.7698 121.142 32.039 120.233 43.4087 115.82C54.7785 111.408 64.5967 103.893 74.1205 96.2984" stroke="#DFB850" stroke-linecap="round" stroke-linejoin="round"/>
<path d="M344.106 149.302C351.864 133.925 350.875 114.858 342.956 99.561C335.037 84.2644 320.725 72.7385 304.593 66.7215C288.461 60.7045 270.644 59.9023 253.656 62.8172" stroke="#DFB850" stroke-linecap="round" stroke-linejoin="round"/>
<path d="M254.672 221.506C254.672 221.506 263.073 237.337 283.592 237.337C304.111 237.337 311.602 220.356 311.602 220.356" stroke="#DFB850" stroke-linecap="round" stroke-linejoin="round"/>
<path d="M219.44 164.759C217.246 151.254 205.742 140.557 192.768 136.225C179.793 131.892 165.266 132.802 152.184 138.845" stroke="#DFB850" stroke-linecap="round" stroke-linejoin="round"/>
<path d="M834.094 181.522C806.344 208.987 761.379 217.295 725.663 201.535C707.677 193.599 692.517 180.466 675.33 170.902C658.144 161.338 635.961 155.742 618.003 163.764C627.196 178.696 626.425 201.792 613.977 214.126C601.53 226.459 577.063 227.515 562.217 218.208C566.385 248.899 543.774 281.132 514.825 292.123C485.876 303.115 452.101 296.32 426.321 279.162C415.815 272.196 407.964 263.06 402.168 251.868C396.373 240.677 394.574 225.574 399.799 214.097C390.463 217.409 377.273 214.868 370.25 207.902C363.227 200.936 362.798 189.031 366.024 179.695C339.902 170.673 319.26 147.263 313.607 120.226C307.955 93.1898 317.49 63.4697 337.817 44.7412C358.145 26.0127 388.521 18.9609 415.015 26.8406C421.411 11.3953 436.799 -0.852448 453.415 1.23166C470.002 3.31577 487.731 18.2758 490.129 34.8345C527.415 14.1932 575.664 16.7341 614.891 33.3785C654.118 50.0514 686.493 79.7144 713.987 112.261C729.261 130.361 741.908 150.546 760.951 164.649C779.993 178.753 811.74 189.288 834.123 181.522H834.094Z" fill="#BB1605" stroke="#DFB850" stroke-linecap="round" stroke-linejoin="round"/>
<path d="M562.217 218.209C561.018 206.075 554.737 192.114 543.974 182.836C534.753 174.899 523.333 169.16 511.199 168.19C499.066 167.191 486.304 171.33 478.139 180.38C469.974 189.402 467.29 203.448 472.8 214.297C476.055 220.692 482.421 225.831 489.587 226.145C496.753 226.431 504.119 220.807 504.376 213.641" stroke="#DFB850" stroke-linecap="round" stroke-linejoin="round"/>
<path d="M366.025 179.695C376.331 183.892 387.808 185.177 399.257 182.55C410.705 179.923 421.126 173.614 429.462 165.363C439.055 155.856 446.135 143.323 447.106 129.876C448.076 116.401 442.252 102.154 430.861 94.8743C419.47 87.5941 402.768 88.9074 393.975 99.1567C389.578 104.267 387.437 111.861 390.378 117.942" stroke="#DFB850" stroke-linecap="round" stroke-linejoin="round"/>
<path d="M476.226 97.1298C477.397 114.231 484.734 131.104 497.381 142.666C510.057 154.229 528.158 159.996 544.973 156.57C561.789 153.144 576.578 140.068 580.832 123.453C585.086 106.837 577.777 87.5657 562.903 79.0009C556.479 75.2894 548.742 73.5764 541.49 75.2038C534.267 76.8311 527.701 82.0556 525.388 89.1074C523.076 96.1591 525.56 104.753 531.784 108.778" stroke="#DFB850" stroke-linecap="round" stroke-linejoin="round"/>
<path d="M618.888 164.25C615.119 159.225 610.266 154.886 604.47 152.487C598.675 150.089 591.88 149.804 586.17 152.402C580.46 155 576.121 160.767 575.892 167.048C575.664 173.329 580.061 179.667 586.199 181.008C592.337 182.35 599.303 177.868 600.017 171.616" stroke="#DFB850" stroke-linecap="round" stroke-linejoin="round"/>
<path d="M744.906 193.285C729.575 190.43 716.042 181.608 703.766 171.958C691.518 162.308 679.956 151.574 666.423 143.865C652.891 136.157 636.646 131.589 621.572 135.615" stroke="#DFB850" stroke-linecap="round" stroke-linejoin="round"/>
<path d="M759.095 178.268C741.337 169.303 727.576 154.086 715.329 138.412C703.109 122.71 691.832 106.066 677.215 92.5903C662.569 79.1149 643.726 68.8657 623.827 69.351" stroke="#DFB850" stroke-linecap="round" stroke-linejoin="round"/>
<path d="M704.08 155.028C692.146 139.554 678.842 124.794 662.626 113.86C646.41 102.925 626.939 96.0164 607.439 97.3867" stroke="#DFB850" stroke-linecap="round" stroke-linejoin="round"/>
<path d="M351.664 147.805C334.963 134.644 327.14 111.205 332.593 90.6489C338.046 70.0933 356.461 53.6202 377.502 50.4797" stroke="#DFB850" stroke-linecap="round" stroke-linejoin="round"/>
<path d="M522.59 144.807C532.326 147.891 543.317 147.263 552.31 142.381C561.275 137.499 567.956 128.306 569.04 118.142C570.154 108.007 565.329 97.2439 556.65 91.9051" stroke="#DFB850" stroke-linecap="round" stroke-linejoin="round"/>
<path d="M478.909 30.0669C474.97 20.6741 466.091 13.5367 456.07 11.7095C446.049 9.88238 435.229 13.4225 428.234 20.8168" stroke="#DFB850" stroke-linecap="round" stroke-linejoin="round"/>
<path d="M498.609 283.244C513.084 279.105 526.416 270.426 535.209 258.178C544.003 245.93 547.943 230.085 544.888 215.325C541.804 200.565 531.441 187.289 517.423 181.722" stroke="#DFB850" stroke-linecap="round" stroke-linejoin="round"/>
<path d="M468.546 282.359C454.328 281.189 440.51 275.393 429.719 266.058C418.927 256.722 411.219 243.875 408.021 229.971" stroke="#DFB850" stroke-linecap="round" stroke-linejoin="round"/>
<path d="M734.323 217.932C721.569 222.959 706.131 220.445 695.618 211.635C685.105 202.824 679.959 188.103 682.698 174.68C674.814 178.05 664.882 175.895 659.099 169.571C653.317 163.246 652.045 153.192 656.084 145.652C639.982 144.713 622.608 132.064 618.043 116.597C613.478 101.13 618.541 83.5366 629.801 72.0193C641.061 60.5021 657.937 55.0335 674.011 56.6078C688.619 58.044 702.535 64.8107 717.198 64.6726C742.844 64.424 765.668 43.2401 791.149 46.1953C810.238 48.4049 825.039 63.5954 842.939 70.6107C870.743 81.5204 901.95 71.605 929.921 61.1097C957.891 50.6144 988.212 39.3734 1016.85 47.8248C1061.03 60.8888 1079.18 128.169 1128.59 133.997C1107.01 140.57 1083.16 139.521 1062.25 131.097C1050.96 126.54 1040.5 119.939 1028.77 116.735C1017.04 113.531 1003.04 114.525 994.714 123.391C985.999 132.671 986.331 146.868 983.509 159.269C979.166 178.381 965.803 195.229 948.152 203.818C930.529 212.408 908.977 212.574 891.216 204.233C889.943 227.046 878.047 252.29 860.12 266.514C842.192 280.738 818.067 286.87 795.492 282.92C772.944 278.97 752.333 265.05 740.299 245.606C735.568 237.928 733.687 226.135 734.268 217.932H734.323Z" fill="#BB1605" stroke="#DFB850" stroke-linecap="round" stroke-linejoin="round"/>
<path d="M734.212 220.086C736.176 208.513 742.899 197.825 752.471 191.003C762.044 184.181 774.355 181.336 785.947 183.214C794.219 184.568 802.298 188.434 807.637 194.897C812.977 201.36 815.273 210.557 812.451 218.456C809.629 226.356 801.302 232.238 792.974 231.217C784.647 230.195 777.73 221.55 779.556 213.374" stroke="#DFB850" stroke-linecap="round" stroke-linejoin="round"/>
<path d="M892.35 204.73C878.987 201.692 869.526 186.418 871.767 172.94C874.007 159.462 887.149 148.828 900.843 148.884C906.045 148.884 911.439 150.403 915.119 154.076C918.799 157.722 920.292 163.826 917.692 168.3C915.119 172.802 908.092 174.376 904.44 170.703" stroke="#DFB850" stroke-linecap="round" stroke-linejoin="round"/>
<path d="M743.867 84.586C730.007 79.145 713.85 79.3659 700.515 85.9393C687.18 92.5127 676.999 105.549 674.675 120.242C672.351 134.908 678.244 150.817 690.057 159.848C701.87 168.88 719.272 170.289 732.026 162.61C738.03 158.992 743.065 153.33 744.614 146.508C746.191 139.686 743.729 131.787 737.836 128.003C731.943 124.22 722.869 125.849 719.549 132.036" stroke="#DFB850" stroke-linecap="round" stroke-linejoin="round"/>
<path d="M816.518 71.5771C799.504 57.7951 774.134 55.2542 754.74 65.4181" stroke="#DFB850" stroke-linecap="round" stroke-linejoin="round"/>
<path d="M635.666 125.987C628.805 115.022 627.864 100.605 633.204 88.8118C638.543 77.0184 650.025 68.2078 662.806 66.1087" stroke="#DFB850" stroke-linecap="round" stroke-linejoin="round"/>
<path d="M773.608 256.709C789.821 268.945 812.036 272.811 831.43 266.818C850.851 260.797 866.953 245.054 873.371 225.803" stroke="#DFB850" stroke-linecap="round" stroke-linejoin="round"/>
<path d="M895.532 188.048C903.361 196.831 915.479 201.636 927.209 200.642C938.967 199.648 950.061 192.853 956.314 182.883" stroke="#DFB850" stroke-linecap="round" stroke-linejoin="round"/>
<path d="M1545.37 319.025C1546.02 298.268 1524.72 278.383 1504.36 274.101C1484 269.819 1462.95 275.48 1443.25 282.157C1423.54 288.834 1403.69 296.708 1382.9 296.853C1362.1 297.035 1338.4 287.455 1330.26 268.332C1311.53 301.825 1266.53 325.23 1228.61 319.242C1190.69 313.255 1163.35 281.068 1155.97 243.475C1145.39 249.789 1126.13 246.741 1116.06 239.629C1105.99 232.517 1100.28 219.961 1100.68 207.66C1081.56 222.937 1051.53 226.384 1028.52 218.038C1005.5 209.692 987.508 188.863 982.637 164.914C977.765 140.965 986.2 114.765 1004.16 98.146C987.108 89.3646 967.368 93.8642 949.991 101.956C932.613 110.048 916.836 121.587 898.658 127.72C880.481 133.816 858.087 133.163 844.854 119.301C863.649 127.212 885.716 119.301 901.967 107C918.217 94.6988 930.977 78.2608 947.01 65.6693C981.801 38.3452 1047.75 37.184 1079.38 54.3115C1084.28 35.7688 1105.51 23.3224 1124.13 28.0034C1140.31 32.0676 1152.45 46.6549 1168.81 49.9207C1187.64 53.6945 1205.45 41.7562 1222.94 33.8819C1246.06 23.4676 1272.53 19.7663 1297.21 25.681C1321.9 31.5958 1344.36 47.6709 1356.03 70.1325C1364.25 85.9536 1367.92 105.476 1382.46 115.818C1392.93 123.257 1406.71 124.019 1418.2 129.752C1437.54 139.441 1447.64 164.406 1440.41 184.763C1435.21 199.459 1422.31 214.663 1429.58 228.452C1432.7 234.331 1438.88 237.923 1445.03 240.5C1460.11 246.85 1476.62 248.918 1492.58 252.438C1508.57 255.958 1524.86 261.401 1536.53 272.831C1548.2 284.298 1553.18 304.691 1545.29 318.988L1545.37 319.025Z" fill="#BB1605" stroke="#DFB850" stroke-linecap="round" stroke-linejoin="round"/>
<path d="M1101.01 207.297C1112.82 198.77 1117.66 181.751 1112.06 168.289C1106.46 154.826 1090.97 146.263 1076.58 148.621C1067.02 150.182 1057.93 156.786 1055.38 166.148C1052.84 175.51 1058.73 186.831 1068.25 188.5" stroke="#DFB850" stroke-linecap="round" stroke-linejoin="round"/>
<path d="M1156.08 243.838C1152.41 232.226 1154.74 218.909 1162.08 209.184C1169.43 199.459 1181.6 193.581 1193.82 193.871C1202.83 194.089 1211.85 197.681 1217.89 204.358C1223.92 210.998 1226.65 220.796 1224.07 229.396C1221.48 237.996 1213.34 244.89 1204.33 245.217C1195.35 245.543 1186.4 238.685 1185.09 229.795" stroke="#DFB850" stroke-linecap="round" stroke-linejoin="round"/>
<path d="M1483.6 261.909C1470.51 253.744 1453.75 254.652 1438.74 258.062C1423.72 261.473 1409.04 267.207 1393.66 267.824C1378.21 268.441 1362.79 263.832 1349.6 255.776C1332.15 245.144 1318.19 227.835 1314.44 207.769C1310.7 187.702 1318.48 165.204 1335.56 153.955C1352.65 142.706 1378.39 145.428 1390.75 161.684C1396.64 169.414 1399.26 179.864 1396.49 189.154C1393.73 198.443 1385.08 206.063 1375.37 206.499C1365.67 206.971 1355.89 199.35 1355.01 189.698" stroke="#DFB850" stroke-linecap="round" stroke-linejoin="round"/>
<path d="M1197.16 140.493C1197.49 134.65 1203.13 130.223 1208.91 129.316C1218.61 127.756 1228.72 134.65 1231.59 144.013C1234.5 153.411 1230.5 164.224 1222.76 170.284C1215.01 176.308 1204.07 177.65 1194.73 174.566C1185.38 171.482 1177.68 164.297 1173.06 155.624C1163.39 137.626 1167.79 113.277 1183.17 99.815C1194.65 89.7273 1210.47 86.026 1225.74 85.3366C1238.9 84.756 1252.46 86.28 1264.35 91.9771C1276.23 97.6741 1286.3 108.016 1289.58 120.789" stroke="#DFB850" stroke-linecap="round" stroke-linejoin="round"/>
<path d="M1079.34 53.9122C1076.47 64.762 1077.27 76.7367 1082.43 86.6793C1087.59 96.6582 1097.37 104.351 1108.5 106.093C1119.58 107.835 1131.73 103.19 1138.02 93.9004C1141.94 88.1308 1143.5 80.6194 1141.47 73.9426C1139.43 67.2658 1133.54 61.7139 1126.64 60.8067C1119.73 59.8632 1112.24 64.1088 1110.1 70.7493" stroke="#DFB850" stroke-linecap="round" stroke-linejoin="round"/>
<path d="M1340.8 82.9417C1331.35 64.2176 1314.22 49.5214 1294.27 42.9535C1274.31 36.4218 1251.77 38.091 1233.05 47.5619" stroke="#DFB850" stroke-linecap="round" stroke-linejoin="round"/>
<path d="M1055.6 208.386C1036.84 206.1 1019.68 193.617 1011.76 176.49C1003.83 159.362 1005.47 138.207 1015.9 122.495" stroke="#DFB850" stroke-linecap="round" stroke-linejoin="round"/>
<path d="M1040.84 90.4167C1016.34 73.507 983.146 69.9509 955.589 81.2362" stroke="#DFB850" stroke-linecap="round" stroke-linejoin="round"/>
<path d="M1051.75 76.7729C1036.22 68.0278 1018.48 63.2016 1000.67 62.9113" stroke="#DFB850" stroke-linecap="round" stroke-linejoin="round"/>
<path d="M1192.22 277.44C1203.82 295.402 1225.41 306.433 1246.79 305.272C1268.16 304.111 1288.45 290.902 1298.08 271.815" stroke="#DFB850" stroke-linecap="round" stroke-linejoin="round"/>
</svg>
