<svg width="393" height="196" viewBox="0 0 393 196" fill="none" xmlns="http://www.w3.org/2000/svg">
<path d="M95.693 52.1903C95.4543 46.3523 91.4282 40.8325 85.938 38.8281C80.4479 36.8238 72.6503 38.2236 68.6878 42.5186C62.402 25.4023 43.4014 13.9649 25.3237 16.3828C7.24596 18.8166 -8.33331 36.4738 -9.89283 54.6401C-21.7165 51.0132 -36.8025 55.8968 -44.1227 65.8548C-51.4429 75.8128 -50.7904 91.4657 -42.9451 101.424C-54.6097 100.915 -66.4175 105.051 -75.2176 112.702C-80.7237 117.49 -85.0044 123.503 -89.8898 128.928C-94.7752 134.352 -100.552 139.395 -107.617 141.256C-114.683 143.133 -123.197 141.017 -127 134.782C-123.467 157.831 -98.3558 162.588 -84.9725 155.875C-75.695 151.214 -61.2456 140.46 -51.0132 138.695C-40.0966 136.818 -29.896 147.301 -20.9209 153.807C-11.9457 160.313 -1.39505 167.026 9.41019 164.56C18.7673 162.429 25.5146 153.87 34.7285 151.198C46.775 147.698 58.9329 154.968 70.502 159.804C86.4791 166.501 104.78 168.76 121.234 163.367C137.689 157.974 151.788 144.151 154.955 127.13C158.106 110.109 148.494 90.8771 132.087 85.3572C134.872 75.3992 132.135 65.0594 124.528 58.0283C116.937 50.9973 105.305 48.6748 95.5816 52.2221L95.677 52.1426L95.693 52.1903Z" fill="#BB1605" stroke="#DFB850" stroke-linecap="round" stroke-linejoin="round"/>
<path d="M-9.84473 54.2106C-9.12862 59.5873 -7.87146 63.2301 -5.21392 67.9546C-2.55637 72.6791 1.54931 76.7354 6.6257 78.6284C11.718 80.5214 17.8129 79.9806 22.0777 76.6241C26.3266 73.2517 28.2362 66.9365 25.8969 62.037C23.5576 57.1375 16.8103 54.7037 12.1795 57.5034C9.44238 59.1578 7.73965 62.896 9.31508 65.6957" stroke="#DFB850" stroke-linecap="round" stroke-linejoin="round"/>
<path d="M19.7861 112.893C26.7244 119.001 35.9542 122.549 45.1999 122.231C54.4297 121.928 63.5482 117.649 69.3884 110.475C75.2127 103.301 77.5202 93.295 75.0377 84.4028C74.0033 80.7122 72.1573 77.1808 69.3247 74.5879C62.7684 68.5431 51.1993 69.1953 45.3591 75.94C41.6671 80.2032 40.4418 86.7889 43.2585 91.6724C46.0752 96.556 53.268 98.6717 57.8193 95.3311" stroke="#DFB850" stroke-linecap="round" stroke-linejoin="round"/>
<path d="M95.6929 52.1903C90.4097 53.797 86.0653 56.9148 83.9647 62.0052C81.8482 67.0955 82.994 73.6335 87.3225 77.0536C89.6458 78.8829 92.6535 79.726 95.6134 79.8055C98.0163 79.8692 100.483 79.4397 102.552 78.2148C104.62 76.974 106.228 74.8583 106.498 72.4722C106.769 70.0861 105.48 67.4932 103.268 66.5547C101.056 65.6162 98.0959 66.7138 97.3002 68.9885" stroke="#DFB850" stroke-linecap="round" stroke-linejoin="round"/>
<path d="M132.087 85.3891C126.12 84.1642 119.834 85.1187 114.328 87.7275C108.822 90.3363 104.334 95.3153 102.95 101.249C101.565 107.182 103.634 113.943 108.503 117.617C113.373 121.292 120.9 121.213 125.308 117.013C127.058 115.343 128.316 113.036 128.363 110.618C128.411 108.2 127.138 105.703 124.958 104.637C122.778 103.571 119.802 104.255 118.561 106.355" stroke="#DFB850" stroke-linecap="round" stroke-linejoin="round"/>
<path d="M1.7876 44.4593C4.97029 34.7876 12.8952 26.8021 22.5388 23.557C32.1823 20.3119 43.3217 21.8708 51.7081 27.6452" stroke="#DFB850" stroke-linecap="round" stroke-linejoin="round"/>
<path d="M-104.355 145.996C-96.9234 147.714 -89.3486 143.546 -83.7948 138.313C-78.241 133.079 -73.817 126.653 -67.6745 122.119C-60.5134 116.838 -51.4427 114.547 -42.5471 114.675C-33.6515 114.802 -24.915 117.236 -16.7355 120.703C-11.4204 122.946 -5.18228 125.603 -0.217285 122.66" stroke="#DFB850" stroke-linecap="round" stroke-linejoin="round"/>
<path d="M142.527 107.166C147.141 116.313 146.553 127.655 141.842 136.754C137.132 145.853 128.618 152.709 119.022 156.288C109.427 159.867 98.8282 160.345 88.7231 158.611" stroke="#DFB850" stroke-linecap="round" stroke-linejoin="round"/>
<path d="M89.3276 64.2164C89.3276 64.2164 94.3245 54.7992 106.53 54.7992C118.736 54.7992 123.192 64.9004 123.192 64.9004" stroke="#DFB850" stroke-linecap="round" stroke-linejoin="round"/>
<path d="M68.3697 97.9718C67.0648 106.005 60.222 112.368 52.504 114.945C44.786 117.522 36.145 116.981 28.3633 113.386" stroke="#DFB850" stroke-linecap="round" stroke-linejoin="round"/>
<path d="M433.992 88.0002C417.485 71.663 390.738 66.7211 369.492 76.0955C358.793 80.8166 349.776 88.6285 339.552 94.3176C329.329 100.007 316.133 103.335 305.452 98.5633C310.92 89.6814 310.461 75.9426 303.057 68.6062C295.653 61.2697 281.099 60.6414 272.268 66.1777C274.747 47.9215 261.297 28.7483 244.077 22.2101C226.857 15.6718 206.766 19.7136 191.431 29.9201C185.182 34.0638 180.511 39.4982 177.064 46.1553C173.617 52.8125 172.547 61.7962 175.654 68.6232C170.101 66.6532 162.255 68.1646 158.078 72.3084C153.9 76.4521 153.645 83.5338 155.564 89.087C140.025 94.4535 127.747 108.379 124.384 124.462C121.022 140.544 126.694 158.223 138.786 169.363C150.877 180.504 168.946 184.698 184.706 180.011C188.51 189.199 197.664 196.484 207.548 195.244C217.414 194.005 227.961 185.106 229.387 175.256C251.566 187.534 280.267 186.023 303.6 176.122C326.934 166.204 346.192 148.56 362.547 129.2C371.632 118.433 379.155 106.426 390.483 98.0368C401.81 89.6475 420.695 83.3809 434.009 88.0002H433.992Z" fill="#BB1605" stroke="#DFB850" stroke-linecap="round" stroke-linejoin="round"/>
<path d="M272.268 66.1776C271.555 73.3952 267.819 81.6996 261.416 87.2189C255.931 91.9401 249.138 95.3535 241.92 95.9309C234.703 96.5253 227.112 94.0629 222.255 88.6794C217.398 83.3129 215.801 74.9576 219.079 68.5042C221.015 64.7002 224.802 61.6433 229.065 61.4565C233.327 61.2867 237.709 64.6322 237.862 68.8948" stroke="#DFB850" stroke-linecap="round" stroke-linejoin="round"/>
<path d="M155.564 89.087C161.695 86.5906 168.522 85.8264 175.332 87.3887C182.142 88.9511 188.341 92.7043 193.3 97.6122C199.006 103.267 203.217 110.723 203.795 118.721C204.372 126.737 200.908 135.211 194.132 139.542C187.356 143.872 177.421 143.091 172.19 136.995C169.575 133.955 168.301 129.437 170.051 125.82" stroke="#DFB850" stroke-linecap="round" stroke-linejoin="round"/>
<path d="M221.117 138.2C221.813 128.028 226.177 117.991 233.701 111.113C241.241 104.235 252.008 100.805 262.01 102.843C272.013 104.881 280.81 112.659 283.34 122.542C285.871 132.426 281.523 143.889 272.675 148.984C268.854 151.192 264.252 152.211 259.939 151.243C255.642 150.275 251.736 147.167 250.361 142.972C248.985 138.778 250.462 133.666 254.165 131.271" stroke="#DFB850" stroke-linecap="round" stroke-linejoin="round"/>
<path d="M305.978 98.2745C303.736 101.263 300.849 103.845 297.402 105.271C293.955 106.698 289.913 106.868 286.516 105.322C283.12 103.777 280.538 100.346 280.403 96.6102C280.267 92.8741 282.882 89.104 286.533 88.3058C290.184 87.5076 294.328 90.1739 294.753 93.893" stroke="#DFB850" stroke-linecap="round" stroke-linejoin="round"/>
<path d="M380.939 81.0033C371.819 82.7015 363.77 87.9491 356.467 93.6892C349.182 99.4293 342.304 105.815 334.254 110.4C326.204 114.985 316.541 117.702 307.575 115.308" stroke="#DFB850" stroke-linecap="round" stroke-linejoin="round"/>
<path d="M389.379 89.9362C378.816 95.2687 370.63 104.32 363.345 113.644C356.076 122.984 349.368 132.885 340.673 140.901C331.961 148.916 320.753 155.013 308.916 154.724" stroke="#DFB850" stroke-linecap="round" stroke-linejoin="round"/>
<path d="M356.654 103.76C349.555 112.964 341.641 121.744 331.995 128.248C322.349 134.753 310.767 138.863 299.168 138.047" stroke="#DFB850" stroke-linecap="round" stroke-linejoin="round"/>
<path d="M147.022 108.056C137.087 115.885 132.434 129.828 135.678 142.055C138.922 154.283 149.875 164.082 162.391 165.95" stroke="#DFB850" stroke-linecap="round" stroke-linejoin="round"/>
<path d="M248.696 109.84C254.487 108.006 261.026 108.379 266.375 111.283C271.708 114.187 275.681 119.656 276.327 125.701C276.989 131.73 274.119 138.132 268.956 141.308" stroke="#DFB850" stroke-linecap="round" stroke-linejoin="round"/>
<path d="M222.713 178.092C220.369 183.679 215.088 187.925 209.127 189.012C203.166 190.099 196.73 187.993 192.569 183.594" stroke="#DFB850" stroke-linecap="round" stroke-linejoin="round"/>
<path d="M234.431 27.4916C243.041 29.954 250.972 35.1167 256.203 42.4022C261.433 49.6877 263.777 59.1129 261.96 67.8929C260.126 76.6728 253.961 84.5697 245.623 87.8813" stroke="#DFB850" stroke-linecap="round" stroke-linejoin="round"/>
<path d="M216.548 28.0179C208.091 28.7142 199.871 32.1617 193.452 37.7149C187.033 43.2682 182.447 50.9103 180.545 59.1808" stroke="#DFB850" stroke-linecap="round" stroke-linejoin="round"/>
<g clip-path="url(#clip0_2363_7988)">
<path d="M374.644 66.3423C367.057 63.3522 357.874 64.8472 351.621 70.0881C345.367 75.329 342.306 84.0857 343.935 92.0702C339.245 90.0659 333.337 91.3473 329.898 95.1096C326.458 98.8719 325.701 104.852 328.104 109.337C318.526 109.896 308.191 117.42 305.476 126.621C302.76 135.821 305.772 146.286 312.47 153.137C319.168 159.988 329.206 163.241 338.768 162.305C347.457 161.45 355.735 157.425 364.457 157.507C379.712 157.655 393.289 170.256 408.446 168.498C419.801 167.184 428.605 158.148 439.253 153.975C455.792 147.486 474.355 153.384 490.993 159.627C507.631 165.87 525.668 172.556 542.701 167.529C568.982 159.758 579.778 119.737 609.17 116.27C596.333 112.36 582.148 112.984 569.706 117.995C562.992 120.706 556.771 124.633 549.793 126.538C542.816 128.444 534.489 127.853 529.535 122.579C524.351 117.059 524.549 108.614 522.87 101.238C520.286 89.8687 512.338 79.847 501.838 74.7375C491.355 69.6281 478.535 69.5295 467.97 74.4911C467.213 60.9207 460.137 45.9045 449.473 37.4435C438.809 28.9825 424.458 25.3352 411.03 27.6846C397.617 30.034 385.357 38.3142 378.198 49.8803C375.384 54.4476 374.265 61.4628 374.611 66.3423H374.644Z" fill="#BB1605" stroke="#DFB850" stroke-linecap="round" stroke-linejoin="round"/>
<path d="M374.578 65.0608C375.747 71.9446 379.746 78.3027 385.44 82.3607C391.134 86.4187 398.457 88.1109 405.352 86.9937C410.273 86.1887 415.078 83.8886 418.255 80.0442C421.431 76.1998 422.797 70.7289 421.118 66.0302C419.439 61.3314 414.486 57.832 409.532 58.4399C404.579 59.0478 400.465 64.1901 401.551 69.0531" stroke="#DFB850" stroke-linecap="round" stroke-linejoin="round"/>
<path d="M380.321 145.662C372.077 148.898 362.466 148.767 354.534 144.857C346.601 140.947 340.545 133.192 339.163 124.452C337.781 115.728 341.286 106.265 348.313 100.893C355.34 95.5203 365.691 94.6825 373.278 99.2497C376.849 101.402 379.844 104.77 380.766 108.828C381.704 112.886 380.239 117.585 376.734 119.835C373.229 122.086 367.831 121.117 365.856 117.437" stroke="#DFB850" stroke-linecap="round" stroke-linejoin="round"/>
<path d="M423.537 153.4C413.416 161.598 398.325 163.11 386.789 157.064" stroke="#DFB850" stroke-linecap="round" stroke-linejoin="round"/>
<path d="M315.959 121.035C311.878 127.557 311.318 136.133 314.494 143.148C317.67 150.163 324.5 155.404 332.103 156.653" stroke="#DFB850" stroke-linecap="round" stroke-linejoin="round"/>
</g>
<defs>
<clipPath id="clip0_2363_7988">
<rect width="306.344" height="143.952" fill="white" transform="translate(303.666 26.1731)"/>
</clipPath>
</defs>
</svg>
