<svg width="49" height="48" viewBox="0 0 49 48" fill="none" xmlns="http://www.w3.org/2000/svg">
<path d="M24.5815 0C37.8367 0 48.5815 10.7448 48.5815 24C48.5815 37.2552 37.8367 48 24.5815 48C11.3263 48 0.581451 37.2552 0.581451 24C0.581451 10.7448 11.3263 0 24.5815 0ZM35.2423 14.4C34.3279 14.4168 32.9239 14.8968 26.1727 17.6688C21.4338 19.6471 16.7081 21.6568 11.9959 23.6976C10.8439 24.1512 10.2439 24.5928 10.1887 25.0248C10.0831 25.8552 11.2927 26.112 12.8143 26.6016C14.0551 27 15.7255 27.4656 16.5943 27.4848C17.3815 27.5016 18.2599 27.18 19.2295 26.5248C25.8535 22.1088 29.2687 19.8792 29.4847 19.8312C29.6359 19.7976 29.8447 19.7544 29.9887 19.8792C30.1303 20.004 30.1159 20.2392 30.0991 20.304C29.9791 20.8104 23.7607 26.3952 23.4031 26.7624L23.2303 26.9352C21.9103 28.2384 20.5783 29.0904 22.8775 30.5856C24.9559 31.9368 26.1655 32.7984 28.3015 34.1856C29.6695 35.0688 30.7423 36.1176 32.1535 35.9904C32.8039 35.9304 33.4735 35.328 33.8167 33.528C34.6207 29.28 36.2047 20.0688 36.5695 16.272C36.5915 15.9571 36.5778 15.6407 36.5287 15.3288C36.499 15.077 36.3756 14.8457 36.1831 14.6808C35.8927 14.4456 35.4415 14.3976 35.2423 14.4Z" fill="#BB1605"/>
</svg>
