<svg width="148" height="40" viewBox="0 0 148 40" fill="none" xmlns="http://www.w3.org/2000/svg">
<path d="M20.4652 39.5231C31.2475 39.5231 39.9882 30.7823 39.9882 20.0001C39.9882 9.2178 31.2475 0.477051 20.4652 0.477051C9.68295 0.477051 0.9422 9.2178 0.9422 20.0001C0.9422 30.7823 9.68295 39.5231 20.4652 39.5231Z" fill="url(#paint0_linear_2006_525)"/>
<path d="M14.1575 21.4272L16.4737 27.8382C16.4737 27.8382 16.7633 28.4381 17.0734 28.4381C17.3835 28.4381 21.9956 23.6399 21.9956 23.6399L27.1245 13.7336L14.2401 19.7723L14.1575 21.4272Z" fill="#C8DAEA"/>
<path d="M17.2286 23.0713L16.784 27.7968C16.784 27.7968 16.5979 29.2448 18.0455 27.7968C19.4931 26.3489 20.8788 25.2323 20.8788 25.2323" fill="#A9C6D8"/>
<path d="M14.1993 21.6557L9.43471 20.1033C9.43471 20.1033 8.86529 19.8722 9.04864 19.3484C9.08639 19.2404 9.16253 19.1484 9.3903 18.9905C10.446 18.2546 28.9306 11.6108 28.9306 11.6108C28.9306 11.6108 29.4525 11.4349 29.7603 11.5519C29.8364 11.5754 29.905 11.6188 29.9588 11.6776C30.0127 11.7363 30.05 11.8083 30.067 11.8862C30.1002 12.0238 30.1141 12.1653 30.1083 12.3068C30.1068 12.4291 30.092 12.5425 30.0808 12.7203C29.9682 14.5368 26.5992 28.0936 26.5992 28.0936C26.5992 28.0936 26.3976 28.8868 25.6754 28.914C25.4979 28.9197 25.3211 28.8897 25.1555 28.8256C24.9899 28.7616 24.8389 28.6648 24.7115 28.5411C23.2943 27.3221 18.3959 24.0302 17.3135 23.3062C17.2891 23.2895 17.2686 23.2679 17.2533 23.2426C17.2379 23.2174 17.2282 23.1891 17.2247 23.1598C17.2096 23.0835 17.2926 22.9889 17.2926 22.9889C17.2926 22.9889 25.8218 15.4075 26.0488 14.6116C26.0664 14.5499 26 14.5195 25.9108 14.5465C25.3443 14.7549 15.5239 20.9566 14.4401 21.641C14.3621 21.6646 14.2796 21.6697 14.1993 21.6557Z" fill="white"/>
<path d="M147.697 21.2807V28.4497H144.527V21.6221C144.527 20.858 144.397 20.289 144.137 19.9152C143.877 19.525 143.455 19.3299 142.869 19.3299C142.479 19.3299 142.138 19.4193 141.845 19.5982C141.553 19.7607 141.325 20.0208 141.162 20.3785C141 20.7198 140.919 21.1344 140.919 21.6221V28.4497H137.773V21.6221C137.773 20.858 137.643 20.289 137.383 19.9152C137.123 19.525 136.7 19.3299 136.115 19.3299C135.725 19.3299 135.383 19.4193 135.091 19.5982C134.798 19.7607 134.57 20.0208 134.408 20.3785C134.245 20.7198 134.164 21.1344 134.164 21.6221V28.4497H131.116V17.2329H134.164V18.891C134.489 18.2733 134.92 17.8018 135.456 17.4767C135.993 17.1516 136.635 16.989 137.383 16.989C138.212 16.989 138.895 17.1516 139.431 17.4767C139.968 17.8018 140.358 18.2814 140.602 18.9154C141.008 18.2814 141.504 17.8018 142.089 17.4767C142.691 17.1516 143.373 16.989 144.137 16.989C144.966 16.989 145.641 17.1597 146.161 17.5011C146.681 17.8262 147.063 18.3139 147.307 18.9642C147.567 19.5982 147.697 20.3703 147.697 21.2807Z" fill="#222222"/>
<path d="M120.643 24.9627C120.643 25.2878 120.725 25.5723 120.887 25.8161C121.05 26.0437 121.269 26.2225 121.546 26.3526C121.838 26.4664 122.155 26.5233 122.497 26.5233C122.984 26.5233 123.423 26.4257 123.813 26.2307C124.203 26.0193 124.52 25.7267 124.764 25.3528C125.008 24.9627 125.13 24.4994 125.13 23.9629L125.52 25.426C125.52 26.1413 125.317 26.7427 124.911 27.2304C124.52 27.7181 124.008 28.0839 123.374 28.3277C122.757 28.5716 122.106 28.6935 121.424 28.6935C120.725 28.6935 120.074 28.5553 119.473 28.279C118.871 28.0026 118.384 27.6043 118.01 27.0841C117.652 26.5477 117.473 25.8974 117.473 25.1334C117.473 24.0442 117.855 23.1826 118.619 22.5486C119.383 21.9146 120.464 21.5976 121.863 21.5976C122.578 21.5976 123.204 21.6708 123.74 21.8171C124.293 21.9634 124.756 22.1422 125.13 22.3535C125.504 22.5649 125.772 22.7681 125.935 22.9632V24.4262C125.496 24.1011 125 23.8572 124.447 23.6947C123.911 23.5321 123.342 23.4508 122.74 23.4508C122.253 23.4508 121.854 23.5159 121.546 23.6459C121.237 23.7597 121.009 23.9304 120.863 24.158C120.716 24.3693 120.643 24.6376 120.643 24.9627ZM119.424 20.4028L118.254 18.2569C118.839 17.9481 119.554 17.6555 120.399 17.3791C121.245 17.0865 122.188 16.9402 123.228 16.9402C124.187 16.9402 125.041 17.0784 125.788 17.3547C126.536 17.6311 127.121 18.0375 127.544 18.5739C127.967 19.0941 128.178 19.7363 128.178 20.5003V28.4497H125.13V21.1587C125.13 20.8498 125.081 20.5897 124.984 20.3784C124.886 20.1508 124.732 19.9639 124.52 19.8176C124.325 19.6712 124.09 19.5656 123.813 19.5006C123.537 19.4355 123.228 19.403 122.887 19.403C122.366 19.403 121.871 19.4599 121.399 19.5737C120.928 19.6875 120.521 19.8257 120.18 19.9882C119.839 20.1508 119.587 20.289 119.424 20.4028Z" fill="#222222"/>
<path d="M111.995 17.2328V28.4497H108.898V17.2328H111.995ZM115.287 20.5247C115.076 20.3297 114.856 20.1834 114.629 20.0858C114.418 19.972 114.149 19.9151 113.824 19.9151C113.434 19.9151 113.101 20.0208 112.824 20.2321C112.548 20.4435 112.337 20.7442 112.19 21.1343C112.06 21.5082 111.995 21.9634 111.995 22.4999L111.117 21.622C111.117 20.7279 111.288 19.9395 111.63 19.2567C111.971 18.5577 112.418 18.005 112.971 17.5986C113.523 17.1759 114.092 16.9646 114.678 16.9646C115.084 16.9646 115.466 17.0378 115.824 17.1841C116.198 17.3304 116.498 17.5498 116.726 17.8424L115.287 20.5247Z" fill="#222222"/>
<path d="M93.7886 29.23H96.8854C96.9016 29.7177 97.0317 30.1322 97.2755 30.4736C97.5194 30.8313 97.8526 31.1076 98.2753 31.3027C98.698 31.4978 99.1938 31.5953 99.7627 31.5953C100.283 31.5953 100.771 31.4734 101.226 31.2295C101.697 30.9857 102.071 30.6118 102.348 30.1079C102.64 29.6039 102.786 28.9699 102.786 28.2059V17.2329H105.834V28.2059C105.834 29.5877 105.558 30.7256 105.005 31.6197C104.469 32.5138 103.746 33.164 102.835 33.5705C101.925 33.9931 100.933 34.2045 99.8603 34.2045C98.5598 34.2045 97.4706 33.9931 96.5928 33.5705C95.7149 33.164 95.0403 32.5788 94.5689 31.8148C94.1137 31.067 93.8536 30.2054 93.7886 29.23ZM93.5691 22.7438C93.5691 21.492 93.8211 20.4435 94.325 19.5982C94.829 18.7366 95.4955 18.0863 96.3245 17.6474C97.1536 17.2085 98.0314 16.989 98.9581 16.989C99.9009 16.989 100.73 17.2166 101.445 17.6718C102.177 18.127 102.746 18.7853 103.152 19.6469C103.575 20.4923 103.786 21.5245 103.786 22.7438C103.786 23.9467 103.575 24.979 103.152 25.8406C102.746 26.7022 102.177 27.3605 101.445 27.8157C100.73 28.2546 99.9009 28.4741 98.9581 28.4741C98.0314 28.4741 97.1536 28.2546 96.3245 27.8157C95.4955 27.3768 94.829 26.7347 94.325 25.8893C93.8211 25.0278 93.5691 23.9792 93.5691 22.7438ZM96.8366 22.7438C96.8366 23.4103 96.9748 23.9792 97.2511 24.4507C97.5275 24.9058 97.9014 25.2554 98.3728 25.4992C98.8443 25.743 99.3482 25.865 99.8847 25.865C100.356 25.865 100.811 25.7512 101.25 25.5236C101.705 25.2797 102.071 24.9302 102.348 24.475C102.64 24.0036 102.786 23.4265 102.786 22.7438C102.786 22.2235 102.705 21.7684 102.543 21.3782C102.38 20.9881 102.152 20.6629 101.86 20.4028C101.583 20.1427 101.275 19.9477 100.933 19.8176C100.592 19.6713 100.242 19.5982 99.8847 19.5982C99.3482 19.5982 98.8443 19.7201 98.3728 19.9639C97.9014 20.2078 97.5275 20.5654 97.2511 21.0368C96.9748 21.492 96.8366 22.061 96.8366 22.7438Z" fill="#222222"/>
<path d="M86.0907 28.6936C84.8715 28.6936 83.8067 28.4497 82.8963 27.962C81.986 27.4743 81.2788 26.7997 80.7749 25.9381C80.2872 25.0603 80.0433 24.028 80.0433 22.8413C80.0433 21.6383 80.2872 20.606 80.7749 19.7445C81.2788 18.8666 81.986 18.192 82.8963 17.7205C83.8067 17.2329 84.8796 16.989 86.1151 16.989C87.3505 16.989 88.3991 17.2166 89.2607 17.6718C90.1385 18.1107 90.805 18.761 91.2602 19.6225C91.7154 20.4679 91.943 21.492 91.943 22.695C91.943 22.8413 91.9348 22.9957 91.9186 23.1583C91.9186 23.3209 91.9104 23.4509 91.8942 23.5484H81.8478V21.5977H89.1387L88.2853 22.7194C88.3503 22.6218 88.4072 22.4918 88.456 22.3292C88.521 22.1504 88.5535 22.0041 88.5535 21.8903C88.5535 21.3376 88.4479 20.8661 88.2365 20.476C88.0414 20.0858 87.757 19.777 87.3831 19.5494C87.0092 19.3218 86.5702 19.208 86.0663 19.208C85.4486 19.208 84.9284 19.3462 84.5057 19.6225C84.0993 19.8826 83.7823 20.2809 83.5547 20.8174C83.3434 21.3376 83.2296 21.9878 83.2133 22.7681C83.2133 23.5159 83.319 24.1499 83.5303 24.6701C83.7579 25.1903 84.0912 25.5886 84.5301 25.865C84.969 26.1413 85.4973 26.2795 86.1151 26.2795C86.8141 26.2795 87.4074 26.1494 87.8951 25.8893C88.3991 25.613 88.8136 25.2066 89.1387 24.6701L91.8942 25.5236C91.309 26.5802 90.5287 27.3768 89.5533 27.9133C88.5942 28.4335 87.44 28.6936 86.0907 28.6936Z" fill="#222222"/>
<path d="M74.5126 9.42993H77.6826V28.4498H74.5126V9.42993Z" fill="#222222"/>
<path d="M66.2783 28.6936C65.0591 28.6936 63.9943 28.4497 63.0839 27.962C62.1736 27.4743 61.4664 26.7997 60.9625 25.9381C60.4748 25.0603 60.231 24.028 60.231 22.8413C60.231 21.6383 60.4748 20.606 60.9625 19.7445C61.4664 18.8666 62.1736 18.192 63.0839 17.7205C63.9943 17.2329 65.0672 16.989 66.3027 16.989C67.5382 16.989 68.5867 17.2166 69.4483 17.6718C70.3261 18.1107 70.9926 18.761 71.4478 19.6225C71.903 20.4679 72.1306 21.492 72.1306 22.695C72.1306 22.8413 72.1225 22.9957 72.1062 23.1583C72.1062 23.3209 72.0981 23.4509 72.0818 23.5484H62.0354V21.5977H69.3264L68.4729 22.7194C68.5379 22.6218 68.5948 22.4918 68.6436 22.3292C68.7086 22.1504 68.7411 22.0041 68.7411 21.8903C68.7411 21.3376 68.6355 20.8661 68.4241 20.476C68.2291 20.0858 67.9446 19.777 67.5707 19.5494C67.1968 19.3218 66.7579 19.208 66.2539 19.208C65.6362 19.208 65.116 19.3462 64.6933 19.6225C64.2869 19.8826 63.9699 20.2809 63.7423 20.8174C63.531 21.3376 63.4172 21.9878 63.4009 22.7681C63.4009 23.5159 63.5066 24.1499 63.7179 24.6701C63.9455 25.1903 64.2788 25.5886 64.7177 25.865C65.1566 26.1413 65.685 26.2795 66.3027 26.2795C67.0017 26.2795 67.5951 26.1494 68.0828 25.8893C68.5867 25.613 69.0012 25.2066 69.3264 24.6701L72.0818 25.5236C71.4966 26.5802 70.7163 27.3768 69.7409 27.9133C68.7818 28.4335 67.6276 28.6936 66.2783 28.6936Z" fill="#222222"/>
<path d="M49.0472 14.5262V11.3806H61.7272V14.5262H57.1185V28.4497H53.6315V14.5262H49.0472Z" fill="#222222"/>
<defs>
<linearGradient id="paint0_linear_2006_525" x1="20.4652" y1="39.5231" x2="20.4652" y2="0.477051" gradientUnits="userSpaceOnUse">
<stop stop-color="#1D93D2"/>
<stop offset="1" stop-color="#38B0E3"/>
</linearGradient>
</defs>
</svg>
