<svg width="152" height="34" viewBox="0 0 152 34" fill="none" xmlns="http://www.w3.org/2000/svg">
<path d="M18.0486 14.7934L28.8463 2.51245H26.2885L16.9089 13.1736L9.42306 2.51245H0.786865L12.1094 18.6356L0.786865 31.5125H3.34467L13.2433 20.2515L21.1507 31.5125H29.7869M4.26783 4.39975H8.19733L26.2866 29.7179H22.3561" fill="black"/>
<path d="M48.0793 17.2509L43.4298 9.50171H47.0081L49.1505 13.1484L50.4724 15.6327H50.5635L51.8627 13.1256L53.9139 9.50171H57.4922L52.8427 17.2509L57.4922 25H53.9139L51.7715 21.3306L50.4268 18.8463H50.3356L49.0365 21.3533L46.9853 25H43.4298L48.0793 17.2509ZM66.7611 28.4415C64.4363 25.661 63.5247 21.9003 63.5247 18.6184C63.5247 15.3364 64.4363 11.5757 66.7611 8.79517H69.9747C67.6727 11.5757 66.6471 15.3364 66.6471 18.6184C66.6471 21.9003 67.6727 25.661 69.9747 28.4415H66.7611ZM75.4972 25V12.3507H70.8705V9.50171H83.2691V12.3507H78.6197V25H75.4972ZM93.9027 13.6042L95.3157 20.2821L95.84 23.0627H95.9311L96.4781 20.2821L97.9596 13.6042H101.036L98.1647 25H93.424L92.2389 19.1198L91.7603 16.3164H91.6691L91.1677 19.1198L89.9597 25H85.4698L82.598 13.6042H85.8116L87.2475 20.2593L87.7717 23.0399H87.8629L88.3871 20.2593L89.823 13.6042H93.9027ZM102.537 25V13.6042H105.659V25H102.537ZM102.491 12.0088H105.705V9.04588H102.491V12.0088ZM111.637 25C109.404 25 108.561 23.8604 108.561 21.8548V16.1341H107.056V13.6042H108.561V11.006L111.683 10.5273V13.6042H113.803V16.1341H111.683V21.285C111.683 22.3106 111.888 22.4701 112.777 22.4701H113.803V25H111.637ZM119.272 25C117.038 25 116.195 23.8604 116.195 21.8548V16.1341H114.691V13.6042H116.195V11.006L119.317 10.5273V13.6042H121.437V16.1341H119.317V21.285C119.317 22.3106 119.522 22.4701 120.411 22.4701H121.437V25H119.272ZM128.413 25.2279C125.086 25.2279 122.693 23.1311 122.693 19.3021C122.693 15.4731 125.063 13.3763 128.322 13.3763C131.559 13.3763 133.678 15.4503 133.678 19.1198V20.0542H125.929V20.1682C125.929 21.8548 126.818 22.9943 128.436 22.9943C129.644 22.9943 130.351 22.379 130.556 21.5813H133.519C133.131 23.7237 131.24 25.2279 128.413 25.2279ZM125.929 18.1169H130.533C130.533 16.6127 129.758 15.6099 128.277 15.6099C126.841 15.6099 126.02 16.5671 125.929 18.1169ZM135.5 25V13.6042H138.486L138.531 16.0885C139.374 14.174 140.4 13.4902 141.95 13.4902H142.542V16.4987H140.901C139.352 16.4987 138.622 17.0913 138.622 18.8919V25H135.5ZM143.451 28.4415C145.753 25.661 146.779 21.9003 146.779 18.6184C146.779 15.3364 145.753 11.5757 143.451 8.79517H146.665C148.99 11.5757 149.901 15.3364 149.901 18.6184C149.901 21.9003 148.99 25.661 146.665 28.4415H143.451Z" fill="#222222"/>
</svg>
